<?xml version="1.0" encoding="utf-8"?>
<!-- Generator: Adobe Illustrator 23.0.1, SVG Export Plug-In . SVG Version: 6.00 Build 0)  -->
<svg version="1.1" id="Layer_1" xmlns="http://www.w3.org/2000/svg" xmlns:xlink="http://www.w3.org/1999/xlink" x="0px" y="0px"
	 width="1000px" height="1000px" viewBox="0 0 1000 1000" style="enable-background:new 0 0 1000 1000;" xml:space="preserve">
<style type="text/css">
	.st0{fill:#FFD902;}
	.st1{fill:#875713;}
	.st2{fill:#005104;}
</style>
<g>
	<path class="st0" d="M491.2,269.7c1.8-0.5,3.5-1,5.1-1.5c9.7-3.1,18.7-7.3,25.4-10.7c6.1-3,11.2-5.1,16.1-6.4
		c4.2-1.2,8.7-1.9,13.2-2.3c2.8-0.2,5.3-0.3,7.7-0.3c-0.4,1-0.5,2-0.2,3c0.3,1.4,1.2,2.7,2.4,3.4c-0.7,1.3-0.8,2.8-0.4,4.2
		c0.4,1.3,1.4,2.4,2.6,3.1c-7.3,2.1-15.1,4.5-24.5,7.3c-8.2,2.4-16.6,4.9-25.2,5.4C504.9,275.4,497,273.5,491.2,269.7z M638.1,147.5
		c-0.3,2.2-0.8,4.3-1.3,6.5c-0.5,2.1-1.1,4.2-1.8,6.3c0.6,0.3,1.1,0.7,1.5,1.1c0.6-0.5,1.2-0.8,1.9-1v-0.7c0-1.7-0.1-3.4-0.2-5.1
		l0.3-0.1l0,0l-0.3,0C638.2,152.3,638.1,149.9,638.1,147.5z M741.8,150.6c-4.4,1.2-9.9,3.2-13.9,7c-1.8,1.8-3.4,4-4.9,6.1l-0.5,0.8
		c-0.4,0.6-0.8,1.1-1.1,1.5c-7.6,10.1-18.4,17.7-30.6,21.3l-0.3,0.1c0,0-0.1,0-0.1,0c0.1,0.5,0.1,1,0.1,1.6c1.2,0.2,2.4,0.8,3.2,1.7
		c10.3-6.5,21.4-11.3,33-14.2c0.5-0.1,1-0.3,1.5-0.4c2.6-0.7,5.3-1.3,7.8-2.5c4.6-2.2,8.6-6.4,12.1-12.5c1.6-2.9,3-6,4.4-9l0,0
		c0.7-1.6,1.5-3.3,2.3-5c-2.8,1-5.6,1.7-8.3,2.4C745,149.8,743.3,150.2,741.8,150.6z M558.5,121.2L558.5,121.2
		c-2.7-1.2-5.6-2.3-8.7-3.2c-1.5-0.5-2.9-0.9-4.5-1.3c-0.3-0.1-0.7-0.2-1.1-0.3c-0.5-0.2-1.2-0.4-1.8-0.5c0.2,0.4,0.4,0.8,0.6,1.2
		c0.2,0.4,0.4,0.8,0.6,1.2c0.3,0.7,0.6,1.3,0.9,2c0.3,0.7,0.7,1.4,1,2.1c1.2,2.5,2.6,5.1,4,7.8c2.8,5.2,5.7,10.4,8.7,15.3
		c4,6.5,8.2,12.8,12.5,18.9c2.9,4,6.5,8.8,10.6,13.2c0.4,0.5,0.9,0.9,1.4,1.4c1-0.6,2.1-0.9,3.3-0.8c0.2-1.4,1-2.8,2.2-3.6
		c1.2-0.8,2.7-1.2,4.1-0.9c0.3-1.4,1.3-2.6,2.5-3.4c1.3-0.7,2.8-0.9,4.2-0.5c0.5-1.4,1.5-2.5,2.9-3.1c0.2-0.1,0.4-0.2,0.6-0.2
		c-4.3-10.4-10.6-19.9-18.4-27.7C576.7,131.2,568.2,125.4,558.5,121.2z M593.2,120.5c-7.3-8-15.9-13.5-25.6-16.3
		c3.4,4.2,7.9,11.8,11.7,25c5.7,4.4,10.8,9.5,15.1,15.1c2.3,3,4.3,6.1,6.2,9.4c-1.9-5.7-3.6-12.3-5.1-19.5
		C594.6,129.9,593.9,125.4,593.2,120.5z M644.2,93.3c-1.2,3-2.5,5.9-3.7,8.9c-1.2,3-2.5,5.9-3.7,8.9c-0.1,0.1-0.1,0.3-0.2,0.4
		c-0.3,0.7-0.4,1-0.3,1.4c0.1,0.3,0.1,0.5,0.2,0.8l0,0.1c0.2,0.6,0.3,1.2,0.5,1.9c0.4,1.6,0.7,3.3,1.1,5.4c0.6,3.6,0.9,7.3,1.1,11
		c0.1,2.3,0,4.6-0.1,6.8c0.8-4.2,2-8.3,3.1-12.4c1.5-5.1,3-10.5,3.6-15.8c0.7-6.2,0.3-12.1-0.6-19.5
		C644.8,91.9,644.5,92.6,644.2,93.3z M606.4,121.5c-2-2.9-4.1-5.8-6.3-8.7c-1.3-1.7-2.3-3-3.3-4.2c-0.3-0.4-0.6-0.8-0.9-1.2
		c-0.2-0.3-0.4-0.6-0.6-0.8c0.1,1.2,0.3,2.5,0.5,3.7c0.1,0.9,0.3,1.8,0.3,2.6c0.3,2.5,0.5,4.9,0.8,7.5l0.2,1.7
		c0.9,7.1,1.9,12.8,3.2,18l0.6,2.5c2,7.8,4.7,14.9,8,21.2c0.1-0.1,0.3-0.1,0.4-0.2c0.9-0.3,1.9-0.4,2.9-0.2
		c-2.9-7.2-4.3-15.1-4.1-22.8c-0.3-2.3,0.1-4.7,0.5-6.9c0.5-2.6,0.9-5.1,0.3-7.5C608.4,124.5,607.5,123,606.4,121.5z M670,156
		c4.7-11.1,11.2-21.3,19.3-30.1c0.2-0.2,0.4-0.4,0.6-0.6l0.2-0.2c1.6-1.8,3.3-3.7,4.4-5.8c1.8-3.5,2.2-8,1.2-12.7
		c-0.8-3.9-2.6-7.7-4-10.7c-3.4,6.6-6.9,13.3-10.6,19.9c-1.2,2.2-2.7,4.8-4.3,7.5c-0.6,1.1-1.2,2.1-1.8,3.1
		c-0.2,0.3-0.3,0.5-0.5,0.7c-0.3,0.4-0.6,0.8-0.7,1.1c-0.1,0.3-0.1,0.9,0,1.3c0,0.3,0.1,0.6,0.1,0.9c0,1.7,0,3.4-0.1,5.8
		C673.2,142.9,672,149.6,670,156z M667,102.1c-1.4-3.1-3.7-5.4-6.3-6.4c-0.7,0.9-2,3.1-2.6,4.1c-3.8,5.9-8,13-10.8,20.5
		c-0.6,1.6-1,3.2-1.4,4.8l-0.2,0.6c-1.2,4.5-2,8.2-2.5,11.7c-1.4,8.5-1.7,16.1-0.8,23.2c0.7,0.4,1.4,0.9,1.9,1.5
		c1.2-0.8,2.7-1.1,4.1-0.8c1.4,0.3,2.7,1.2,3.4,2.4c0.8-0.4,1.7-0.6,2.5-0.6c0.6,0,1.1,0.1,1.7,0.3c1.4,0.4,2.5,1.4,3.2,2.8
		c0.8-0.3,1.8-0.5,2.6-0.4c1.7-3.2,3.2-6.7,4.3-10.2c2.7-8.4,3.9-17.8,3.8-28.8c-0.1-4.4-0.4-9.2-0.9-14.6v0
		C668.9,109.1,668.5,105.4,667,102.1z M516.7,145.5c0.1,0.3,0.2,0.6,0.3,0.9c0.4,1.4,0.7,2.8,1.1,3.9c0.8,2.5,1.8,5.1,2.9,7.6
		c2.1,4.9,4.9,9.6,8.1,14.1c0.3,0.5,0.7,0.9,1.1,1.4c1.4,1.8,2.9,3.6,4.8,4.8c1.9,1.2,4.2,1.9,6.5,2.5c0.3,0.1,0.7,0.2,1,0.3
		c10.1,2.9,19.5,7.5,27.9,13.7c-0.1-1.3,0.3-2.5,1-3.6c0.9-1.2,2.2-2,3.6-2.2c-0.1-1.5,0.4-2.9,1.4-4c-2.3-3.3-5.1-6.5-8.7-10
		c-7.4-7.3-15.9-13.9-25.1-19.5c-4.7-2.8-9.4-5.3-14.2-7.4c-2.4-1.1-4.8-2.1-7.4-3.1c-1.2-0.5-2.5-0.9-3.7-1.4
		c-0.2-0.1-0.5-0.2-0.7-0.3c-0.2-0.1-0.4-0.2-0.5-0.2C516.2,143.8,516.4,144.7,516.7,145.5l-0.3,0.1L516.7,145.5z M623.6,95.8
		c-2.9,6.9-5.9,14.3-8.2,22c-0.9,3-1.5,5.7-1.9,8.3c-0.6,3.6-1,7.2-1,10.8c-0.1,3.6,0.1,7.2,0.5,10.9c0.4,3.4,1,7,2,10.6
		c0.3,1.2,0.6,2.3,1,3.4c0.4-0.2,0.8-0.3,1.2-0.4c0.4-0.1,0.8-0.1,1.1-0.1c1.1,0,2.1,0.3,3,0.9c0.9-1.2,2.2-1.9,3.7-2.1
		c1.5-0.2,2.9,0.3,4,1.2c0.6-0.7,1.5-1.2,2.3-1.4c3.4-9.9,4.8-20.3,4.2-30.1c-0.3-4.8-1.1-9.6-2.4-14.2v0
		C630.9,108.4,627.8,101.7,623.6,95.8z M735.8,177.8L735.8,177.8c-7.2,1.5-14.3,3.7-21,6.5c-6.9,2.8-13.4,6.2-19.6,10.1
		c0,0.3,0,0.6-0.1,0.9c1.4,0.3,2.6,1.3,3.4,2.5c0.7,1.3,0.9,2.8,0.5,4.2c1.3,0.5,2.5,1.5,3,2.8c11.9,1,23.9-1,34.6-5.9
		c12.6-5.8,23.4-15.4,30.6-27.3c-6.4,1.9-13.1,3.1-19.5,4.1C743.8,176.3,739.7,177,735.8,177.8z M670.4,357.9c0.1,0.7,0.2,1.4,0.4,2
		l0,0c1.5,7.1,6.2,13.6,9.5,18c3.5-6.8,4.1-15.1,4.6-21.8l0-0.2c0.2-3,0.5-6.2-0.3-9.1c-0.9-3.4-3.2-6.4-5.3-9.4
		c-0.3-0.4-0.6-0.8-0.9-1.2c-7.6-10.4-12.3-21-14-31.5c-0.2,0.1-0.4,0.2-0.6,0.3c-0.9,0.4-1.9,0.5-2.9,0.4
		c4.2,9.8,9.3,21.9,9.7,34.2c0.1,2.4,0,4.9-0.1,7.3C670.1,350.6,669.9,354.4,670.4,357.9z M529.7,126.6c0.2,3.5,1.5,10.7,7.3,21.7
		c3.3,1.7,6.5,3.5,10,5.6c10.1,6.2,23.9,16.3,32.5,29.4c0.2,0,0.4-0.1,0.7-0.1c0-0.5,0.1-0.9,0.2-1.4c-8.1-8.4-16.7-20-25.4-34.5
		c-2.4-4-4.7-8.1-6.9-12C539.9,130.7,532.8,127.8,529.7,126.6z M756.6,192.3c-1.3,0.5-2.6,1.1-3.7,1.6c-2.7,1.3-10.5,5.7-11.8,6.4
		c-11.2,6.1-20.5,8.7-29.3,8.4c-1.2-0.1-2.3-0.2-3.5-0.3c-1.9-0.2-3.9-0.4-5.8-0.3c-0.1,0.3-0.2,0.6-0.3,0.9
		c1.3,0.6,2.3,1.8,2.8,3.2c0.3,1,0.4,2,0.1,3c2.5-0.6,5.8-1.3,8.9-1.7c3.8-0.6,7.7-0.7,11.5-0.9c4.3-0.2,8.7-0.4,13-1.2
		c13.2-2.3,25.6-10.2,33.4-21.1C767.4,189.5,762.1,190.2,756.6,192.3z M765.1,223c2.4,0.3,5.8,0.3,8.8-1.2c-0.7-1.5-1.8-2.9-3.3-4
		c-1.4-1.2-3.2-2.1-5.1-2.7c-4-1.3-8.3-1.3-12.4-1.1c-13.4,0.4-27,2-40.2,3.5c-2.3,0.3-4.4,0.5-6.5,1.1c0.2,0.5,0.4,0.9,0.5,1.4
		c0.3,1.4,0,2.9-0.8,4.1c0,0,0,0,0,0c15.4-6.4,32.7-7.6,48.7-3.5l0,0c0.9,0.2,1.8,0.5,2.7,0.7C760.2,222,762.7,222.7,765.1,223z
		 M686.4,160.9L686.4,160.9c-0.9,1.3-1.9,2.7-2.8,4.3c-0.4,0.7-0.8,1.4-1.1,2.2c-0.3,0.7-0.7,1.5-1.1,2.2c-1.2,2-2.1,4.1-2.7,6.2
		c0.4,0.7,0.7,1.4,0.8,2.2c1.5-0.1,2.9,0.4,4,1.4c1.1,1,1.7,2.4,1.8,3.8c1,0,2,0.4,2.8,0.9c6.9-1.5,13.9-5,20.2-10.2
		c5.6-4.6,10.8-10.4,16.5-18.5c3.6-5.1,7-10.7,8.1-17c0.2-1,0.4-3.3-0.7-4.6c-0.1-0.2-0.3-0.3-0.5-0.4c-1.1-0.6-2.6-0.2-4.1,0.3
		c-10.7,3.6-19.4,7.8-26.5,12.9C695.3,150.7,690.3,155.5,686.4,160.9z M712.3,108.8c-0.4,0.3-0.8,0.7-1.2,1c-1.5,1.1-3,2.3-4.4,3.6
		c-3.1,2.7-5.9,5.3-8.4,8c-4.8,5-9.1,10.2-12.9,15.5c-4,5.4-7.6,11.4-10.7,17.9c-2.1,4.3-4,9.3-5.5,14.7c0.5,0.1,1,0.3,1.5,0.6
		c1.3,0.8,2.2,2,2.5,3.4c0.3-0.1,0.6-0.1,0.9-0.1c0.5,0,1,0.1,1.5,0.2c0.7-1.3,1.3-2.7,1.9-4c0.6-1.3,1.2-2.7,1.9-4
		c3.1-6.1,7.4-11.7,12.6-16.2c1-0.9,2.1-1.7,3.2-2.6c2.6-2,5.2-4.1,7.2-6.7c2.3-2.9,3.7-6.5,5-9.6c2.8-6.8,5.9-14.4,5.6-22.2
		C712.8,108.4,712.5,108.6,712.3,108.8z M759.3,294.9c-1.7-1.9-5-5.2-9.3-9c-2.1,0-4.3,0-6.3-0.1c-3.2-0.1-6.3-0.4-9.4-0.8
		c2.6,3,5,6.2,7.2,9.6C747.4,295.6,753.4,295.7,759.3,294.9z M720.9,318L720.9,318c3.7,1.7,7.5,3.2,11.4,4.2
		c-3.7-11.5-9.4-21.9-16.5-30c-5.9-6.8-13-12.3-20.7-15.9c0.2,1.4-0.1,2.9-1,4.1c-0.9,1.2-2.2,2-3.6,2.2c0.1,1.5-0.4,2.9-1.4,4
		c-0.2,0.2-0.4,0.5-0.7,0.7c0.1,0.3,0.3,0.6,0.4,0.7c0.5,1,1.2,2,2.1,3.4c1.5,2.3,3,4.5,4.7,6.5C702.7,306.5,711.4,313.5,720.9,318z
		 M741.5,317.7c2.6,0.9,5.4,1.4,8,1.7c-3.9-10.9-9.4-21.2-16.6-30.4c-1.1-1.4-2.5-3.1-4.2-4.2c-1.7-1.1-3.9-1.7-6-2.2l-0.1,0
		c-0.3-0.1-0.5-0.1-0.8-0.2c-4.8-1.2-14.9-6-22.8-10.1c-0.1,0.5-0.3,0.9-0.6,1.4c0,0.1-0.1,0.1-0.1,0.2c1.8,1.3,3.4,2.3,5.1,3.3
		c9.2,5.5,17.4,13.8,23.3,23.6c0.8,1.4,1.7,2.9,2.6,4.6c0.2,0.4,0.4,0.7,0.6,1.1c1,2.1,2.1,4.3,3.6,6.1
		C735.4,314.8,738.1,316.5,741.5,317.7z M717.9,328.3c-4.8-5.4-8.6-10.5-11.2-14.7c-8.7-6.6-15.9-14.8-21.4-24.7
		c-0.2,1.2-0.8,2.3-1.7,3.1c-0.3,0.3-0.6,0.5-1,0.7c3.8,5.4,7.2,12.3,10.1,20.3C699.1,319.9,707.6,325,717.9,328.3z M665,373.3
		c1.2-11.8,2.6-26.4,0.4-40.2c-1.3-8-3.8-16.3-7.8-25.9c-0.5,0.3-1,0.6-1.5,0.8c-1.4,0.5-3,0.3-4.2-0.4c-0.8,1.2-2,2.1-3.4,2.4
		c-0.6,0.1-1.2,0.1-1.8,0.1c-0.6,5.5-0.9,9.8-0.9,13.9c-0.1,4.3,0.1,8.6,0.6,12.7C648.4,352.2,655.1,365.4,665,373.3z M750.9,265.3
		c-5.3-1.9-10.8-3.1-16.4-4.3c-2.2-0.4-4.5-0.9-6.7-1.4c-7.2-1.6-14.4-3.9-21.3-6.7c-0.4,0.8-1.1,1.6-1.9,2.1
		c0.7,1.3,0.8,2.9,0.4,4.2c-0.4,1.4-1.4,2.5-2.8,3.2c0.5,1.3,0.5,2.9-0.1,4.2c-0.4,0.8-1,1.6-1.7,2.1l0.5,0.3
		c1.4,0.9,2.9,1.8,4.6,2.8c3.1,1.7,6.4,3.3,9.7,4.6c6.4,2.5,13.3,4.2,20.4,5.1c12.2,1.5,25.5,0.7,39.6-2.3c-0.6,0.1-3.4-2.3-4-2.8
		c-1.6-1.1-3.2-2.2-4.9-3.2c-3.2-2-6.5-3.9-9.9-5.5C754.7,266.7,752.8,265.9,750.9,265.3z M698.8,358.3
		c-2.5-14.9-6.1-29.8-10.8-44.3c-1.6-4.8-3.5-10.4-6.4-15.5c-0.8-1.4-1.6-2.6-2.4-3.8c-0.4,1-1,1.8-1.8,2.4
		c-1.2,0.8-2.7,1.2-4.1,0.9c-0.3,1.4-1.3,2.6-2.5,3.4c-1,0.6-2.2,0.8-3.4,0.7c0.5,2.8,1.2,5.7,2.2,8.7c1.6,5,4,10.2,6.9,15.5
		C680.9,334.2,696.5,355.1,698.8,358.3z M720.3,223.7L720.3,223.7c-3.6,0.7-7.3,1.8-11,3c-0.4,0.1-0.8,0.3-1.1,0.4
		c0,0.2,0.1,0.4,0.1,0.6c0.2,1.4-0.3,2.9-1.2,4c1,1,1.7,2.4,1.7,3.9c0,1.4-0.6,2.7-1.5,3.7c10.6,6.1,24.1,8.8,38.3,7.4
		c5.1-0.5,10.3-1.5,15.6-2.9c6.7-1.8,13.7-4.4,21.3-7.8c-11.7-8-25.4-12.8-39.6-13.9C735.3,221.7,727.8,222.2,720.3,223.7z
		 M777.6,262.6c-2.7-2.5-5.7-5.3-9-7.6c-4-2.8-8-4.5-12-5.1c-0.4-0.1-0.7-0.1-1.1-0.1c-3-0.3-6.2,0.1-9.2,0.4
		c-0.7,0.1-1.5,0.2-2.2,0.3c-11.6,1.2-21.8-0.1-30.4-4c-0.6-0.2-1.1-0.5-1.7-0.8c-1.2-0.6-2.5-1.2-3.8-1.6c-0.3,1.3-1,2.4-2,3.2
		c0.3,0.5,0.6,1,0.7,1.6c9.5,4.1,20.2,7.2,31.8,9.4C752.7,261,766.7,262,777.6,262.6z M493.4,180.7c5.8,4.2,16.8,11.8,29.6,19
		c2.2,1.2,4.4,2.4,6.6,3.5c8.9,0.5,16.9,1.7,23.7,3.5c3.2,0.9,6.2,1.9,9,3.1c0.3-0.2,0.7-0.5,1-0.6c-0.5-1.4-0.5-2.9,0.1-4.3
		c0.6-1.3,1.7-2.4,3.1-2.9c-0.4-1.4-0.2-3,0.5-4.2c0.1-0.2,0.2-0.4,0.4-0.6c-0.9-0.6-1.7-1.2-2.6-1.8c-4.4-2.9-9.1-5.4-13.9-7.4
		c-8.8-3.8-18.4-6.3-28.5-7.5C509.8,179.1,499.1,179.9,493.4,180.7z M650.1,361.3c-1.1-2.1-2.1-4.2-3-6.5c-3.2-8.2-4.8-17.9-5-28.8
		c-0.1-4.9,0.2-10,0.7-15.5c-0.7,0.4-1.4,0.6-2.2,0.7c-1.1,0.1-2.3-0.1-3.2-0.7c1.1,12.1,1.6,29.2-1.9,43.5c1.6,8.8,4,18,7.3,27.4
		C644.5,377.6,647.5,370.3,650.1,361.3z M525.7,287.5c0.3,0,0.7,0,1,0c1.3,0,2.5,0,3.6-0.4c0.2-0.1,0.4-0.2,0.6-0.3
		c0.9-0.6,1.7-1.4,2.5-2.2c0.5-0.5,1.1-1.1,1.7-1.6c2.5-2.1,4.8-3.9,7.1-5.5c4.7-3.3,19.1-9.7,21.5-10.4c-0.1-0.2-0.2-0.3-0.3-0.5
		c0-0.1-0.1-0.2-0.1-0.3c-22.3,6.7-38.4,10.8-48,12c-2.7,0.4-5.1,0.5-6.9,0.4c-0.5,0-1.1-0.1-1.7-0.2c-4.3,2.4-7.9,4.6-10.2,6.1
		C502.3,285.9,513.1,287.7,525.7,287.5z M521.5,252.6L521.5,252.6c2.4-0.7,4.7-1.6,6.9-2.5c2.4-0.9,4.8-1.9,7.4-2.7
		c7.4-2.1,15.6-2.3,21.7-2.4c-0.1-0.4-0.2-0.8-0.3-1.3c-0.2-1.5,0.3-2.9,1.2-4c-1-1-1.7-2.4-1.7-3.9c0-1.4,0.6-2.9,1.7-3.9
		c-0.9-1.1-1.4-2.6-1.2-4c0-0.1,0-0.1,0-0.2c-7.3-1.2-15.4-1-23.3,0.5c-3.5,0.6-7.1,1.6-10.6,2.8l-0.1,0c-9,2-18.3,6.5-29.5,14.1
		c-3.6,2.5-7.1,5.1-10.3,7.9C494.8,254.6,508.7,256.5,521.5,252.6z M625.2,370.3c4.6-8.4,7.4-17.7,8.6-28.6
		c0.4-3.1,0.6-6.4,0.7-10.7c0.1-2.9-0.1-5.9-0.2-8.7c-0.1-2.5-0.2-5-0.2-7.5c0-0.7,0-1.4-0.1-2.1l0-0.1c0-0.3,0-0.6-0.1-0.9
		c-0.4,0.1-0.9,0.1-1.4,0.1c-1.3,8.9-4.1,18.7-8.5,29.1c-0.1,7.2-1,15-2.5,22.6c-0.5,2.7-2.3,11.5-5,17.7c0.7-0.5,1.3-1.1,2-1.6
		C621.6,376.6,623.7,373,625.2,370.3z M576.1,286.3c-0.8-1-1.2-2.4-1.2-3.7c-1.4-0.2-2.8-1-3.6-2.2c-0.9-1.2-1.2-2.7-0.9-4.1
		c-1.4-0.3-2.6-1.3-3.4-2.5c-0.6-1-0.8-2.2-0.7-3.4c-0.5,0.1-1,0.2-1.4,0.4c-1.6,0.4-3.1,1-4.6,1.6c-1.1,0.4-2.2,0.8-3.3,1.2
		c-4.2,1.3-8.1,4.1-11.8,6.8l-0.6,0.4c-4.2,3-8.2,6.2-11.8,9.6c-7.5,7-14,15-19.2,23.6c-0.2,0.4-0.5,0.8-0.7,1.2
		c12.8-2.7,27.6-6.4,41.4-13.9C562.3,297.4,569.7,292.4,576.1,286.3z M517.8,227.2c3.4,0.3,6.8-0.6,10.1-1.4l0,0
		c0.8-0.2,1.6-0.4,2.3-0.6c9.3-2.2,19.2-2.5,28.7-0.9c0.1,0,0.1-0.1,0.2-0.1c-0.8-1.2-1.1-2.7-0.8-4.2c0.3-1.4,1.2-2.7,2.4-3.4
		c-0.6-1.1-0.8-2.3-0.6-3.5c-2-0.9-4.2-1.6-6.4-2.3c-6.3-1.9-13.2-3-22.6-3.6c-12.4-0.8-24.8-0.5-37,1c-3.5,0.4-6.6,0.8-9.6,1.3
		c7.4,6.1,15.6,11.3,24.4,15.2C512.3,225.9,515,226.9,517.8,227.2z M588.1,364c3.4-4.1,6.9-8.4,8.3-13.5c0.6-2.3,0.8-4.7,0.9-7.1
		l0-0.1c0-0.5,0.1-1.1,0.1-1.6c1-12.5,4.9-24.2,11.2-33.9c-1.1-0.5-2-1.4-2.5-2.5c-1.3,0.5-2.9,0.5-4.2-0.1c-0.9-0.4-1.7-1-2.2-1.9
		c-8.7,9.6-15,21.2-18.2,33.6c-3.2,12.2-3.3,25-0.6,37.3C582.8,370.4,585.5,367.2,588.1,364z M546.7,327.3c3.9-2.3,8-4.2,12-6
		c2.9-1.3,5.9-2.7,8.8-4.2c9.7-5.1,17.3-11.7,22.1-19.2c-0.5-0.2-1-0.4-1.5-0.7c-1.2-0.9-2-2.2-2.2-3.6c-1.5,0.1-2.9-0.4-4-1.4
		c-1.1-1-1.8-2.4-1.8-3.9c-0.2,0-0.4,0-0.6-0.1c-0.8,0.7-1.6,1.5-2.4,2.2c-4.2,3.7-8.7,7-13.5,9.8c-0.5,0.3-1.1,0.6-1.6,0.9
		c-0.8,0.4-1.6,0.8-2.4,1.3l-0.1,0c-0.4,0.2-0.7,0.4-1.1,0.5c-2.3,1.2-4.5,2.3-6.2,4.1c-2.1,2.2-3.1,5.1-4.2,8.2
		c-0.6,1.6-1.1,3.2-1.9,4.8c-1.6,3.3-3.9,6.2-6.2,8.9c-0.8,1-1.7,2-2.4,3.1c-1.7,2.2-2.9,4.2-3.7,6.2
		C537,334.2,541.2,330.5,546.7,327.3z M621.9,335.7L621.9,335.7c3.7-8,6.1-16.6,7.1-25.6c0,0,0,0,0,0c-1.1,0.9-2.6,1.4-4,1.2
		c-1.5-0.2-2.8-0.9-3.7-2.1c-1.2,0.8-2.7,1.1-4.1,0.8c-1.4-0.3-2.7-1.2-3.5-2.4c-0.3,0.1-0.5,0.3-0.8,0.4c-1.1,1.7-2,3.3-2.8,4.7
		c-2.9,5.3-5.2,11.1-6.7,17.1c-3.4,13-3.6,27.6-0.7,42.3C610.4,360.7,616.9,348.5,621.9,335.7z M565.9,350.1L565.9,350.1
		c5.5-6.8,9.6-14.7,13.5-22.4l1-2c4.5-8.6,9.1-16.9,15.4-23.8c-0.4-0.1-0.7-0.3-1-0.5c-0.9-0.5-1.6-1.2-2-2.1
		c-4.9,8.3-12.3,15.1-20.8,19.4c-0.7,0.4-1.4,0.7-2.1,1c-2.4,1.1-4.9,2.3-6.8,4.1c-2,1.9-3.3,4.4-4.6,6.8l-0.1,0.1
		c-5.5,10.3-11.6,22-13.7,34.4c2.8-0.8,5.6-2,8.3-3.6C557.7,358.8,562,355,565.9,350.1z"/>
	<path class="st1" d="M704.2,239.9l-0.7-0.5l0.7-0.4c1.2-0.7,1.9-1.9,1.9-3.3c0-1.4-0.7-2.7-1.9-3.3l-0.7-0.4l0.7-0.5
		c1.1-0.8,1.7-2.1,1.6-3.5c-0.1-1.4-1-2.5-2.3-3.1l-0.8-0.3l0.6-0.6c1-0.9,1.5-2.3,1.2-3.6c-0.3-1.3-1.3-2.4-2.6-2.8l-0.8-0.3
		l0.6-0.6c0.9-1,1.2-2.4,0.8-3.7c-0.4-1.3-1.5-2.3-2.9-2.6l-0.8-0.2l0.5-0.7c0.8-1.1,1-2.6,0.4-3.8c-0.5-1.2-1.7-2.1-3.1-2.2
		l-0.8-0.1l0.4-0.7c0.7-1.2,0.7-2.7,0-3.8c-0.7-1.2-2-1.9-3.3-1.9l-0.8,0l0.3-0.8c0.6-1.3,0.4-2.7-0.4-3.8c-0.8-1.1-2.1-1.7-3.5-1.5
		l-0.8,0.1l0.3-0.8c0.4-1.3,0.1-2.8-0.8-3.8c-0.9-1-2.3-1.5-3.7-1.2l-0.8,0.2l0.2-0.8c0.3-1.3-0.1-2.7-1.2-3.7
		c-1-0.9-2.4-1.2-3.7-0.8l-0.8,0.3l0.1-0.8c0.2-1.4-0.4-2.7-1.5-3.5c-1.1-0.8-2.5-0.9-3.8-0.4l-0.8,0.4l0-0.9c0-1.4-0.7-2.6-1.9-3.3
		c-1.2-0.7-2.6-0.7-3.8,0l-0.7,0.4l-0.1-0.8c-0.1-1.4-1-2.6-2.2-3.1c-1.3-0.6-2.7-0.4-3.8,0.4l-0.7,0.5l-0.2-0.8
		c-0.3-1.4-1.3-2.5-2.5-2.9c-1.3-0.4-2.7-0.1-3.7,0.8l-0.6,0.6l-0.2-0.8c-0.4-1.3-1.5-2.3-2.8-2.6c-1.3-0.3-2.7,0.2-3.6,1.2
		l-0.6,0.6l-0.3-0.8c-0.5-1.3-1.7-2.1-3.1-2.3c-1.4-0.1-2.7,0.5-3.5,1.6l-0.5,0.7l-0.4-0.7c-0.7-1.2-1.9-2-3.3-2
		c-1.4,0-2.6,0.7-3.3,1.9l-0.4,0.7l-0.5-0.7c-0.8-1.1-2.1-1.7-3.5-1.6c-1.4,0.1-2.5,1-3.1,2.3l-0.3,0.8l-0.5-0.6
		c-0.9-1-2.3-1.5-3.6-1.2c-1.3,0.3-2.4,1.3-2.8,2.6l-0.2,0.8l-0.6-0.6c-1-0.9-2.4-1.2-3.7-0.8c-1.3,0.4-2.3,1.5-2.5,2.9l-0.2,0.8
		l-0.7-0.5c-1.1-0.8-2.5-1-3.8-0.4c-1.2,0.5-2.1,1.7-2.2,3.1l-0.1,0.8l-0.7-0.4c-1.2-0.7-2.6-0.7-3.8,0c-1.2,0.7-1.9,2-1.9,3.3
		l0,0.8l-0.8-0.3c-1.2-0.6-2.7-0.4-3.8,0.4c-1.1,0.8-1.7,2.2-1.5,3.5l0.1,0.8l-0.8-0.3c-1.3-0.4-2.7-0.1-3.7,0.8
		c-1,0.9-1.4,2.3-1.2,3.7l0.2,0.8l-0.8-0.2c-1.3-0.3-2.7,0.1-3.6,1.2c-0.9,1-1.2,2.4-0.8,3.8l0.3,0.8l-0.8-0.1
		c-1.4-0.2-2.7,0.4-3.5,1.5c-0.8,1.1-0.9,2.6-0.4,3.8l0.4,0.8l-0.9,0c-1.3,0-2.6,0.7-3.3,1.9c-0.7,1.2-0.7,2.7,0,3.8l0.4,0.7
		l-0.8,0.1c-1.4,0.1-2.6,1-3.1,2.2c-0.6,1.3-0.4,2.7,0.4,3.8l0.5,0.7l-0.8,0.2c-1.4,0.3-2.4,1.3-2.8,2.5c-0.4,1.3-0.1,2.7,0.8,3.8
		l0.6,0.6l-0.8,0.2c-1.3,0.4-2.3,1.5-2.6,2.8c-0.3,1.3,0.2,2.7,1.2,3.6l0.6,0.6l-0.8,0.3c-1.2,0.5-2.1,1.7-2.3,3.1
		c-0.1,1.4,0.5,2.7,1.6,3.5l0.7,0.5l-0.7,0.4c-1.2,0.7-1.9,1.9-1.9,3.3c0,1.4,0.7,2.7,1.9,3.3l0.7,0.4l-0.7,0.5
		c-1.1,0.8-1.7,2.1-1.6,3.5c0.1,1.4,1,2.5,2.3,3.1l0.8,0.3l-0.6,0.6c-1,0.9-1.5,2.3-1.2,3.6c0.3,1.3,1.3,2.4,2.6,2.8l0.8,0.3
		l-0.6,0.6c-0.9,1-1.2,2.4-0.8,3.7c0.4,1.3,1.5,2.3,2.9,2.6l0.8,0.2l-0.5,0.7c-0.8,1.1-1,2.6-0.4,3.8c0.5,1.2,1.7,2.1,3.1,2.2
		l0.8,0.1l-0.4,0.7c-0.7,1.2-0.7,2.7,0,3.8c0.7,1.2,2,1.9,3.3,1.9l0.8,0l-0.3,0.8c-0.6,1.3-0.4,2.7,0.4,3.8c0.8,1.1,2.1,1.7,3.5,1.5
		l0.8-0.1l-0.3,0.8c-0.4,1.3-0.1,2.8,0.8,3.8c0.9,1,2.3,1.5,3.7,1.2l0.8-0.2l-0.2,0.8c-0.3,1.3,0.1,2.7,1.2,3.7
		c1,0.9,2.4,1.2,3.7,0.8l0.8-0.3l-0.1,0.8c-0.2,1.4,0.4,2.7,1.5,3.5c1.1,0.8,2.5,0.9,3.8,0.4l0.8-0.4l0,0.9c0,1.4,0.7,2.6,1.9,3.3
		c1.2,0.7,2.6,0.7,3.8,0l0.7-0.4l0.1,0.8c0.1,1.4,1,2.6,2.2,3.1c1.3,0.6,2.7,0.4,3.8-0.4l0.7-0.5l0.2,0.8c0.3,1.4,1.3,2.5,2.5,2.9
		c1.3,0.4,2.7,0.1,3.7-0.8l0.6-0.6l0.2,0.8c0.4,1.3,1.5,2.3,2.8,2.6c1.3,0.3,2.7-0.2,3.6-1.2l0.6-0.6l0.3,0.8
		c0.5,1.3,1.7,2.1,3.1,2.3c1.4,0.1,2.7-0.5,3.5-1.6l0.5-0.7l0.4,0.7c0.7,1.2,1.9,2,3.3,2c1.4,0,2.6-0.7,3.3-1.9l0.4-0.7l0.5,0.7
		c0.8,1.1,2.1,1.7,3.5,1.6c1.4-0.1,2.5-1,3.1-2.3l0.3-0.8l0.5,0.6c0.9,1,2.3,1.5,3.6,1.2c1.3-0.3,2.4-1.3,2.8-2.6l0.2-0.8l0.6,0.6
		c1,0.9,2.4,1.2,3.7,0.8c1.3-0.4,2.3-1.5,2.5-2.9l0.2-0.8l0.7,0.5c1.1,0.8,2.5,1,3.8,0.4c1.2-0.5,2.1-1.7,2.2-3.1l0.1-0.8l0.7,0.4
		c1.2,0.7,2.6,0.7,3.8,0c1.2-0.7,1.9-2,1.9-3.3l0-0.8l0.8,0.3c1.2,0.6,2.7,0.4,3.8-0.4c1.1-0.8,1.7-2.2,1.5-3.5l-0.1-0.8l0.8,0.3
		c1.3,0.4,2.7,0.1,3.7-0.8c1-0.9,1.4-2.3,1.2-3.7l-0.2-0.8l0.8,0.2c1.3,0.3,2.7-0.1,3.6-1.2c0.9-1,1.2-2.4,0.8-3.8l-0.3-0.8l0.8,0.1
		c1.4,0.2,2.7-0.4,3.5-1.5c0.8-1.1,0.9-2.6,0.4-3.8l-0.4-0.8l0.9,0c1.3,0,2.6-0.7,3.3-1.9c0.7-1.2,0.7-2.7,0-3.8l-0.4-0.7l0.8-0.1
		c1.4-0.1,2.6-1,3.1-2.2c0.6-1.3,0.4-2.7-0.4-3.8l-0.5-0.7l0.8-0.2c1.4-0.3,2.4-1.3,2.8-2.5c0.4-1.3,0.1-2.7-0.8-3.8l-0.6-0.6
		l0.8-0.2c1.3-0.4,2.3-1.5,2.6-2.8c0.3-1.3-0.2-2.7-1.2-3.6l-0.6-0.6l0.8-0.3c1.2-0.5,2.1-1.7,2.3-3.1
		C705.9,242.1,705.3,240.8,704.2,239.9z"/>
	<path class="st0" d="M312,220.5c0.9-0.6,1.8-1.2,2.6-1.8c5-3.5,9.3-7.6,12.5-10.7c2.9-2.8,5.4-4.9,8-6.6c2.2-1.4,4.6-2.7,7.1-3.7
		c1.5-0.6,3-1.1,4.3-1.5c0,0.6,0.1,1.2,0.4,1.8c0.4,0.7,1.2,1.3,2,1.5c-0.2,0.9,0,1.8,0.6,2.5c0.5,0.7,1.2,1.1,2,1.3
		c-3.7,2.5-7.8,5.3-12.6,8.6c-4.2,2.9-8.5,5.8-13.4,7.6C320.8,221.3,316,221.7,312,220.5z M373.4,124.5c0.2,1.3,0.4,2.6,0.5,3.9
		c0.1,1.3,0.1,2.6,0.1,3.9c0.4,0.1,0.7,0.2,1.1,0.4c0.2-0.4,0.5-0.7,0.9-0.9l-0.1-0.4c-0.3-1-0.7-1.9-1-2.9l0.2-0.1l0,0l-0.2,0.1
		C374.3,127.2,373.8,125.9,373.4,124.5z M349.3,208.8L349.3,208.8C349.3,208.8,349.3,208.8,349.3,208.8L349.3,208.8z M432.8,107.5
		c-2.2,1.5-5,3.6-6.6,6.5c-0.7,1.3-1.2,2.9-1.7,4.3l-0.2,0.5c-0.1,0.4-0.3,0.8-0.4,1.1c-2.5,7.1-7.3,13.4-13.5,17.6l-0.1,0.1
		c0,0,0,0,0,0c0.2,0.3,0.3,0.6,0.3,0.9c0.7-0.1,1.5,0,2.1,0.4c4.7-5.6,10.1-10.3,16.2-14c0.3-0.2,0.5-0.3,0.8-0.5
		c1.4-0.9,2.8-1.7,4-2.8c2.2-2.1,3.7-5.2,4.6-9.3c0.4-1.9,0.6-4,0.9-5.9l0,0c0.1-1.1,0.3-2.2,0.4-3.3c-1.4,1.1-2.9,2-4.3,2.9
		C434.5,106.4,433.6,106.9,432.8,107.5z M323.4,124L323.4,124c-1.8-0.2-3.6-0.3-5.6-0.3c-0.9,0-1.8,0-2.8,0.1c-0.2,0-0.4,0-0.7,0
		c-0.3,0-0.8,0-1.1,0c0.2,0.2,0.4,0.4,0.6,0.6c0.2,0.2,0.4,0.4,0.6,0.6c0.3,0.3,0.6,0.6,0.9,0.9c0.3,0.3,0.6,0.7,0.9,1
		c1.1,1.2,2.4,2.4,3.7,3.7c2.5,2.5,5.1,4.9,7.7,7.1c3.4,3,7,5.8,10.5,8.5c2.4,1.8,5.3,3.8,8.4,5.6c0.3,0.2,0.7,0.4,1,0.5
		c0.4-0.5,1-0.9,1.7-1.1c-0.1-0.9,0.1-1.8,0.6-2.5c0.5-0.7,1.3-1.2,2.2-1.3c-0.1-0.9,0.2-1.7,0.8-2.4c0.6-0.6,1.4-1,2.3-1.1
		c0-0.9,0.4-1.7,1.1-2.3c0.1-0.1,0.2-0.2,0.3-0.2c-4.3-5.1-9.6-9.4-15.5-12.4C335.5,126.4,329.6,124.6,323.4,124z M342.9,117.3
		c-5.6-3.2-11.5-4.8-17.5-4.6c2.7,1.8,6.6,5.3,11.2,12.1c4,1.5,7.8,3.5,11.3,5.9c1.8,1.3,3.6,2.7,5.2,4.2c-2.1-2.9-4.3-6.3-6.4-10.2
		C345.5,122.4,344.2,119.9,342.9,117.3z M367,92.6c-0.2,1.9-0.3,3.8-0.5,5.7c-0.2,1.9-0.3,3.8-0.5,5.7c0,0.1,0,0.2,0,0.3
		c-0.1,0.4-0.1,0.6,0.1,0.9c0.1,0.1,0.2,0.3,0.3,0.4l0,0c0.2,0.3,0.4,0.6,0.6,1c0.5,0.8,1,1.8,1.6,2.9c1,2,1.9,4,2.6,6.1
		c0.5,1.3,0.8,2.6,1.2,3.9c-0.3-2.5-0.4-5.1-0.5-7.6c-0.1-3.2-0.2-6.5-0.8-9.6c-0.7-3.6-2-6.9-3.9-11
		C367.1,91.7,367.1,92.1,367,92.6z M350.7,115.4c-1.6-1.3-3.4-2.6-5.1-3.8c-1-0.7-1.9-1.3-2.7-1.8c-0.3-0.2-0.5-0.3-0.8-0.5
		c-0.2-0.1-0.3-0.2-0.5-0.4c0.3,0.7,0.6,1.4,0.9,2c0.2,0.5,0.5,1,0.7,1.4c0.6,1.4,1.2,2.7,1.8,4.1l0.4,0.9c1.8,3.9,3.4,6.9,5.1,9.7
		l0.8,1.3c2.5,4.1,5.4,7.6,8.4,10.6c0.1-0.1,0.1-0.1,0.2-0.2c0.5-0.3,1-0.6,1.6-0.6c-3-3.6-5.2-7.8-6.4-12.2c-0.6-1.3-0.8-2.7-1-4
		c-0.2-1.6-0.4-3.1-1.2-4.3C352.3,116.8,351.5,116.1,350.7,115.4z M393,123.5c0.4-3.9,1.1-7.7,2.1-11.5c0.7-2.4,1.5-4.7,2.5-7
		c0.9-2.2,2.2-4.4,2.6-6.8c0.4-2.3-0.2-4.9-1.6-7.5c-1.2-2.1-2.9-3.9-4.2-5.4c-0.7,4.4-1.5,8.8-2.4,13.2c-0.3,1.5-0.7,3.2-1.1,5.1
		c-0.2,0.7-0.3,1.4-0.5,2.1c0,0.2-0.1,0.4-0.1,0.5c-0.1,0.3-0.2,0.6-0.2,0.8c0,0.2,0.1,0.5,0.2,0.8c0.1,0.2,0.2,0.4,0.2,0.5
		c0.3,0.9,0.6,2,1,3.3C392.5,115.5,393,119.5,393,123.5z M381.6,93.5c-1.3-1.5-3.1-2.4-4.7-2.5c-0.2,0.7-0.6,2.1-0.7,2.8
		c-1.1,4-2.2,8.8-2.4,13.6c-0.2,3.5,0.3,7.1,0.8,10.5c0.7,5.1,2,9.5,3.8,13.3c0.5,0.1,0.9,0.3,1.3,0.5c0.5-0.7,1.3-1.1,2.2-1.2
		c0.9-0.1,1.7,0.2,2.4,0.8c0.4-0.4,0.8-0.7,1.3-0.8c0.3-0.1,0.7-0.2,1-0.2c0.9,0,1.7,0.4,2.3,1c0.4-0.3,0.9-0.6,1.4-0.7
		c0.4-2.1,0.6-4.4,0.6-6.6c0-5.2-1-10.8-3.1-17c-0.8-2.5-1.9-5.2-3.2-8.2C383.9,97.1,383,95.1,381.6,93.5z M304.3,145.8
		c0.5,0.8,0.9,1.4,1.4,2c0.9,1.3,1.9,2.6,3,3.8c2.1,2.4,4.5,4.6,7.2,6.5c0.3,0.2,0.6,0.4,0.9,0.6c1.1,0.8,2.3,1.5,3.6,1.9
		c1.3,0.3,2.7,0.3,4.1,0.2c0.2,0,0.4,0,0.6,0c6.3-0.2,12.4,0.7,18.4,2.7c-0.3-0.7-0.3-1.5-0.1-2.2c0.3-0.8,0.9-1.5,1.7-1.9
		c-0.3-0.8-0.3-1.7,0.1-2.5c-1.9-1.4-4.1-2.8-6.7-4.1c-5.5-2.8-11.5-5-17.8-6.5c-3.2-0.7-6.3-1.3-9.4-1.7c-1.5-0.2-3.1-0.3-4.8-0.4
		c-0.8,0-1.6-0.1-2.4-0.1c-0.2,0-0.3,0-0.4,0c-0.1,0-0.3,0-0.3,0C303.4,144.5,304.2,145.7,304.3,145.8z M355.7,97.8
		c-0.4,4.5-0.8,9.2-0.7,14c0,1.9,0.2,3.5,0.4,5.1c0.3,2.1,0.8,4.3,1.4,6.4c0.6,2,1.3,4.1,2.2,6.1c0.8,1.9,1.9,3.8,3.1,5.7
		c0.4,0.6,0.8,1.2,1.1,1.7c0.2-0.2,0.4-0.3,0.6-0.4c0.2-0.1,0.4-0.2,0.6-0.3c0.6-0.2,1.3-0.2,1.9,0c0.3-0.8,0.9-1.5,1.7-1.8
		c0.8-0.4,1.7-0.4,2.5,0c0.2-0.5,0.6-0.9,1.1-1.2c0.1-6.2-1-12.4-3.1-17.9c-1-2.7-2.4-5.2-4-7.6l0,0
		C362.2,103.6,359.2,100.3,355.7,97.8z M434.3,124L434.3,124c-3.8,2.2-7.5,4.7-10.8,7.5c-3.4,2.8-6.5,6-9.3,9.3
		c0.1,0.2,0.1,0.3,0.1,0.5c0.9-0.1,1.7,0.2,2.4,0.8c0.6,0.6,1,1.4,1.1,2.3c0.8,0,1.7,0.4,2.2,1c7-1.6,13.4-4.9,18.6-9.7
		c6.1-5.5,10.5-13,12.4-21.1c-3.3,2.3-6.9,4.1-10.3,5.9C438.6,121.7,436.4,122.8,434.3,124z M429.9,238.2c0.2,0.4,0.4,0.8,0.6,1.1
		l0,0c2.1,3.7,6,6.6,8.6,8.5c0.7-4.5-0.4-9.3-1.3-13.2l0-0.1c-0.4-1.8-0.9-3.6-1.8-5.1c-1.1-1.8-3-3.1-4.7-4.4
		c-0.3-0.2-0.5-0.4-0.8-0.5c-6.2-4.5-10.8-9.7-13.7-15.3c-0.1,0.1-0.2,0.2-0.3,0.3c-0.4,0.4-1,0.7-1.6,0.8
		c4.2,4.8,9.3,10.8,11.7,17.7c0.5,1.4,0.9,2.8,1.2,4.2C428.4,234.1,428.9,236.3,429.9,238.2z M308,132.3c0.8,2,2.8,5.8,8,11
		c2.1,0.4,4.3,0.8,6.7,1.4c6.9,1.7,16.5,4.9,23.8,10.8c0.1-0.1,0.2-0.1,0.4-0.2c-0.1-0.3-0.1-0.6-0.1-0.8c-6.1-3.3-13.1-8.3-20.7-15
		c-2.1-1.9-4.1-3.7-6.1-5.6C314.5,132.8,310,132.4,308,132.3z M448.8,128.5c-0.7,0.5-1.3,1.1-1.8,1.6c-1.3,1.2-4.9,5.2-5.6,5.8
		c-5.3,5.5-10.1,8.7-15.1,10.1c-0.7,0.2-1.4,0.3-2,0.5c-1.1,0.2-2.3,0.5-3.4,0.9c0,0.2,0,0.4,0,0.6c0.9,0.1,1.6,0.6,2.2,1.3
		c0.4,0.5,0.6,1.1,0.6,1.7c1.3-0.8,3-1.8,4.7-2.6c2.1-1,4.3-1.8,6.4-2.6c2.4-0.9,4.9-1.8,7.1-3c7.1-3.7,12.7-10.4,15.1-18.1
		C454.4,124.9,451.5,126.3,448.8,128.5z M459.2,144.4c1.4-0.3,3.4-0.9,4.8-2.2c-0.7-0.7-1.6-1.3-2.6-1.7c-1-0.4-2.2-0.6-3.4-0.6
		c-2.5,0-4.9,0.8-7.3,1.6c-7.6,2.7-15,6-22.2,9.3c-1.3,0.6-2.4,1.1-3.5,1.8c0.2,0.2,0.4,0.5,0.6,0.7c0.4,0.7,0.5,1.7,0.3,2.5
		c0,0,0,0,0,0c7.6-6.4,17.2-10.3,27-10.8h0c0.6,0,1.1-0.1,1.7-0.1C456.2,144.7,457.7,144.6,459.2,144.4z M403.2,123.3L403.2,123.3
		c-0.3,0.9-0.6,1.9-0.8,3c-0.1,0.5-0.2,1-0.2,1.4c-0.1,0.5-0.1,1-0.2,1.4c-0.3,1.4-0.4,2.7-0.4,4c0.4,0.3,0.7,0.7,0.9,1.1
		c0.8-0.3,1.7-0.3,2.5,0.1c0.8,0.4,1.4,1,1.7,1.9c0.6-0.2,1.2-0.2,1.8,0c3.6-2.1,7-5.4,9.6-9.5c2.4-3.6,4.3-7.9,6-13.5
		c1.1-3.5,2.1-7.3,1.5-11.1c-0.1-0.6-0.4-2-1.2-2.5c-0.1-0.1-0.2-0.1-0.4-0.1c-0.7-0.1-1.5,0.3-2.3,0.9c-5.4,4-9.6,8-12.7,12.1
		C406.4,116,404.5,119.6,403.2,123.3z M408.5,89c-0.2,0.3-0.3,0.5-0.5,0.8c-0.6,0.9-1.3,1.9-1.9,2.8c-1.3,2.1-2.4,4.1-3.3,6.1
		c-1.8,3.7-3.3,7.4-4.5,11.1c-1.3,3.8-2.2,7.9-2.9,12.1c-0.4,2.8-0.6,6-0.4,9.4c0.3,0,0.6,0,1,0.1c0.9,0.2,1.6,0.7,2.1,1.5
		c0.2-0.1,0.3-0.2,0.5-0.2c0.3-0.1,0.6-0.1,0.9-0.2c0.1-0.9,0.2-1.8,0.3-2.6c0.1-0.9,0.2-1.8,0.3-2.6c0.6-4,2.1-8,4.2-11.5
		c0.4-0.7,0.9-1.4,1.3-2c1.1-1.6,2.2-3.3,2.9-5.1c0.8-2.1,1-4.4,1.1-6.4c0.4-4.3,0.8-9.3-0.8-13.6C408.7,88.7,408.6,88.9,408.5,89z
		 M468.9,186.3c-1.3-0.8-3.8-2.1-6.9-3.4c-1.2,0.4-2.4,0.8-3.6,1.1c-1.8,0.5-3.7,0.9-5.5,1.2c2,1.2,4,2.6,5.8,4.2
		C462.3,188.8,465.8,187.8,468.9,186.3z M451.3,206.3L451.3,206.3c2.4,0.3,4.8,0.4,7.3,0.3c-4.2-5.9-9.3-10.7-14.8-14.1
		c-4.6-2.8-9.6-4.6-14.6-5.3c0.4,0.8,0.5,1.7,0.2,2.5c-0.3,0.8-0.9,1.5-1.7,1.9c0.3,0.8,0.3,1.7-0.1,2.5c-0.1,0.2-0.2,0.3-0.3,0.5
		c0.1,0.1,0.3,0.3,0.3,0.3c0.5,0.4,1,0.9,1.8,1.6c1.2,1,2.5,2,3.8,2.8C438.9,203.1,445.1,205.5,451.3,206.3z M462.9,202.4
		c1.6,0,3.3-0.2,4.9-0.5c-4.2-5.5-9.2-10.3-14.9-14.3c-0.9-0.6-2-1.3-3.1-1.6c-1.2-0.3-2.5-0.2-3.8-0.2l0,0c-0.2,0-0.3,0-0.5,0
		c-3,0.2-9.5-0.7-14.8-1.6c0,0.3,0,0.6-0.1,0.9c0,0,0,0.1,0,0.1c1.2,0.4,2.4,0.7,3.5,1c6.2,1.4,12.4,4.7,17.5,9.2
		c0.7,0.6,1.5,1.3,2.3,2.2c0.2,0.2,0.3,0.4,0.5,0.5c1,1,2,2.1,3.2,2.8C458.9,201.9,460.8,202.4,462.9,202.4z M451.5,212.8
		c-3.7-2.2-6.8-4.4-9.1-6.3c-6.1-2.1-11.7-5.5-16.6-10.1c0.1,0.7,0,1.5-0.4,2.1c-0.1,0.2-0.3,0.4-0.4,0.6c3.1,2.4,6.3,5.7,9.4,9.7
		C439.2,211.4,445,212.7,451.5,212.8z M429.6,247.9c-1.5-6.9-3.3-15.5-7-22.9c-2.2-4.3-5.1-8.5-9.1-13.3c-0.2,0.3-0.4,0.5-0.7,0.7
		c-0.7,0.5-1.6,0.7-2.5,0.6c-0.2,0.8-0.8,1.6-1.5,2c-0.3,0.2-0.6,0.3-1,0.4c0.7,3.2,1.3,5.8,2,8.1c0.7,2.5,1.6,4.9,2.7,7.1
		C416.3,238.9,422.5,245.2,429.6,247.9z M458.8,170.9c-3.4-0.1-6.7,0.2-10.1,0.6c-1.3,0.2-2.7,0.3-4.1,0.4c-4.4,0.4-8.9,0.4-13.3,0
		c-0.1,0.6-0.3,1.1-0.7,1.5c0.6,0.6,1,1.5,1,2.3c0,0.9-0.4,1.7-1,2.3c0.6,0.7,0.8,1.6,0.7,2.4c-0.1,0.5-0.3,1.1-0.6,1.5l0.3,0.1
		c1,0.3,2,0.5,3.1,0.8c2.1,0.4,4.2,0.7,6.4,0.8c4.1,0.2,8.3,0,12.5-0.8c7.2-1.3,14.6-4.2,22.1-8.5c-0.7,0.4-5.1-1.5-6-1.8
		c-2.2-0.6-4.5-1.1-6.8-1.4C461.1,171.1,460,171,458.8,170.9z M446,233.3c-4.1-8-8.9-15.8-14.2-23.2c-1.8-2.5-3.9-5.3-6.4-7.6
		c-0.7-0.6-1.4-1.2-2.1-1.7c0,0.6-0.2,1.2-0.6,1.7c-0.5,0.7-1.3,1.2-2.2,1.3c0.1,0.9-0.2,1.7-0.8,2.4c-0.5,0.5-1.1,0.9-1.8,1
		c0.8,1.5,1.7,3,2.8,4.6c1.8,2.6,4.1,5.1,6.7,7.5C431.5,222.8,444.2,231.9,446,233.3z M433.9,152.9L433.9,152.9
		c-1.9,1.1-3.8,2.3-5.7,3.7c-0.2,0.2-0.4,0.3-0.6,0.4c0.1,0.1,0.1,0.2,0.2,0.3c0.3,0.8,0.4,1.7,0,2.5c0.8,0.4,1.4,1.1,1.7,1.9
		c0.3,0.8,0.2,1.7-0.2,2.4c7.1,1.6,15.3,0.6,23.1-2.7c2.8-1.2,5.6-2.7,8.3-4.5c3.5-2.2,7-5,10.7-8.3c-8.1-2.4-16.8-2.7-25-0.7
		C442.1,149,437.8,150.7,433.9,152.9z M473.5,164.6c-2-1-4.2-2-6.5-2.7c-2.8-0.9-5.4-1.1-7.7-0.7c-0.2,0-0.4,0.1-0.6,0.1
		c-1.8,0.4-3.5,1.2-5.1,1.9c-0.4,0.2-0.8,0.4-1.2,0.5c-6.4,2.8-12.4,3.9-18,3.3c-0.4,0-0.7-0.1-1.1-0.1c-0.8-0.1-1.7-0.2-2.5-0.2
		c0.1,0.8-0.1,1.5-0.5,2.2c0.3,0.2,0.5,0.5,0.7,0.8c6.1,0.6,12.8,0.5,19.8-0.4C459,168.2,467.2,166.3,473.5,164.6z M297.1,169.6
		c4.1,1.3,11.7,3.7,20.3,5.4c1.4,0.3,2.9,0.6,4.4,0.8c5.2-1.3,9.9-2.1,14.1-2.3c2-0.1,3.9,0,5.7,0.1c0.1-0.2,0.3-0.4,0.5-0.6
		c-0.6-0.7-0.8-1.6-0.7-2.4c0.1-0.9,0.6-1.7,1.2-2.2c-0.5-0.7-0.7-1.6-0.5-2.5c0-0.1,0.1-0.3,0.1-0.4c-0.6-0.2-1.2-0.4-1.8-0.5
		c-3-0.9-6.1-1.4-9.2-1.7c-5.7-0.5-11.6-0.2-17.6,0.9C306.2,165.7,300.3,168.1,297.1,169.6z M418.9,243.8c-1-1-2-2-2.9-3.1
		c-3.3-4.1-6-9.3-8-15.5c-0.9-2.8-1.7-5.7-2.4-9c-0.3,0.3-0.7,0.6-1.1,0.8c-0.6,0.3-1.3,0.3-2,0.2c2.8,6.7,6.2,16.3,6.8,25.1
		c2.5,4.7,5.6,9.5,9.1,14.3C418.7,254,419.1,249.4,418.9,243.8z M334.9,224.4c0.2-0.1,0.4-0.1,0.6-0.2c0.7-0.2,1.4-0.5,2-0.9
		c0.1-0.1,0.2-0.2,0.3-0.3c0.4-0.5,0.7-1.1,1-1.7c0.2-0.4,0.4-0.8,0.7-1.2c1-1.7,2-3.1,3-4.4c2.1-2.7,9.1-9,10.3-9.8
		c-0.1-0.1-0.2-0.2-0.2-0.2c0,0-0.1-0.1-0.1-0.1c-11.4,7.9-19.9,13.1-25.1,15.5c-1.5,0.7-2.8,1.2-3.9,1.5c-0.3,0.1-0.6,0.1-1,0.2
		c-2,2.2-3.6,4-4.7,5.3C321.3,227.8,327.8,226.8,334.9,224.4z M326.1,205.3L326.1,205.3c1.2-0.8,2.4-1.8,3.5-2.7
		c1.2-1,2.4-2,3.7-2.9c3.8-2.6,8.4-4.1,11.9-5.3c-0.2-0.2-0.3-0.4-0.4-0.7c-0.4-0.8-0.4-1.7,0-2.5c-0.8-0.4-1.4-1.1-1.7-1.9
		c-0.3-0.8-0.2-1.7,0.2-2.5c-0.7-0.5-1.3-1.2-1.4-2.1c0,0,0-0.1,0-0.1c-4.4,0.7-8.9,2.2-13.2,4.5c-1.9,1-3.7,2.2-5.5,3.5l0,0
		c-4.7,2.8-9.2,7-14.2,13.4c-1.6,2.1-3.1,4.2-4.4,6.4C311.3,211.3,319.6,209.9,326.1,205.3z M406.4,253.4c1.1-5.6,1-11.4-0.3-17.8
		c-0.3-1.9-0.8-3.8-1.6-6.2c-0.5-1.7-1.1-3.3-1.7-4.9c-0.5-1.4-1-2.8-1.5-4.2c-0.1-0.4-0.3-0.8-0.4-1.2l0-0.1
		c-0.1-0.2-0.1-0.4-0.2-0.5c-0.2,0.1-0.5,0.2-0.8,0.3c0.9,5.3,1,11.4,0.4,18.1c1.2,4.1,2.2,8.7,2.7,13.3c0.2,1.6,0.7,7,0.4,10.9
		c0.3-0.4,0.6-0.8,0.8-1.3C405.5,257.7,406,255.3,406.4,253.4z M363.3,214.6c-0.7-0.4-1.1-1.1-1.3-1.9c-0.9,0.1-1.8-0.1-2.5-0.6
		c-0.7-0.5-1.2-1.3-1.3-2.2c-0.9,0.1-1.7-0.2-2.4-0.8c-0.5-0.5-0.9-1.1-1-1.8c-0.3,0.2-0.5,0.3-0.7,0.5c-0.8,0.5-1.6,1.1-2.3,1.7
		c-0.5,0.4-1.1,0.9-1.6,1.3c-2.1,1.5-3.8,3.8-5.5,6l-0.3,0.4c-1.9,2.5-3.5,5-5,7.6c-3,5.4-5.2,11-6.6,16.9c-0.1,0.3-0.1,0.5-0.2,0.8
		c6.8-3.8,14.5-8.7,21-15.4C357.5,223.4,360.7,219.2,363.3,214.6z M319.5,191.6c2-0.4,3.8-1.6,5.5-2.6l0,0c0.4-0.3,0.8-0.5,1.2-0.8
		c4.9-2.9,10.5-4.9,16.2-5.7c0,0,0.1-0.1,0.1-0.1c-0.7-0.5-1.1-1.4-1.2-2.2c-0.1-0.9,0.2-1.7,0.8-2.4c-0.5-0.5-0.9-1.2-0.9-1.9
		c-1.3-0.1-2.7-0.2-4.1-0.2c-3.9,0.1-8.1,0.7-13.5,2c-7.2,1.8-14.2,4.2-20.8,7.2c-1.9,0.9-3.6,1.7-5.2,2.5
		c5.3,2.1,10.9,3.6,16.6,4.2C316.1,191.8,317.8,191.9,319.5,191.6z M384.2,256.5c1.2-3,2.4-6.1,2.3-9.2c-0.1-1.4-0.4-2.8-0.7-4.2
		l0-0.1c-0.1-0.3-0.2-0.6-0.2-1c-1.7-7.3-1.6-14.7,0.2-21.3c-0.7-0.1-1.4-0.4-1.9-1c-0.7,0.6-1.6,0.8-2.4,0.7
		c-0.6-0.1-1.1-0.3-1.6-0.7c-3.2,7-4.7,14.8-4.2,22.4c0.4,7.5,2.6,14.8,6.4,21.3C382.3,261.2,383.3,258.8,384.2,256.5z M354,243.2
		c1.8-2,3.8-3.8,5.7-5.6c1.4-1.3,2.9-2.6,4.2-4c4.6-4.6,7.7-9.8,9.1-14.9c-0.3,0-0.6-0.1-1-0.2c-0.8-0.3-1.5-0.9-1.9-1.7
		c-0.8,0.3-1.7,0.3-2.5-0.1c-0.8-0.4-1.4-1-1.7-1.9c-0.1,0-0.2,0.1-0.4,0.1c-0.3,0.6-0.6,1.1-0.9,1.7c-1.7,2.9-3.7,5.5-5.9,8
		c-0.2,0.3-0.5,0.5-0.8,0.8c-0.4,0.4-0.8,0.8-1.1,1.2l0,0c-0.2,0.2-0.3,0.3-0.5,0.5c-1.1,1.1-2.1,2.1-2.8,3.4
		c-0.8,1.6-0.8,3.5-0.9,5.4c0,1-0.1,2-0.2,3.1c-0.3,2.2-1.1,4.2-1.9,6.2c-0.3,0.7-0.6,1.5-0.8,2.2c-0.5,1.6-0.9,2.9-1,4.2
		C349.7,248.9,351.5,246,354,243.2z M398.2,234.3L398.2,234.3c0.6-5.2,0.4-10.5-0.6-15.8c0,0,0,0,0,0c-0.5,0.7-1.2,1.3-2.1,1.4
		c-0.9,0.2-1.8,0-2.5-0.5c-0.5,0.7-1.3,1.1-2.2,1.2c-0.9,0.1-1.7-0.2-2.4-0.8c-0.1,0.1-0.3,0.2-0.4,0.3c-0.3,1.2-0.6,2.2-0.8,3.2
		c-0.7,3.6-0.9,7.2-0.7,10.9c0.4,8,2.9,16.3,7.2,24.2C396.2,250.7,397.7,242.5,398.2,234.3z M369,252.7L369,252.7
		c1.9-4.8,2.8-10.1,3.6-15.2l0.2-1.3c1-5.7,2.1-11.3,4.4-16.3c-0.2,0-0.4,0-0.7-0.1c-0.6-0.1-1.1-0.4-1.5-0.8
		c-1.3,5.6-4.2,10.8-8.3,14.8c-0.3,0.3-0.7,0.7-1,0.9c-1.2,1.1-2.3,2.2-3.1,3.6c-0.8,1.4-1.1,3.1-1.4,4.7l0,0.1
		c-1.2,6.9-2.6,14.6-1.6,22c1.4-1,2.8-2.2,4.1-3.6C366,259.1,367.7,256.2,369,252.7z"/>
	<path class="st1" d="M427.6,165l-0.5-0.2l0.3-0.4c0.6-0.6,0.8-1.5,0.5-2.2c-0.3-0.8-0.9-1.4-1.7-1.5l-0.5-0.1l0.3-0.4
		c0.5-0.7,0.6-1.5,0.3-2.3c-0.3-0.8-1-1.3-1.9-1.3l-0.5-0.1l0.3-0.4c0.4-0.7,0.4-1.6,0-2.3c-0.4-0.7-1.2-1.1-2-1.1l-0.5,0l0.2-0.5
		c0.3-0.7,0.3-1.6-0.2-2.3c-0.5-0.7-1.3-1-2.1-0.9l-0.5,0.1l0.2-0.5c0.3-0.8,0.1-1.6-0.5-2.2c-0.5-0.6-1.4-0.9-2.2-0.7l-0.5,0.1
		l0.1-0.5c0.2-0.8-0.1-1.6-0.7-2.2c-0.6-0.6-1.5-0.7-2.2-0.5l-0.5,0.2l0.1-0.5c0.1-0.8-0.3-1.6-0.9-2.1c-0.7-0.5-1.5-0.6-2.3-0.2
		l-0.5,0.2l0-0.5c0-0.8-0.4-1.6-1.1-2c-0.7-0.4-1.6-0.4-2.3,0l-0.4,0.2l0-0.5c-0.1-0.8-0.6-1.5-1.3-1.9c-0.7-0.3-1.6-0.3-2.3,0.2
		l-0.4,0.3l-0.1-0.5c-0.2-0.8-0.7-1.5-1.5-1.7c-0.8-0.3-1.6-0.1-2.2,0.5l-0.4,0.4l-0.1-0.5c-0.2-0.8-0.9-1.4-1.7-1.6
		c-0.8-0.2-1.6,0.1-2.2,0.7l-0.3,0.4l-0.2-0.5c-0.3-0.8-1-1.3-1.8-1.4c-0.8-0.1-1.6,0.3-2.1,0.9l-0.3,0.4l-0.2-0.4
		c-0.4-0.7-1.2-1.2-2-1.2c-0.8,0-1.6,0.4-2,1.1l-0.2,0.4l-0.3-0.4c-0.5-0.7-1.3-1-2.1-1c-0.8,0.1-1.5,0.6-1.8,1.3l-0.2,0.5l-0.3-0.4
		c-0.5-0.6-1.3-0.9-2.2-0.7c-0.8,0.2-1.4,0.7-1.7,1.5l-0.1,0.5l-0.4-0.3c-0.6-0.6-1.5-0.8-2.2-0.5c-0.8,0.3-1.4,0.9-1.5,1.7
		l-0.1,0.5l-0.4-0.3c-0.7-0.5-1.5-0.6-2.3-0.3c-0.7,0.3-1.2,1-1.3,1.9l-0.1,0.5l-0.4-0.3c-0.7-0.4-1.6-0.4-2.3,0
		c-0.7,0.4-1.1,1.2-1.1,2l0,0.5l-0.5-0.2c-0.7-0.4-1.6-0.3-2.3,0.2c-0.7,0.5-1,1.3-0.9,2.1l0.1,0.5l-0.5-0.2
		c-0.8-0.3-1.6-0.1-2.2,0.4c-0.6,0.5-0.9,1.4-0.7,2.2l0.1,0.5l-0.5-0.1c-0.8-0.2-1.6,0.1-2.2,0.7c-0.6,0.6-0.7,1.5-0.5,2.2l0.2,0.5
		l-0.5-0.1c-0.8-0.1-1.6,0.2-2.1,0.9c-0.5,0.7-0.6,1.5-0.2,2.3l0.2,0.5l-0.5,0c-0.8,0-1.6,0.4-2,1.1c-0.4,0.7-0.4,1.6,0,2.3l0.2,0.4
		l-0.5,0c-0.8,0.1-1.5,0.6-1.9,1.3c-0.3,0.7-0.2,1.6,0.2,2.3l0.3,0.4l-0.5,0.1c-0.8,0.2-1.5,0.7-1.7,1.5c-0.3,0.8-0.1,1.6,0.5,2.2
		l0.4,0.4l-0.5,0.1c-0.8,0.2-1.4,0.9-1.5,1.7c-0.2,0.8,0.1,1.6,0.7,2.2l0.4,0.3l-0.5,0.2c-0.8,0.3-1.3,1-1.4,1.8
		c-0.1,0.8,0.3,1.6,0.9,2.1l0.4,0.3l-0.4,0.2c-0.7,0.4-1.2,1.2-1.2,2c0,0.8,0.4,1.6,1.1,2l0.4,0.2l-0.4,0.3c-0.7,0.5-1,1.3-0.9,2.1
		c0.1,0.8,0.6,1.5,1.3,1.8l0.5,0.2l-0.4,0.3c-0.6,0.5-0.9,1.4-0.7,2.2c0.2,0.8,0.8,1.4,1.5,1.7l0.5,0.1l-0.3,0.4
		c-0.6,0.6-0.8,1.5-0.5,2.2c0.3,0.8,0.9,1.4,1.7,1.5l0.5,0.1l-0.3,0.4c-0.5,0.7-0.6,1.5-0.3,2.3c0.3,0.8,1,1.3,1.9,1.3l0.5,0.1
		l-0.3,0.4c-0.4,0.7-0.4,1.6,0,2.3c0.4,0.7,1.2,1.1,2,1.1l0.5,0l-0.2,0.5c-0.3,0.7-0.3,1.6,0.2,2.3c0.5,0.7,1.3,1,2.1,0.9l0.5-0.1
		l-0.2,0.5c-0.3,0.8-0.1,1.6,0.5,2.2c0.5,0.6,1.4,0.9,2.2,0.7l0.5-0.1l-0.1,0.5c-0.2,0.8,0.1,1.6,0.7,2.2c0.6,0.6,1.5,0.7,2.2,0.5
		l0.5-0.2l-0.1,0.5c-0.1,0.8,0.3,1.6,0.9,2.1c0.7,0.5,1.5,0.6,2.3,0.2l0.5-0.2l0,0.5c0,0.8,0.4,1.6,1.1,2c0.7,0.4,1.6,0.4,2.3,0
		l0.4-0.2l0,0.5c0.1,0.8,0.6,1.5,1.3,1.9c0.7,0.3,1.6,0.3,2.3-0.2l0.4-0.3l0.1,0.5c0.2,0.8,0.7,1.5,1.5,1.7c0.8,0.3,1.6,0.1,2.2-0.5
		l0.4-0.4l0.1,0.5c0.2,0.8,0.9,1.4,1.7,1.6c0.8,0.2,1.6-0.1,2.2-0.7l0.3-0.4l0.2,0.5c0.3,0.8,1,1.3,1.8,1.4c0.8,0.1,1.6-0.3,2.1-0.9
		l0.3-0.4l0.2,0.4c0.4,0.7,1.2,1.2,2,1.2c0.8,0,1.6-0.4,2-1.1l0.2-0.4l0.3,0.4c0.5,0.7,1.3,1,2.1,1c0.8-0.1,1.5-0.6,1.8-1.3l0.2-0.5
		l0.3,0.4c0.5,0.6,1.3,0.9,2.2,0.7c0.8-0.2,1.4-0.7,1.7-1.5l0.1-0.5l0.4,0.3c0.6,0.6,1.5,0.8,2.2,0.5c0.8-0.3,1.4-0.9,1.5-1.7
		l0.1-0.5l0.4,0.3c0.7,0.5,1.5,0.6,2.3,0.3c0.7-0.3,1.2-1,1.3-1.9l0.1-0.5l0.4,0.3c0.7,0.4,1.6,0.4,2.3,0c0.7-0.4,1.1-1.2,1.1-2
		l0-0.5l0.5,0.2c0.7,0.4,1.6,0.3,2.3-0.2c0.7-0.5,1-1.3,0.9-2.1l-0.1-0.5l0.5,0.2c0.8,0.3,1.6,0.1,2.2-0.4c0.6-0.5,0.9-1.4,0.7-2.2
		l-0.1-0.5l0.5,0.1c0.8,0.2,1.6-0.1,2.2-0.7c0.6-0.6,0.7-1.5,0.5-2.2l-0.2-0.5l0.5,0.1c0.8,0.1,1.6-0.2,2.1-0.9
		c0.5-0.7,0.6-1.5,0.2-2.3l-0.2-0.5l0.5,0c0.8,0,1.6-0.4,2-1.1c0.4-0.7,0.4-1.6,0-2.3l-0.2-0.4l0.5,0c0.8-0.1,1.5-0.6,1.9-1.3
		c0.3-0.7,0.2-1.6-0.2-2.3l-0.3-0.4l0.5-0.1c0.8-0.2,1.5-0.7,1.7-1.5c0.3-0.8,0.1-1.6-0.5-2.2l-0.4-0.4l0.5-0.1
		c0.8-0.2,1.4-0.9,1.5-1.7c0.2-0.8-0.1-1.6-0.7-2.2l-0.4-0.3l0.5-0.2c0.8-0.3,1.3-1,1.4-1.8c0.1-0.8-0.3-1.6-0.9-2.1l-0.4-0.3
		l0.4-0.2c0.7-0.4,1.2-1.2,1.2-2c0-0.8-0.4-1.6-1.1-2l-0.4-0.2l0.4-0.3c0.7-0.5,1-1.3,0.9-2.1c-0.1-0.8-0.6-1.5-1.3-1.8l-0.5-0.2
		l0.4-0.3c0.6-0.5,0.9-1.4,0.7-2.2C429,165.9,428.4,165.3,427.6,165z"/>
	<path class="st0" d="M721.5,476.1c0.7-0.9,1.3-1.7,1.9-2.6c3.5-5,6.3-10.2,8.3-14.2c1.8-3.6,3.5-6.4,5.4-8.8c1.6-2.1,3.4-4,5.5-5.8
		c1.3-1.1,2.4-2,3.6-2.9c0.2,0.6,0.5,1.1,1,1.5c0.7,0.6,1.5,0.8,2.4,0.8c0.1,0.9,0.6,1.6,1.3,2.1c0.7,0.5,1.5,0.7,2.3,0.5
		c-2.7,3.6-5.6,7.5-9.1,12.3c-3,4.1-6.1,8.3-10.1,11.6C730.1,473.9,725.7,475.8,721.5,476.1z M747.8,365.2c0.6,1.2,1.2,2.3,1.7,3.5
		c0.5,1.2,1,2.4,1.4,3.6c0.4-0.1,0.8-0.1,1.1,0c0.1-0.4,0.3-0.8,0.5-1.2l-0.2-0.3c-0.6-0.8-1.3-1.6-1.9-2.4l0.1-0.1l0,0l-0.2,0.1
		C749.5,367.4,748.6,366.3,747.8,365.2z M752.9,452.7L752.9,452.7C752.9,452.7,752.9,452.7,752.9,452.7L752.9,452.7z M798.2,329.5
		c-1.6,2.2-3.6,5-4.1,8.3c-0.2,1.5-0.2,3.1-0.1,4.6l0,0.6c0,0.4,0,0.8,0,1.1c0,7.5-2.4,15-6.9,21.1l-0.1,0.1c0,0,0,0,0,0
		c0.2,0.2,0.4,0.4,0.6,0.7c0.7-0.4,1.4-0.5,2.1-0.4c2.6-6.8,6.1-13,10.6-18.6c0.2-0.2,0.4-0.5,0.6-0.7c1-1.3,2.1-2.6,2.8-4
		c1.4-2.7,1.8-6.2,1.3-10.3c-0.3-2-0.7-4-1.1-5.9l0,0c-0.2-1.1-0.5-2.1-0.7-3.2c-1,1.5-2.1,2.8-3.1,4.1
		C799.4,327.9,798.8,328.7,798.2,329.5z M700.4,381.2L700.4,381.2c-1.7,0.4-3.5,0.9-5.3,1.6c-0.9,0.3-1.7,0.6-2.6,1
		c-0.2,0.1-0.4,0.1-0.6,0.2c-0.3,0.1-0.7,0.3-1.1,0.4c0.2,0.1,0.5,0.2,0.7,0.4c0.2,0.1,0.5,0.2,0.7,0.4c0.4,0.2,0.8,0.4,1.1,0.6
		c0.4,0.2,0.8,0.4,1.2,0.6c1.5,0.8,3.1,1.5,4.7,2.3c3.2,1.5,6.4,2.9,9.6,4.2c4.2,1.7,8.5,3.2,12.7,4.5c2.8,0.9,6.2,1.9,9.8,2.5
		c0.4,0.1,0.8,0.1,1.2,0.2c0.2-0.7,0.7-1.2,1.3-1.6c-0.4-0.8-0.5-1.7-0.3-2.5c0.3-0.8,0.9-1.5,1.6-1.9c-0.3-0.8-0.3-1.7,0-2.5
		c0.3-0.8,1-1.4,1.8-1.8c-0.3-0.8-0.2-1.8,0.3-2.5c0.1-0.1,0.1-0.2,0.2-0.3c-5.7-3.4-12.2-5.7-18.7-6.6
		C712.7,379.4,706.5,379.7,700.4,381.2z M716.7,368.5c-6.4-1.2-12.4-0.7-18.1,1.4c3.1,0.8,8,2.8,14.5,7.7c4.3,0.1,8.5,0.7,12.6,1.8
		c2.1,0.6,4.3,1.3,6.3,2.2c-3-2-6.1-4.6-9.4-7.5C720.7,372.4,718.7,370.5,716.7,368.5z M731.2,337.2c0.5,1.9,0.9,3.7,1.4,5.6
		c0.5,1.9,0.9,3.7,1.4,5.6c0,0.1,0,0.2,0.1,0.2c0.1,0.4,0.1,0.6,0.3,0.8c0.1,0.1,0.2,0.2,0.4,0.3l0,0c0.3,0.2,0.6,0.5,0.9,0.7
		c0.8,0.6,1.5,1.3,2.5,2.2c1.6,1.5,3.1,3.2,4.5,4.9c0.9,1.1,1.7,2.2,2.4,3.3c-1.1-2.3-2.1-4.7-2.9-7c-1.1-3-2.3-6.1-3.9-8.8
		c-1.9-3.2-4.2-5.9-7.3-9.1C731,336.3,731.1,336.7,731.2,337.2z M723.3,364.1c-2-0.7-4-1.3-6.1-1.9c-1.2-0.3-2.2-0.6-3.1-0.8
		c-0.3-0.1-0.6-0.2-0.9-0.3c-0.2-0.1-0.4-0.1-0.6-0.2c0.5,0.6,1,1.1,1.6,1.6c0.4,0.4,0.8,0.8,1.1,1.1c1,1.1,2,2.1,3.1,3.3l0.7,0.8
		c3,3,5.5,5.4,8,7.5l1.2,1c3.7,3,7.6,5.4,11.4,7.2c0-0.1,0.1-0.1,0.1-0.2c0.3-0.5,0.8-0.9,1.3-1.1c-4-2.4-7.5-5.6-10.1-9.4
		c-1-1-1.6-2.3-2.2-3.5c-0.7-1.4-1.4-2.8-2.6-3.7C725.3,364.9,724.3,364.5,723.3,364.1z M766,357.8c-1.7-7-2.3-14.2-1.6-21.3
		c0-0.2,0-0.3,0-0.5l0-0.2c0.1-1.4,0.3-2.9,0.1-4.3c-0.4-2.3-1.8-4.6-4-6.5c-1.8-1.6-4-2.8-5.7-3.7c0.8,4.4,1.5,8.8,2.1,13.3
		c0.2,1.5,0.4,3.3,0.6,5.1c0.1,0.7,0.2,1.4,0.2,2.1c0,0.2,0,0.4,0,0.5c0,0.3,0,0.6,0.1,0.8c0.1,0.2,0.3,0.4,0.5,0.6
		c0.1,0.1,0.3,0.3,0.4,0.4c0.6,0.8,1.2,1.6,2,2.8C762.8,350.4,764.6,354,766,357.8z M745.2,333.2c-1.8-1-3.7-1.3-5.3-0.8
		c0,0.7,0.2,2.2,0.3,2.9c0.3,4.2,0.9,9,2.2,13.7c0.3,1,0.7,1.9,1.1,2.8l0.2,0.4c1.1,2.6,2,4.6,3,6.5c2.4,4.6,5,8.3,7.9,11.3
		c0.5-0.1,1-0.1,1.4,0.1c0.3-0.8,0.9-1.5,1.7-1.9c0.8-0.4,1.7-0.4,2.5-0.1c0.2-0.5,0.6-0.9,1-1.2c0.3-0.2,0.6-0.4,0.9-0.5
		c0.8-0.3,1.7-0.2,2.5,0.2c0.3-0.5,0.7-0.9,1.1-1.1c-0.3-2.2-0.9-4.3-1.6-6.4c-1.7-5-4.5-9.9-8.5-15.1c-1.6-2.1-3.5-4.3-5.7-6.7l0,0
		C748.6,335.8,747.1,334.2,745.2,333.2z M689.6,408.1c0.7,0.6,1.3,1,1.9,1.5c1.3,0.9,2.7,1.8,4.1,2.6c2.8,1.6,5.8,2.8,8.9,3.8
		c0.3,0.1,0.7,0.2,1,0.3c1.3,0.4,2.7,0.7,4,0.6c1.3-0.1,2.7-0.6,4-1.1c0.2-0.1,0.4-0.1,0.6-0.2c5.9-2.2,12-3.4,18.2-3.5
		c-0.5-0.6-0.8-1.3-0.8-2.1c0-0.9,0.3-1.7,1-2.3c-0.6-0.7-0.9-1.5-0.8-2.4c-2.2-0.7-4.8-1.3-7.7-1.7c-6.2-0.8-12.5-0.9-19-0.3
		c-3.2,0.3-6.4,0.9-9.4,1.5c-1.5,0.3-3.1,0.7-4.6,1.2c-0.7,0.2-1.5,0.5-2.3,0.7c-0.1,0-0.3,0.1-0.4,0.1c-0.1,0-0.2,0.1-0.3,0.1
		C688.3,407.2,689.4,408,689.6,408.1z M722.3,345.8c1.1,4.3,2.3,9,4,13.4c0.6,1.8,1.3,3.3,2.1,4.6c1,1.9,2.1,3.8,3.4,5.5
		c1.2,1.7,2.6,3.4,4.1,5c1.4,1.5,3,3,4.8,4.4c0.6,0.5,1.1,0.9,1.7,1.3c0.1-0.2,0.3-0.4,0.4-0.6c0.2-0.2,0.3-0.3,0.5-0.5
		c0.5-0.4,1.1-0.6,1.8-0.6c0-0.9,0.4-1.7,1-2.3c0.6-0.6,1.5-0.9,2.4-0.9c0.1-0.6,0.3-1.1,0.6-1.5c-1.9-5.9-5-11.4-8.8-15.9
		c-1.9-2.2-4-4.2-6.3-5.9l0,0C730.3,349.1,726.4,347.1,722.3,345.8z M805.1,344.6L805.1,344.6c-2.9,3.3-5.5,6.9-7.7,10.6
		c-2.3,3.8-4.2,7.8-5.7,11.8c0.1,0.1,0.2,0.3,0.3,0.4c0.8-0.3,1.7-0.3,2.5,0c0.8,0.3,1.4,1,1.8,1.8c0.8-0.2,1.7-0.2,2.4,0.2
		c6-3.8,11-9.1,14.4-15.3c3.9-7.3,5.6-15.8,4.8-24c-2.4,3.2-5.1,6.1-7.8,9C808.4,341,806.7,342.8,805.1,344.6z M838.6,453.9
		c0.3,0.3,0.6,0.6,0.9,0.8l0,0c3.3,2.8,7.8,4.2,11,5.2c-0.8-4.5-3.5-8.7-5.6-12.1l-0.1-0.1c-1-1.5-2-3.1-3.4-4.2
		c-1.7-1.3-3.8-1.9-5.9-2.5c-0.3-0.1-0.6-0.2-0.9-0.3c-7.3-2.2-13.4-5.6-18-9.9c-0.1,0.1-0.1,0.2-0.2,0.4c-0.3,0.5-0.7,0.9-1.2,1.2
		c5.5,3.2,12.3,7.1,16.9,12.8c0.9,1.1,1.7,2.4,2.6,3.5C835.8,450.5,837.1,452.3,838.6,453.9z M688.6,394.1c1.4,1.6,4.6,4.5,11.2,7.7
		c2.1-0.4,4.4-0.7,6.8-0.9c7-0.7,17.2-0.8,26,2.3c0.1-0.1,0.2-0.2,0.3-0.3c-0.2-0.2-0.3-0.5-0.4-0.8c-6.9-1.1-15.1-3.5-24.5-7.3
		c-2.6-1.1-5.1-2.2-7.6-3.3C694.9,392.4,690.5,393.6,688.6,394.1z M820.3,344c-0.4,0.7-0.8,1.4-1.2,2.1c-0.8,1.6-3,6.5-3.3,7.3
		c-3.2,6.9-6.6,11.5-11,14.5c-0.6,0.4-1.2,0.8-1.7,1.1c-1,0.6-2,1.2-2.9,2c0.1,0.2,0.1,0.4,0.2,0.5c0.9-0.2,1.7,0,2.5,0.5
		c0.5,0.3,0.9,0.8,1.1,1.4c1-1.2,2.3-2.7,3.6-4c1.6-1.6,3.4-3.1,5.2-4.6c2-1.6,4-3.3,5.8-5.2c5.4-5.8,8.6-14,8.3-22
		C824.4,338.8,822.1,341,820.3,344z M835.3,355.6c1.2-0.7,2.9-1.9,3.8-3.7c-0.9-0.5-1.9-0.7-3-0.7c-1.1,0-2.3,0.1-3.4,0.5
		c-2.4,0.8-4.4,2.4-6.3,3.9c-6.3,5-12.2,10.6-17.9,16.1c-1,1-1.9,1.8-2.7,2.8c0.3,0.1,0.5,0.3,0.8,0.5c0.7,0.6,1.1,1.4,1.1,2.3
		c0,0,0,0,0,0c5-8.6,12.8-15.4,21.9-19.2l0,0c0.5-0.2,1.1-0.4,1.6-0.6C832.6,356.9,834,356.3,835.3,355.6z M775.5,354.2L775.5,354.2
		c0,0.9,0.1,1.9,0.2,3.1c0.1,0.5,0.2,1,0.3,1.4c0.1,0.5,0.2,1,0.3,1.4c0.2,1.4,0.5,2.7,1,3.9c0.4,0.2,0.8,0.4,1.2,0.8
		c0.7-0.6,1.5-0.9,2.4-0.8c0.9,0.1,1.7,0.5,2.2,1.2c0.5-0.3,1.1-0.5,1.7-0.6c2.7-3.2,4.8-7.4,6-12.1c1-4.2,1.4-8.9,1.2-14.7
		c-0.1-3.7-0.5-7.6-2.2-11c-0.3-0.5-1-1.7-2-1.9c-0.1,0-0.3,0-0.4,0c-0.7,0.1-1.3,0.8-1.8,1.6c-3.8,5.6-6.4,10.7-8,15.7
		C776.1,346.2,775.5,350.3,775.5,354.2z M769.2,320.1c-0.1,0.3-0.1,0.6-0.2,0.9c-0.3,1.1-0.6,2.2-0.8,3.3c-0.5,2.4-0.9,4.6-1.2,6.8
		c-0.5,4.1-0.7,8.1-0.6,12c0.1,4,0.5,8.2,1.3,12.4c0.5,2.8,1.4,5.8,2.7,9c0.3-0.1,0.6-0.2,0.9-0.3c0.9-0.1,1.8,0.1,2.4,0.7
		c0.1-0.1,0.3-0.3,0.4-0.4c0.2-0.2,0.5-0.3,0.8-0.4c-0.2-0.9-0.4-1.7-0.5-2.6c-0.2-0.9-0.4-1.7-0.5-2.6c-0.7-4-0.7-8.2,0.2-12.2
		c0.2-0.8,0.4-1.6,0.6-2.4c0.5-1.9,1-3.8,1-5.7c0-2.2-0.5-4.4-1.1-6.4c-1.1-4.2-2.3-9-5.3-12.6C769.3,319.8,769.2,319.9,769.2,320.1
		z M858.3,391.9c-1.5-0.3-4.2-0.7-7.7-0.9c-1,0.8-2,1.5-3.1,2.2c-1.6,1.1-3.2,2.1-4.8,3c2.3,0.5,4.6,1.2,6.9,2
		C853,396.5,855.9,394.4,858.3,391.9z M848.3,416.7L848.3,416.7c2.4-0.5,4.7-1.2,7-2.1c-5.9-4.2-12.3-7.1-18.6-8.4
		c-5.2-1.1-10.6-1.2-15.6-0.2c0.6,0.6,1,1.4,1,2.3c0,0.9-0.3,1.7-1,2.3c0.6,0.7,0.9,1.5,0.8,2.4c0,0.2,0,0.4-0.1,0.6
		c0.2,0.1,0.4,0.2,0.4,0.2c0.6,0.3,1.3,0.5,2.2,0.9c1.5,0.6,3.1,1,4.6,1.4C835.5,417.8,842.2,418,848.3,416.7z M858,409.2
		c1.6-0.5,3-1.3,4.4-2c-5.8-3.8-12.1-6.7-18.8-8.5c-1-0.3-2.3-0.6-3.5-0.5c-1.2,0.1-2.4,0.6-3.6,1.1l0,0c-0.2,0.1-0.3,0.1-0.5,0.2
		c-2.7,1.2-9.2,2.5-14.5,3.4c0.1,0.3,0.2,0.6,0.2,0.9c0,0.1,0,0.1,0,0.2c1.3,0,2.5-0.1,3.6-0.2c6.3-0.7,13.3,0.3,19.6,2.9
		c0.9,0.4,1.8,0.8,2.9,1.3c0.2,0.1,0.4,0.2,0.7,0.3c1.3,0.6,2.6,1.3,3.9,1.6C854.1,410,856,409.8,858,409.2z M850.6,422.7
		c-4.2-0.9-7.9-1.9-10.6-3c-6.5,0-12.9-1.4-19.1-4.1c0.3,0.6,0.5,1.4,0.3,2.1c0,0.2-0.1,0.5-0.2,0.7c3.7,1.2,7.8,3.3,12.1,6.1
		C838.6,425.4,844.5,424.8,850.6,422.7z M841.6,463.1c-3.7-6.1-8.2-13.5-14.2-19.3c-3.5-3.3-7.6-6.4-13-9.6
		c-0.1,0.3-0.2,0.6-0.4,0.9c-0.5,0.7-1.3,1.2-2.1,1.4c0.1,0.9-0.2,1.7-0.8,2.4c-0.2,0.3-0.5,0.5-0.8,0.7c1.7,2.9,3.1,5,4.6,7
		c1.5,2.1,3.2,4.1,4.9,5.8C826.1,459,834,462.9,841.6,463.1z M843.7,380.8L843.7,380.8l-0.2,0.1c-0.3,0.1-0.5,0.2-0.8,0.2
		c-2.9,0.9-5.6,2.3-8.3,3.6c-1.2,0.6-2.5,1.2-3.7,1.8c-4,1.8-8.2,3.3-12.6,4.4c0.1,0.6,0,1.1-0.2,1.7c0.8,0.4,1.4,1.1,1.7,1.9
		c0.3,0.8,0.2,1.7-0.2,2.5c0.7,0.4,1.3,1.2,1.5,2c0.1,0.5,0.1,1.1-0.1,1.6l0.3,0c1-0.1,2-0.2,3.2-0.3c2.1-0.3,4.2-0.7,6.3-1.3
		c3.9-1.1,7.8-2.8,11.5-4.9c6.4-3.7,12.4-8.8,18-15.3c-4.3,0.1-10.5,0.4-15.9,1.9C844.1,380.6,843.9,380.7,843.7,380.8z
		 M852.3,443.8c-6.5-6.2-13.6-12-21-17.3c-2.5-1.7-5.4-3.7-8.6-5.1c-0.9-0.4-1.7-0.7-2.5-0.9c0.2,0.6,0.2,1.2,0,1.8
		c-0.3,0.8-0.9,1.5-1.6,1.9c0.3,0.8,0.3,1.7,0,2.5c-0.3,0.7-0.8,1.2-1.4,1.5c1.2,1.2,2.6,2.3,4.2,3.4c2.6,1.8,5.6,3.5,8.8,4.9
		C835.1,438.8,850,443.1,852.3,443.8z M814.2,372L814.2,372c-1.5,1.7-2.9,3.5-4.1,5.4c-0.1,0.2-0.3,0.4-0.4,0.6
		c0.1,0.1,0.2,0.2,0.3,0.3c0.6,0.6,0.9,1.5,0.8,2.3c0.9,0.1,1.7,0.6,2.2,1.3c0.5,0.7,0.7,1.5,0.6,2.3c7.2-0.9,14.6-4.5,20.9-10.2
		c2.2-2,4.4-4.4,6.4-6.9c2.5-3.3,4.9-7,7.3-11.4c-8.5,0.4-16.7,3-23.8,7.6C820.7,365.7,817.3,368.6,814.2,372z M855.5,370
		c-2.2-0.3-4.6-0.5-7-0.4c-2.9,0.1-5.4,0.7-7.5,1.9c-0.2,0.1-0.4,0.2-0.6,0.3c-1.6,0.9-2.9,2.2-4.2,3.5c-0.3,0.3-0.6,0.6-1,0.9
		c-5.1,4.7-10.4,7.7-15.9,9c-0.4,0.1-0.7,0.2-1.1,0.2c-0.8,0.2-1.6,0.3-2.4,0.6c0.3,0.7,0.4,1.5,0.2,2.2c0.3,0.1,0.6,0.3,0.9,0.5
		c6-1.5,12.2-3.8,18.5-6.9C843,378.2,850.1,373.6,855.5,370z M690.7,432.9c4.3-0.1,12.3-0.4,20.9-1.6c1.5-0.2,3-0.4,4.4-0.7
		c4.4-3,8.7-5.3,12.6-6.8c1.8-0.7,3.6-1.3,5.4-1.8c0.1-0.2,0.1-0.5,0.3-0.7c-0.7-0.4-1.3-1.2-1.5-2c-0.2-0.8,0-1.8,0.4-2.5
		c-0.7-0.5-1.2-1.3-1.3-2.2c0-0.1,0-0.3,0-0.4c-0.6,0-1.3,0-1.9,0.1c-3.1,0.2-6.3,0.7-9.3,1.4c-5.6,1.4-11,3.6-16.3,6.7
		C697.9,426.3,693.1,430.5,690.7,432.9z M830.2,462.8c-1.3-0.6-2.5-1.3-3.7-2c-4.4-2.8-8.7-6.8-12.7-11.9c-1.8-2.3-3.5-4.8-5.2-7.7
		c-0.2,0.4-0.4,0.8-0.8,1.1c-0.5,0.5-1.1,0.8-1.8,0.8c4.9,5.4,11.2,13.4,14.7,21.4c3.9,3.6,8.4,7.2,13.3,10.5
		C833.3,472.5,832.2,467.9,830.2,462.8z M744.4,472.2c0.2-0.1,0.3-0.2,0.5-0.4c0.6-0.5,1.2-0.9,1.6-1.5c0.1-0.1,0.1-0.2,0.2-0.4
		c0.2-0.6,0.3-1.3,0.4-1.9c0.1-0.4,0.1-0.9,0.2-1.4c0.4-1.9,0.9-3.6,1.4-5.1c1.1-3.3,5.6-11.5,6.5-12.7c-0.1,0-0.2-0.1-0.3-0.2
		c0,0-0.1-0.1-0.1-0.1c-8.2,11.2-14.4,18.9-18.5,22.9c-1.2,1.2-2.3,2.1-3.2,2.7c-0.3,0.2-0.5,0.3-0.9,0.5c-1.2,2.7-2.1,5-2.7,6.6
		C732.7,479.9,738.5,476.8,744.4,472.2z M729.9,457.1L729.9,457.1c0.9-1.2,1.6-2.5,2.4-3.7c0.8-1.3,1.6-2.7,2.6-3.9
		c2.7-3.7,6.6-6.7,9.5-8.9c-0.2-0.1-0.4-0.3-0.6-0.5c-0.6-0.6-0.9-1.5-0.9-2.4c-0.9-0.1-1.7-0.6-2.2-1.3c-0.5-0.7-0.7-1.6-0.6-2.4
		c-0.8-0.2-1.6-0.7-2-1.5c0,0,0-0.1-0.1-0.1c-3.9,2.1-7.7,5-11,8.6c-1.5,1.6-2.8,3.3-4,5.1l0,0c-3.5,4.2-6.4,9.7-9,17.3
		c-0.8,2.5-1.5,5-2.1,7.5C717.9,467.6,725.2,463.6,729.9,457.1z M821.5,475.9c-0.8-5.6-2.8-11.1-6.2-16.7c-0.9-1.6-2-3.3-3.5-5.4
		c-1-1.4-2.1-2.8-3.2-4.1c-0.9-1.1-1.9-2.3-2.8-3.5c-0.3-0.3-0.5-0.6-0.8-1l0,0c-0.1-0.1-0.2-0.3-0.4-0.4c-0.2,0.2-0.4,0.4-0.6,0.5
		c2.6,4.7,4.7,10.4,6.4,16.9c2.5,3.5,4.9,7.5,6.9,11.7c0.7,1.5,3,6.3,4,10.2c0.1-0.5,0.3-1,0.4-1.5
		C822,480.3,821.8,477.8,821.5,475.9z M768,453.5c-0.8-0.2-1.4-0.7-1.9-1.4c-0.8,0.4-1.7,0.5-2.5,0.3c-0.8-0.3-1.5-0.9-1.9-1.6
		c-0.8,0.3-1.7,0.3-2.5,0c-0.7-0.3-1.2-0.7-1.5-1.3c-0.2,0.2-0.4,0.5-0.5,0.7c-0.6,0.8-1.1,1.6-1.6,2.4c-0.4,0.6-0.7,1.2-1.1,1.7
		c-1.5,2.1-2.4,4.8-3.2,7.5l-0.1,0.4c-0.9,2.9-1.7,5.9-2.2,8.8c-1.1,6.1-1.3,12.2-0.7,18.1c0,0.3,0,0.5,0.1,0.8
		c5.1-5.9,10.9-13,14.7-21.5C765.4,463.8,767.1,458.8,768,453.5z M719,446.3c1.7-1.1,3-2.7,4.3-4.3l0,0c0.3-0.4,0.6-0.7,0.9-1.1
		c3.6-4.4,8.3-8.1,13.4-10.7c0,0,0-0.1,0-0.1c-0.8-0.3-1.5-0.9-1.9-1.7c-0.4-0.8-0.4-1.7-0.1-2.5c-0.7-0.3-1.2-0.8-1.5-1.5
		c-1.3,0.3-2.6,0.7-3.9,1.2c-3.7,1.4-7.4,3.3-12.1,6.4c-6.2,4.1-12,8.7-17.3,13.7c-1.5,1.4-2.8,2.8-4.1,4.1
		c5.7,0.3,11.5-0.2,17.1-1.5C715.9,447.7,717.6,447.2,719,446.3z M801.6,486.2c0.1-3.2,0.3-6.5-0.9-9.4c-0.5-1.3-1.3-2.5-2.1-3.7
		l0-0.1c-0.2-0.3-0.4-0.5-0.5-0.8c-4-6.3-6.4-13.3-6.8-20.2c-0.7,0.1-1.5,0-2.1-0.3c-0.4,0.7-1.2,1.3-2,1.5
		c-0.6,0.1-1.2,0.1-1.7-0.1c-0.7,7.7,0.5,15.5,3.4,22.5c2.9,6.9,7.4,13.1,13.1,18C801.3,491.3,801.5,488.7,801.6,486.2z
		 M768.7,483.6c1-2.5,2.3-4.9,3.6-7.2c0.9-1.7,1.9-3.4,2.7-5.2c2.8-5.9,4.1-11.8,3.7-17.1c-0.3,0.1-0.6,0.2-1,0.2
		c-0.9,0-1.7-0.3-2.3-1c-0.7,0.6-1.5,0.9-2.4,0.8c-0.9-0.1-1.7-0.5-2.2-1.2c-0.1,0.1-0.2,0.1-0.3,0.2c-0.1,0.6-0.2,1.3-0.3,1.9
		c-0.7,3.3-1.6,6.4-2.9,9.5c-0.1,0.3-0.3,0.7-0.5,1c-0.2,0.5-0.5,1-0.6,1.5l0,0c-0.1,0.2-0.2,0.4-0.3,0.6c-0.7,1.4-1.3,2.7-1.5,4.1
		c-0.2,1.8,0.4,3.5,0.9,5.4c0.3,1,0.6,1.9,0.8,2.9c0.4,2.1,0.4,4.3,0.3,6.5c0,0.8-0.1,1.6-0.1,2.3c0,1.6,0.1,3.1,0.4,4.3
		C766.5,490.4,767.2,487.1,768.7,483.6z M807.5,460.6L807.5,460.6c-1.1-5.1-3.1-10.1-5.8-14.7c0,0,0,0,0,0c-0.2,0.8-0.7,1.6-1.5,2
		c-0.8,0.5-1.7,0.6-2.5,0.3c-0.3,0.8-0.9,1.5-1.7,1.9c-0.8,0.4-1.7,0.4-2.5,0.1c-0.1,0.2-0.2,0.3-0.3,0.5c0.1,1.2,0.2,2.3,0.3,3.3
		c0.5,3.6,1.5,7.1,2.9,10.5c3,7.4,8.2,14.5,14.8,20.4C811,476.7,809.7,468.5,807.5,460.6z M786,487.6L786,487.6
		c0.2-5.2-0.7-10.4-1.6-15.5l-0.2-1.3c-0.9-5.7-1.7-11.3-1.2-16.9c-0.2,0.1-0.4,0.1-0.6,0.1c-0.6,0.1-1.2,0-1.7-0.3
		c0.6,5.7-0.4,11.6-2.9,16.7c-0.2,0.4-0.4,0.8-0.6,1.2c-0.7,1.4-1.5,2.9-1.8,4.4c-0.3,1.6,0,3.3,0.2,4.9l0,0.1
		c1.1,6.9,2.4,14.7,5.8,21.3c1-1.4,1.9-3,2.7-4.7C785.2,494.7,785.9,491.3,786,487.6z"/>
	<path class="st1" d="M812.4,385.5l-0.5,0l0.2-0.5c0.3-0.8,0.2-1.6-0.3-2.3c-0.5-0.7-1.3-1-2.1-0.9l-0.5,0.1l0.1-0.5
		c0.2-0.8,0.1-1.6-0.5-2.2c-0.6-0.6-1.4-0.8-2.2-0.7l-0.5,0.1l0.1-0.5c0.2-0.8-0.1-1.6-0.7-2.2c-0.6-0.5-1.5-0.7-2.2-0.4l-0.5,0.2
		l0.1-0.5c0.1-0.8-0.3-1.6-1-2.1c-0.7-0.5-1.5-0.5-2.3-0.2l-0.4,0.2l0-0.5c0-0.8-0.5-1.6-1.2-2c-0.7-0.4-1.6-0.4-2.3,0.1l-0.4,0.3
		l-0.1-0.5c-0.1-0.8-0.6-1.5-1.4-1.8c-0.8-0.3-1.6-0.2-2.3,0.3l-0.4,0.3l-0.1-0.5c-0.2-0.8-0.8-1.4-1.5-1.7c-0.8-0.2-1.6,0-2.2,0.5
		l-0.4,0.3l-0.2-0.5c-0.3-0.8-0.9-1.4-1.7-1.5c-0.8-0.2-1.6,0.1-2.2,0.8l-0.3,0.4l-0.2-0.5c-0.3-0.7-1-1.3-1.9-1.3
		c-0.8-0.1-1.6,0.3-2.1,1l-0.3,0.4l-0.3-0.4c-0.4-0.7-1.2-1.1-2-1.1c-0.8,0-1.6,0.5-1.9,1.2l-0.2,0.5l-0.3-0.4
		c-0.5-0.7-1.3-1-2.1-0.9c-0.8,0.1-1.5,0.6-1.8,1.4l-0.2,0.5l-0.3-0.4c-0.6-0.6-1.4-0.9-2.2-0.7c-0.8,0.2-1.4,0.8-1.7,1.6l-0.1,0.5
		l-0.4-0.3c-0.6-0.5-1.5-0.7-2.2-0.5c-0.8,0.3-1.3,0.9-1.5,1.7l-0.1,0.5l-0.4-0.3c-0.7-0.5-1.5-0.6-2.3-0.2
		c-0.7,0.3-1.2,1.1-1.3,1.9l0,0.5l-0.4-0.3c-0.7-0.4-1.6-0.4-2.3,0c-0.7,0.4-1.1,1.2-1.1,2l0,0.5l-0.5-0.2c-0.8-0.3-1.6-0.2-2.3,0.2
		c-0.7,0.5-1,1.3-0.9,2.1l0.1,0.5l-0.5-0.2c-0.8-0.3-1.6-0.1-2.2,0.5c-0.6,0.6-0.8,1.4-0.6,2.2l0.1,0.5l-0.5-0.1
		c-0.8-0.2-1.6,0.1-2.2,0.7c-0.5,0.6-0.7,1.5-0.4,2.2l0.2,0.5l-0.5-0.1c-0.8-0.1-1.6,0.3-2.1,1c-0.5,0.7-0.5,1.5-0.2,2.3l0.2,0.4
		l-0.5,0c-0.8,0-1.6,0.4-2,1.2c-0.4,0.7-0.4,1.6,0.1,2.3l0.3,0.4l-0.5,0c-0.8,0.1-1.5,0.6-1.8,1.4c-0.3,0.8-0.2,1.6,0.3,2.3l0.3,0.4
		l-0.5,0.1c-0.8,0.2-1.4,0.8-1.7,1.5c-0.2,0.8,0,1.6,0.5,2.2l0.3,0.4l-0.5,0.2c-0.8,0.3-1.4,0.9-1.5,1.7c-0.1,0.8,0.1,1.6,0.8,2.2
		l0.4,0.3l-0.5,0.2c-0.7,0.3-1.2,1-1.3,1.9c-0.1,0.8,0.3,1.6,1,2.1l0.4,0.3l-0.4,0.3c-0.7,0.4-1.1,1.2-1.1,2c0,0.8,0.5,1.6,1.2,1.9
		l0.5,0.2l-0.4,0.3c-0.7,0.5-1,1.3-0.9,2.1c0.1,0.8,0.6,1.5,1.4,1.8l0.5,0.2l-0.4,0.3c-0.6,0.6-0.9,1.4-0.7,2.2
		c0.2,0.8,0.8,1.4,1.6,1.7l0.5,0.1L736,421c-0.5,0.6-0.7,1.5-0.4,2.2c0.3,0.8,0.9,1.3,1.7,1.5l0.5,0.1l-0.3,0.4
		c-0.5,0.7-0.6,1.5-0.2,2.3c0.3,0.7,1.1,1.2,1.9,1.3l0.5,0l-0.3,0.4c-0.4,0.7-0.4,1.6,0,2.3c0.4,0.7,1.2,1.1,2,1.1l0.5,0l-0.2,0.5
		c-0.3,0.8-0.2,1.6,0.3,2.3c0.5,0.7,1.3,1,2.1,0.9l0.5-0.1l-0.1,0.5c-0.2,0.8-0.1,1.6,0.5,2.2c0.6,0.6,1.4,0.8,2.2,0.7l0.5-0.1
		l-0.1,0.5c-0.2,0.8,0.1,1.6,0.7,2.2c0.6,0.5,1.5,0.7,2.2,0.4l0.5-0.2l-0.1,0.5c-0.1,0.8,0.3,1.6,1,2.1c0.7,0.5,1.5,0.5,2.3,0.2
		l0.4-0.2l0,0.5c0,0.8,0.5,1.6,1.2,2c0.7,0.4,1.6,0.4,2.3-0.1l0.4-0.3l0.1,0.5c0.1,0.8,0.6,1.5,1.4,1.8c0.8,0.3,1.6,0.2,2.3-0.3
		l0.4-0.3l0.1,0.5c0.2,0.8,0.8,1.4,1.5,1.7c0.8,0.2,1.6,0,2.2-0.5l0.4-0.3l0.2,0.5c0.3,0.8,0.9,1.4,1.7,1.5c0.8,0.2,1.6-0.1,2.2-0.8
		l0.3-0.4l0.2,0.5c0.3,0.7,1,1.3,1.9,1.3c0.8,0.1,1.6-0.3,2.1-1l0.3-0.4l0.3,0.4c0.4,0.7,1.2,1.1,2,1.1c0.8,0,1.6-0.5,1.9-1.2
		l0.2-0.5l0.3,0.4c0.5,0.7,1.3,1,2.1,0.9c0.8-0.1,1.5-0.6,1.8-1.4l0.2-0.5l0.3,0.4c0.6,0.6,1.4,0.9,2.2,0.7c0.8-0.2,1.4-0.8,1.7-1.6
		l0.1-0.5l0.4,0.3c0.6,0.5,1.5,0.7,2.2,0.5c0.8-0.3,1.3-0.9,1.5-1.7l0.1-0.5l0.4,0.3c0.7,0.5,1.5,0.6,2.3,0.2
		c0.7-0.3,1.2-1.1,1.3-1.9l0-0.5l0.4,0.3c0.7,0.4,1.6,0.4,2.3,0c0.7-0.4,1.1-1.2,1.1-2l0-0.5l0.5,0.2c0.8,0.3,1.6,0.2,2.3-0.2
		c0.7-0.5,1-1.3,0.9-2.1l-0.1-0.5l0.5,0.2c0.8,0.3,1.6,0.1,2.2-0.5c0.6-0.6,0.8-1.4,0.6-2.2l-0.1-0.5l0.5,0.1
		c0.8,0.2,1.6-0.1,2.2-0.7c0.5-0.6,0.7-1.5,0.4-2.2l-0.2-0.5l0.5,0.1c0.8,0.1,1.6-0.3,2.1-1c0.5-0.7,0.5-1.5,0.2-2.3l-0.2-0.4l0.5,0
		c0.8,0,1.6-0.4,2-1.2c0.4-0.7,0.4-1.6-0.1-2.3l-0.3-0.4l0.5,0c0.8-0.1,1.5-0.6,1.8-1.4c0.3-0.8,0.2-1.6-0.3-2.3l-0.3-0.4l0.5-0.1
		c0.8-0.2,1.4-0.8,1.7-1.5c0.2-0.8,0-1.6-0.5-2.2l-0.3-0.4l0.5-0.2c0.8-0.3,1.4-0.9,1.5-1.7c0.1-0.8-0.1-1.6-0.8-2.2l-0.4-0.3
		l0.5-0.2c0.7-0.3,1.2-1,1.3-1.9c0.1-0.8-0.3-1.6-1-2.1l-0.4-0.3l0.4-0.3c0.7-0.4,1.1-1.2,1.1-2c0-0.8-0.5-1.6-1.2-1.9l-0.5-0.2
		l0.4-0.3c0.6-0.5,1-1.3,0.9-2.1c-0.1-0.8-0.6-1.5-1.4-1.8l-0.5-0.2l0.4-0.3c0.6-0.6,0.9-1.4,0.7-2.2c-0.2-0.8-0.8-1.4-1.6-1.7
		l-0.5-0.1l0.3-0.4c0.5-0.6,0.7-1.5,0.4-2.2c-0.3-0.8-0.9-1.3-1.7-1.5l-0.5-0.1l0.3-0.4c0.5-0.7,0.6-1.5,0.2-2.3
		c-0.3-0.7-1.1-1.2-1.9-1.3l-0.5,0l0.3-0.4c0.4-0.7,0.4-1.6,0-2.3C814,385.9,813.2,385.5,812.4,385.5z"/>
	<path class="st0" d="M185.2,883.9c0.7-0.9,1.4-1.8,2-2.7c3.7-5.2,6.6-10.7,8.7-14.9c1.9-3.8,3.7-6.7,5.6-9.3
		c1.7-2.2,3.6-4.2,5.7-6.1c1.3-1.1,2.5-2.1,3.7-3c0.2,0.6,0.5,1.2,1,1.6c0.7,0.6,1.6,0.9,2.5,0.8c0.1,0.9,0.7,1.7,1.4,2.3
		c0.7,0.5,1.6,0.7,2.4,0.6c-2.8,3.8-5.9,7.9-9.5,12.9c-3.2,4.3-6.4,8.7-10.6,12.2C194.2,881.6,189.6,883.6,185.2,883.9z
		 M212.7,767.4c0.7,1.2,1.3,2.5,1.8,3.7c0.5,1.3,1,2.5,1.5,3.8c0.4-0.1,0.8-0.1,1.2,0c0.1-0.4,0.3-0.9,0.6-1.2l-0.3-0.3
		c-0.7-0.8-1.4-1.7-2-2.5l0.2-0.2l0,0l-0.2,0.1C214.5,769.8,213.6,768.6,212.7,767.4z M218.1,859.3L218.1,859.3
		C218.1,859.3,218.1,859.3,218.1,859.3L218.1,859.3z M265.7,729.9c-1.7,2.3-3.7,5.3-4.3,8.7c-0.2,1.6-0.2,3.2-0.1,4.9l0,0.6
		c0,0.5,0,0.8,0,1.2c0,7.9-2.6,15.8-7.3,22.1l-0.1,0.1c0,0,0,0,0,0.1c0.2,0.2,0.5,0.5,0.7,0.8c0.7-0.4,1.5-0.5,2.2-0.4
		c2.7-7.1,6.4-13.7,11.1-19.5c0.2-0.3,0.4-0.5,0.6-0.8c1.1-1.3,2.2-2.7,2.9-4.2c1.5-2.8,1.9-6.5,1.3-10.8c-0.3-2.1-0.7-4.2-1.2-6.2
		l0,0c-0.2-1.1-0.5-2.2-0.7-3.4c-1,1.5-2.2,3-3.3,4.3C267,728.3,266.3,729.1,265.7,729.9z M162.9,784.2L162.9,784.2
		c-1.8,0.4-3.7,1-5.6,1.7c-0.9,0.3-1.8,0.7-2.7,1.1c-0.2,0.1-0.4,0.2-0.7,0.2c-0.3,0.1-0.8,0.3-1.1,0.4c0.3,0.1,0.5,0.3,0.8,0.4
		c0.3,0.1,0.5,0.2,0.8,0.4c0.4,0.2,0.8,0.4,1.2,0.6c0.4,0.2,0.9,0.4,1.3,0.7c1.5,0.8,3.2,1.6,4.9,2.4c3.3,1.6,6.7,3,10.1,4.4
		c4.4,1.8,8.9,3.3,13.4,4.7c3,0.9,6.5,2,10.2,2.6c0.4,0.1,0.8,0.1,1.2,0.2c0.3-0.7,0.7-1.3,1.3-1.7c-0.4-0.8-0.5-1.8-0.3-2.6
		c0.3-0.9,0.9-1.6,1.7-2c-0.4-0.8-0.4-1.8,0-2.6c0.4-0.8,1.1-1.5,1.9-1.8c-0.3-0.9-0.2-1.8,0.3-2.6c0.1-0.1,0.1-0.2,0.2-0.3
		c-6-3.6-12.8-6-19.6-6.9C175.8,782.4,169.4,782.7,162.9,784.2z M180,770.9c-6.7-1.3-13-0.7-19,1.5c3.3,0.8,8.4,2.9,15.2,8.1
		c4.5,0.1,9,0.7,13.2,1.9c2.2,0.6,4.5,1.4,6.6,2.3c-3.1-2.1-6.4-4.8-9.9-7.9C184.3,775,182.2,773,180,770.9z M195.3,738
		c0.5,1.9,1,3.9,1.5,5.8c0.5,2,1,3.9,1.5,5.8c0,0.1,0,0.2,0.1,0.3c0.1,0.4,0.1,0.7,0.4,0.8c0.1,0.1,0.3,0.2,0.4,0.3l0,0
		c0.3,0.3,0.6,0.5,0.9,0.8c0.8,0.7,1.6,1.4,2.6,2.3c1.7,1.6,3.2,3.3,4.7,5.1c0.9,1.1,1.7,2.3,2.5,3.4c-1.2-2.4-2.2-4.9-3.1-7.4
		c-1.2-3.1-2.4-6.4-4.1-9.3c-2-3.4-4.4-6.2-7.7-9.5C195.1,737.1,195.2,737.5,195.3,738z M187,766.3c-2.1-0.7-4.2-1.4-6.4-2
		c-1.3-0.4-2.3-0.6-3.3-0.9c-0.3-0.1-0.6-0.2-0.9-0.3c-0.2-0.1-0.4-0.1-0.6-0.2c0.5,0.6,1.1,1.1,1.6,1.7c0.4,0.4,0.8,0.8,1.2,1.2
		c1.1,1.1,2.1,2.3,3.2,3.4l0.7,0.8c3.1,3.2,5.8,5.7,8.4,7.8l1.2,1c3.9,3.1,7.9,5.7,12,7.6c0-0.1,0.1-0.2,0.1-0.2
		c0.3-0.5,0.8-0.9,1.4-1.2c-4.2-2.5-7.8-5.9-10.6-9.9c-1-1.1-1.7-2.4-2.4-3.7c-0.8-1.5-1.5-2.9-2.7-3.8
		C189.2,767.1,188.1,766.7,187,766.3z M231.8,759.6c-1.8-7.3-2.4-14.9-1.7-22.3c0-0.2,0-0.4,0.1-0.5l0-0.2c0.1-1.5,0.3-3.1,0.1-4.6
		c-0.4-2.4-1.9-4.8-4.2-6.8c-1.9-1.6-4.2-2.9-6-3.8c0.8,4.6,1.5,9.3,2.2,14c0.2,1.6,0.5,3.5,0.7,5.4c0.1,0.8,0.2,1.5,0.2,2.3
		c0,0.2,0,0.4,0,0.6c0,0.3,0,0.6,0.1,0.8c0.1,0.2,0.3,0.5,0.5,0.7c0.1,0.2,0.3,0.3,0.4,0.5c0.6,0.8,1.3,1.7,2.1,2.9
		C228.5,751.9,230.4,755.7,231.8,759.6z M210,733.8c-1.8-1-3.9-1.3-5.6-0.9c0,0.7,0.2,2.3,0.3,3c0.4,4.4,0.9,9.5,2.3,14.3
		c0.3,1,0.7,1.9,1.1,2.9l0.2,0.4c1.1,2.7,2.1,4.8,3.1,6.8c2.5,4.8,5.2,8.7,8.3,11.9c0.5-0.1,1-0.1,1.5,0.1c0.3-0.9,0.9-1.6,1.8-2
		c0.8-0.4,1.8-0.4,2.6-0.1c0.2-0.5,0.6-0.9,1-1.3c0.3-0.2,0.6-0.4,0.9-0.5c0.8-0.3,1.8-0.2,2.6,0.2c0.3-0.5,0.7-0.9,1.2-1.2
		c-0.3-2.3-0.9-4.5-1.7-6.8c-1.8-5.2-4.8-10.4-9-15.8c-1.7-2.2-3.6-4.5-6-7l0,0C213.6,736.6,212,734.9,210,733.8z M151.2,812.2
		c0.2,0.1,0.3,0.2,0.5,0.4c0.7,0.6,1.4,1.1,2,1.5c1.4,1,2.8,1.9,4.3,2.7c2.9,1.6,6.1,3,9.4,4c0.3,0.1,0.7,0.2,1.1,0.3
		c1.4,0.4,2.8,0.7,4.2,0.6c1.4-0.1,2.8-0.7,4.2-1.2c0.2-0.1,0.4-0.2,0.6-0.2c6.2-2.3,12.6-3.6,19.1-3.7c-0.5-0.6-0.8-1.4-0.8-2.2
		c0-0.9,0.4-1.8,1-2.4c-0.6-0.7-0.9-1.6-0.8-2.5c-2.4-0.8-5-1.3-8.1-1.8c-6.5-0.9-13.2-1-19.9-0.3c-3.4,0.4-6.7,0.9-9.9,1.6
		c-1.6,0.4-3.2,0.8-4.9,1.2c-0.8,0.2-1.6,0.5-2.4,0.7c-0.2,0-0.3,0.1-0.4,0.1c-0.1,0-0.3,0.1-0.4,0.1
		C150.3,811.5,150.7,811.8,151.2,812.2l-0.1,0.2L151.2,812.2z M185.9,747.1c1.2,4.6,2.4,9.4,4.2,14.1c0.7,1.8,1.4,3.4,2.2,4.9
		c1,2,2.2,4,3.6,5.8c1.3,1.8,2.7,3.6,4.3,5.3c1.5,1.6,3.2,3.1,5,4.6c0.6,0.5,1.2,0.9,1.7,1.3c0.1-0.2,0.3-0.4,0.4-0.6
		c0.2-0.2,0.3-0.3,0.5-0.5c0.5-0.4,1.2-0.6,1.9-0.7c0-0.9,0.4-1.8,1.1-2.4c0.7-0.6,1.6-0.9,2.5-0.9c0.1-0.6,0.3-1.1,0.6-1.6
		c-2-6.2-5.2-12-9.3-16.6c-2-2.3-4.2-4.4-6.6-6.2l0,0C194.3,750.6,190.2,748.4,185.9,747.1z M272.9,745.8L272.9,745.8
		c-3.1,3.5-5.8,7.2-8.1,11.2c-2.4,4-4.4,8.2-6,12.4c0.1,0.2,0.2,0.3,0.3,0.5c0.8-0.4,1.8-0.4,2.6,0c0.8,0.4,1.5,1.1,1.8,1.9
		c0.8-0.3,1.8-0.2,2.6,0.2c6.3-4,11.6-9.5,15.1-16c4.1-7.6,5.9-16.5,5-25.2c-2.5,3.4-5.4,6.5-8.2,9.4
		C276.4,742,274.6,743.9,272.9,745.8z M308.1,860.5c0.3,0.3,0.6,0.6,0.9,0.9l0,0c3.4,3,8.2,4.5,11.5,5.4c-0.8-4.7-3.7-9.1-5.9-12.7
		l-0.1-0.1c-1-1.6-2.1-3.3-3.6-4.4c-1.7-1.4-4-2-6.2-2.7c-0.3-0.1-0.6-0.2-0.9-0.3c-7.7-2.3-14.1-5.8-18.9-10.4
		c-0.1,0.1-0.1,0.3-0.2,0.4c-0.3,0.5-0.8,1-1.3,1.3c5.8,3.3,12.9,7.5,17.7,13.5c1,1.2,1.8,2.5,2.7,3.7
		C305.2,857,306.5,858.9,308.1,860.5z M150.6,797.8c1.5,1.7,4.8,4.8,11.8,8.1c2.3-0.4,4.6-0.7,7.1-1c7.4-0.7,18.1-0.9,27.3,2.4
		c0.1-0.1,0.2-0.2,0.3-0.3c-0.2-0.2-0.3-0.5-0.4-0.8c-7.2-1.1-15.9-3.7-25.7-7.7c-2.7-1.1-5.4-2.3-8-3.4
		C157.2,796,152.6,797.2,150.6,797.8z M288.8,745.2c-0.5,0.8-0.9,1.5-1.3,2.2c-0.9,1.7-1.6,3.4-2.4,5.1l-0.2-0.1l0.2,0.1
		c-0.3,0.8-0.7,1.7-1.1,2.6c-3.3,7.3-7,12.1-11.5,15.2c-0.6,0.4-1.2,0.8-1.8,1.2c-1,0.6-2.1,1.3-3,2c0.1,0.2,0.2,0.4,0.2,0.6
		c0.9-0.2,1.8,0,2.6,0.5c0.5,0.4,0.9,0.9,1.2,1.4c1-1.2,2.4-2.8,3.8-4.2c1.7-1.7,3.6-3.3,5.4-4.8c2.1-1.7,4.2-3.5,6-5.5
		c5.7-6.1,9-14.7,8.8-23.1C293.1,739.7,290.8,742.1,288.8,745.2z M304.6,757.3c1.3-0.8,3-2,4-3.9c-0.9-0.5-2-0.7-3.2-0.8
		c-1.2,0-2.4,0.2-3.5,0.6c-2.5,0.9-4.6,2.5-6.6,4.1c-6.6,5.3-12.8,11.2-18.8,16.9c-1.1,1-2,1.9-2.8,3c0.3,0.1,0.6,0.3,0.8,0.5
		c0.7,0.6,1.1,1.5,1.2,2.4c0,0,0,0,0,0c5.3-9,13.5-16.1,23-20.1l0,0c0.5-0.2,1.1-0.5,1.6-0.7C301.8,758.7,303.3,758.1,304.6,757.3z
		 M241.9,755.9L241.9,755.9c0,1,0.1,2,0.2,3.2c0.1,0.5,0.2,1,0.3,1.5c0.1,0.5,0.2,1,0.3,1.5c0.2,1.4,0.5,2.8,1,4.1
		c0.5,0.2,0.9,0.4,1.2,0.8c0.7-0.6,1.6-0.9,2.5-0.8c0.9,0.1,1.8,0.5,2.3,1.2c0.5-0.4,1.1-0.6,1.8-0.6c2.9-3.3,5-7.7,6.3-12.7
		c1.1-4.4,1.5-9.3,1.3-15.4c-0.1-3.9-0.5-8-2.4-11.5c-0.3-0.5-1-1.8-2.1-2c-0.1,0-0.3,0-0.4,0c-0.8,0.1-1.4,0.9-1.9,1.7
		c-4,5.8-6.8,11.2-8.4,16.4C242.5,747.5,241.8,751.8,241.9,755.9z M235.2,720.1c-0.1,0.3-0.2,0.6-0.2,1c-0.3,1.1-0.6,2.3-0.9,3.5
		c-0.5,2.5-0.9,4.8-1.2,7.2c-0.5,4.3-0.7,8.5-0.6,12.6c0.1,4.2,0.5,8.6,1.4,13c0.6,3,1.5,6.1,2.8,9.4c0.3-0.1,0.6-0.2,1-0.3
		c0.9-0.1,1.8,0.2,2.5,0.7c0.1-0.1,0.3-0.3,0.4-0.4c0.3-0.2,0.5-0.3,0.8-0.5c-0.2-0.9-0.4-1.8-0.6-2.7c-0.2-0.9-0.4-1.8-0.6-2.7
		c-0.8-4.2-0.7-8.7,0.2-12.8c0.2-0.8,0.4-1.7,0.6-2.5c0.5-2,1.1-4,1.1-6c0.1-2.3-0.6-4.6-1.1-6.7c-1.1-4.4-2.4-9.4-5.6-13.2
		C235.3,719.7,235.2,719.9,235.2,720.1z M328.8,795.5c-1.6-0.3-4.5-0.7-8.1-1c-1.1,0.8-2.1,1.6-3.2,2.3c-1.6,1.1-3.3,2.2-5,3.1
		c2.4,0.5,4.8,1.2,7.2,2.1C323.2,800.3,326.2,798.1,328.8,795.5z M318.3,821.5L318.3,821.5c2.5-0.5,4.9-1.2,7.3-2.2
		c-6.2-4.4-12.9-7.4-19.5-8.8c-5.5-1.2-11.1-1.2-16.4-0.2c0.7,0.6,1.1,1.5,1.1,2.4c0,0.9-0.4,1.8-1,2.4c0.6,0.7,0.9,1.6,0.8,2.5
		c0,0.2,0,0.4-0.1,0.6c0.2,0.1,0.4,0.2,0.5,0.2c0.6,0.3,1.3,0.6,2.3,0.9c1.6,0.6,3.2,1.1,4.8,1.5
		C304.9,822.6,311.9,822.8,318.3,821.5z M328.5,813.6c1.6-0.5,3.2-1.3,4.7-2.1c-6-4-12.7-7-19.7-9c-1.1-0.3-2.4-0.6-3.7-0.5
		c-1.3,0.1-2.6,0.6-3.8,1.2l0,0c-0.2,0.1-0.3,0.1-0.5,0.2c-2.9,1.2-9.7,2.6-15.2,3.5c0.1,0.3,0.2,0.6,0.2,0.9c0,0.1,0,0.1,0,0.2
		c1.4,0,2.6-0.1,3.8-0.3c6.6-0.7,13.9,0.4,20.5,3c0.9,0.4,1.9,0.8,3,1.3c0.2,0.1,0.5,0.2,0.7,0.4c1.3,0.7,2.7,1.4,4.1,1.7
		C324.3,814.5,326.3,814.3,328.5,813.6z M320.7,827.8c-4.4-0.9-8.3-2-11.2-3.1c-6.8,0-13.6-1.4-20-4.3c0.3,0.7,0.5,1.5,0.3,2.2
		c0,0.3-0.1,0.5-0.2,0.7c3.9,1.3,8.2,3.4,12.7,6.4C308.1,830.7,314.3,830,320.7,827.8z M311.2,870.2c-3.9-6.4-8.7-14.2-14.9-20.3
		c-3.7-3.5-8-6.7-13.6-10c-0.1,0.3-0.3,0.7-0.4,0.9c-0.5,0.8-1.4,1.3-2.3,1.4c0.1,0.9-0.2,1.8-0.8,2.5c-0.2,0.3-0.5,0.5-0.9,0.7
		c1.8,3,3.3,5.3,4.8,7.3c1.6,2.2,3.3,4.3,5.1,6.1C294.9,865.9,303.3,870,311.2,870.2z M313.4,783.8L313.4,783.8l-0.3,0.1
		c-0.3,0.1-0.5,0.2-0.8,0.2c-3,1-5.9,2.4-8.7,3.7c-1.3,0.6-2.6,1.3-3.9,1.8c-4.2,1.9-8.6,3.5-13.2,4.7c0.1,0.6,0,1.2-0.2,1.8
		c0.8,0.4,1.5,1.1,1.8,2c0.3,0.8,0.2,1.8-0.2,2.6c0.8,0.5,1.4,1.3,1.6,2.1c0.1,0.5,0.1,1.1-0.1,1.7l0.4,0c1-0.1,2.1-0.2,3.4-0.3
		c2.2-0.3,4.4-0.8,6.6-1.4c4.1-1.2,8.2-2.9,12.1-5.1c6.7-3.8,13.1-9.2,18.9-16.1c-4.5,0.1-11,0.4-16.7,2
		C313.9,783.7,313.7,783.7,313.4,783.8z M315.4,847.9c2.3,0.7,4.7,1.4,7.1,2.1c-6.8-6.5-14.3-12.6-22.1-18.1c-2.6-1.8-5.7-3.9-9-5.3
		c-0.9-0.4-1.8-0.7-2.6-1c0.2,0.6,0.2,1.3,0,1.9c-0.3,0.9-0.9,1.6-1.7,2c0.4,0.8,0.4,1.8,0,2.6c-0.3,0.7-0.8,1.2-1.4,1.6
		c1.3,1.2,2.8,2.4,4.4,3.6c2.7,1.9,5.8,3.6,9.3,5.1C304.4,844.7,310,846.3,315.4,847.9l-0.1,0.2L315.4,847.9z M282.5,774.6
		L282.5,774.6c-1.5,1.7-3,3.6-4.3,5.6c-0.1,0.2-0.3,0.4-0.4,0.6c0.1,0.1,0.2,0.2,0.3,0.3c0.6,0.7,0.9,1.6,0.9,2.5
		c0.9,0.1,1.7,0.6,2.3,1.3c0.5,0.7,0.8,1.6,0.6,2.4c7.6-0.9,15.4-4.7,22-10.7c2.3-2.2,4.6-4.6,6.7-7.3c2.7-3.4,5.2-7.3,7.7-11.9
		c-8.9,0.4-17.5,3.2-25,8C289.3,767.9,285.7,771,282.5,774.6z M325.8,772.5c-2.3-0.3-4.9-0.5-7.4-0.4c-3,0.1-5.7,0.8-7.9,2
		c-0.2,0.1-0.4,0.2-0.6,0.3c-1.6,1-3.1,2.4-4.4,3.7c-0.3,0.3-0.7,0.6-1,1c-5.3,4.9-10.9,8.1-16.7,9.5c-0.4,0.1-0.8,0.2-1.1,0.2
		c-0.8,0.2-1.7,0.4-2.5,0.6c0.3,0.7,0.4,1.6,0.2,2.3c0.3,0.1,0.7,0.3,0.9,0.5c6.3-1.5,12.8-4,19.4-7.2
		C312.7,781,320.1,776.3,325.8,772.5z M152.8,838.5c4.5-0.1,12.9-0.4,21.9-1.7c1.5-0.2,3.1-0.5,4.6-0.7c4.7-3.1,9.1-5.5,13.2-7.2
		c1.9-0.8,3.8-1.4,5.7-1.8c0.1-0.2,0.2-0.5,0.3-0.7c-0.8-0.5-1.4-1.3-1.6-2.2c-0.2-0.9,0-1.8,0.5-2.6c-0.7-0.5-1.2-1.4-1.3-2.3
		c0-0.1,0-0.3,0-0.4c-0.7,0-1.3,0-2,0.1c-3.3,0.2-6.6,0.7-9.8,1.5c-5.8,1.4-11.6,3.8-17.1,7C160.4,831.6,155.4,836,152.8,838.5z
		 M299.2,869.9c-1.3-0.6-2.7-1.3-3.9-2.1c-4.7-2.9-9.2-7.1-13.3-12.5c-1.9-2.4-3.7-5-5.5-8.1c-0.2,0.4-0.5,0.9-0.8,1.2
		c-0.5,0.5-1.2,0.8-1.9,0.9c5.1,5.7,11.8,14,15.4,22.5c4.1,3.8,8.8,7.5,14,11C302.5,880.1,301.3,875.3,299.2,869.9z M209.2,879.8
		c0.2-0.1,0.3-0.2,0.5-0.4c0.7-0.5,1.3-1,1.7-1.6c0.1-0.1,0.1-0.3,0.2-0.4c0.3-0.6,0.3-1.3,0.4-2c0.1-0.5,0.1-1,0.2-1.4
		c0.5-2,0.9-3.8,1.5-5.4c1.1-3.4,2.5-6.6,4.2-9.4c0,0,0,0,0,0l0.1-0.1c0.8-1.3,1.6-2.6,2.6-3.8c-0.1,0-0.2-0.1-0.3-0.2
		c-0.1,0-0.1-0.1-0.2-0.1c-8.6,11.8-15.2,19.9-19.5,24.1c-1.2,1.2-2.4,2.2-3.3,2.8c-0.3,0.2-0.6,0.4-0.9,0.6
		c-1.2,2.8-2.2,5.3-2.8,6.9C196.9,887.8,203,884.6,209.2,879.8z M193.9,863.9L193.9,863.9c0.9-1.2,1.7-2.6,2.5-3.9
		c0.8-1.4,1.7-2.8,2.7-4.1c2.9-3.9,6.9-7,10-9.4c-0.2-0.1-0.4-0.3-0.6-0.5c-0.6-0.7-0.9-1.6-0.9-2.5c-0.9-0.1-1.7-0.6-2.3-1.3
		c-0.5-0.7-0.8-1.7-0.6-2.6c-0.9-0.2-1.7-0.8-2.1-1.6c0,0,0-0.1-0.1-0.1c-4.1,2.2-8.1,5.3-11.5,9c-1.5,1.7-2.9,3.5-4.2,5.4l0,0
		c-3.7,4.4-6.7,10.1-9.4,18.2c-0.9,2.6-1.6,5.3-2.2,7.8C181.3,875,189,870.7,193.9,863.9z M290.1,883.7c-0.9-5.9-3-11.7-6.5-17.6
		c-1-1.7-2.1-3.5-3.7-5.6c-1.1-1.5-2.3-2.9-3.4-4.3c-1-1.2-2-2.4-2.9-3.7c-0.3-0.4-0.5-0.7-0.8-1l0,0c-0.1-0.2-0.3-0.3-0.4-0.4
		c-0.2,0.2-0.4,0.4-0.6,0.6c2.7,4.9,5,10.9,6.7,17.8c2.6,3.6,5.2,7.9,7.3,12.2c0.7,1.5,3.2,6.6,4.2,10.7c0.1-0.5,0.3-1,0.4-1.6
		C290.7,888.2,290.4,885.7,290.1,883.7z M233.9,860.2c-0.8-0.2-1.5-0.7-2-1.4c-0.8,0.4-1.8,0.5-2.6,0.3c-0.9-0.3-1.6-0.9-2-1.7
		c-0.8,0.4-1.8,0.4-2.6,0c-0.7-0.3-1.2-0.8-1.6-1.4c-0.2,0.2-0.4,0.5-0.6,0.7c-0.6,0.8-1.2,1.7-1.7,2.5c-0.4,0.6-0.8,1.2-1.2,1.8
		c-1.6,2.2-2.5,5.1-3.4,7.8l-0.1,0.4c-1,3.1-1.7,6.2-2.3,9.3c-1.1,6.4-1.4,12.8-0.7,19c0,0.3,0,0.6,0.1,0.9
		c5.4-6.2,11.4-13.6,15.5-22.6C231.2,870.9,233,865.7,233.9,860.2z M182.5,852.6c1.8-1.1,3.2-2.9,4.5-4.5l0,0c0.3-0.4,0.6-0.8,1-1.2
		c3.8-4.6,8.7-8.5,14-11.3c0,0,0-0.1,0-0.1c-0.9-0.3-1.6-0.9-2-1.8c-0.4-0.8-0.4-1.8-0.1-2.6c-0.7-0.3-1.2-0.9-1.6-1.5
		c-1.3,0.3-2.7,0.7-4.1,1.3c-3.8,1.4-7.7,3.5-12.7,6.7c-6.5,4.3-12.6,9.1-18.1,14.4c-1.6,1.5-3,2.9-4.3,4.3c6,0.3,12.1-0.3,18-1.6
		C179.3,854,181,853.5,182.5,852.6z M269.2,894.5c0.1-3.4,0.3-6.8-0.9-9.9c-0.5-1.4-1.4-2.6-2.2-3.9l0-0.1c-0.2-0.3-0.4-0.6-0.6-0.9
		c-4.2-6.7-6.7-14-7.2-21.2c-0.7,0.2-1.5,0.1-2.2-0.3c-0.5,0.8-1.3,1.4-2.1,1.6c-0.6,0.1-1.2,0.1-1.8-0.1
		c-0.8,8.1,0.5,16.2,3.6,23.7c3,7.3,7.8,13.8,13.8,18.9C269,899.8,269.1,897.1,269.2,894.5z M234.7,891.8c1.1-2.6,2.4-5.1,3.8-7.5
		c1-1.8,2-3.6,2.8-5.4c2.9-6.2,4.3-12.4,3.8-17.9c-0.3,0.1-0.7,0.2-1,0.2c-0.9,0-1.8-0.4-2.5-1c-0.7,0.6-1.6,0.9-2.5,0.8
		c-0.9-0.1-1.8-0.5-2.4-1.3c-0.1,0.1-0.2,0.1-0.3,0.2c-0.1,0.6-0.2,1.3-0.4,2c-0.7,3.4-1.7,6.8-3,10c-0.2,0.4-0.3,0.7-0.5,1
		c-0.2,0.5-0.5,1-0.7,1.6l0,0.1c-0.1,0.2-0.2,0.5-0.3,0.7c-0.7,1.5-1.4,2.8-1.5,4.4c-0.2,1.9,0.4,3.7,1,5.7c0.3,1,0.6,2,0.9,3.1
		c0.5,2.3,0.4,4.6,0.3,6.8c0,0.8-0.1,1.7-0.1,2.5c0,1.7,0.2,3.2,0.5,4.5C232.4,898.9,233.1,895.4,234.7,891.8z M275.4,867.7
		L275.4,867.7c-1.2-5.4-3.2-10.6-6.1-15.5c0,0,0,0,0,0c-0.2,0.9-0.8,1.7-1.6,2.1c-0.8,0.5-1.8,0.6-2.6,0.4c-0.3,0.9-0.9,1.6-1.8,2
		c-0.8,0.4-1.8,0.4-2.6,0.1c-0.1,0.2-0.2,0.3-0.3,0.5c0.1,1.3,0.2,2.4,0.4,3.4c0.6,3.8,1.6,7.5,3.1,11.1c3.2,7.8,8.6,15.2,15.6,21.5
		C279.1,884.5,277.8,875.9,275.4,867.7z M252.9,896L252.9,896c0.2-5.5-0.8-11-1.7-16.3l-0.2-1.4c-1-6-1.8-11.9-1.3-17.7
		c-0.2,0.1-0.4,0.1-0.7,0.2c-0.6,0.1-1.2,0-1.8-0.3c0.7,6-0.4,12.2-3.1,17.5c-0.2,0.4-0.4,0.9-0.7,1.3c-0.8,1.5-1.6,3-1.8,4.6
		c-0.3,1.7,0,3.4,0.3,5.2l0,0.1c1.2,7.2,2.5,15.4,6.1,22.4c1.1-1.5,2-3.1,2.8-5C252.1,903.4,252.8,899.9,252.9,896z"/>
	<path class="st2" d="M721.7,325c-0.6-0.7-1.2-1.3-1.7-2c3.6,1.6,7.3,3,11.1,4c0.3,0.1,0.6,0.1,0.8,0.1c1.1,1.5,2.1,2.9,3.1,4.4
		c-0.1,0.3-0.1,0.6-0.1,1c0,0.1,0,0.2,0,0.3c-0.2-0.2-0.3-0.3-0.5-0.5c-1-1-2.3-1.5-3.6-1.5c-0.8,0-1.7,0.2-2.4,0.6
		c-1.1,0.6-1.8,1.6-2.2,2.7c-1.1-1.5-2.2-3.1-3.4-4.6C723.2,328,722.8,326.3,721.7,325z M627.6,92.9c2.5,3.6,4.7,7.4,6.5,11.4
		l5.5-13l0.9-2.1c0.8-1.9,2.6-3.1,4.6-3.1c0.2,0,0.3,0,0.5,0c0.1-0.3,0.3-0.7,0.4-1c-1.1-0.5-2.4-0.6-3.6-0.4
		c-5,1.3-10.1,2.6-14.6,5.1c-0.8,0.4-1.6,0.9-2.3,1.3C626.4,91.6,627.1,92.2,627.6,92.9z M844,310.8c2.1-4.9,3.4-10.2,2.8-15.4
		c-3.1,1-6,2.4-9.1,3.4c-8.4,3.1-17,5.8-24.5,10.5c-3.6,2.3-6.9,5.3-9,8.9c2,0.4,3.5,2,3.9,3.9c0.2,1,0.4,2.1,0.7,3.1
		c0,0,0,0.1,0,0.1c0.4,2,0.9,4.1,1.2,6.3c0,0.2,0,0.3,0,0.5c1.4-1.5,2.7-3,3.8-4.6c1-1.3,2.5-2,4-2c0.4,0,0.9,0.1,1.3,0.2
		c2,0.5,3.5,2.3,3.7,4.3c0.1,0.9,0.2,1.9,0.2,2.8c2.5-1.1,4.9-2.5,7.1-4.1C836.2,323.9,841,317.7,844,310.8z M782.3,264.2
		c0,0.1-0.1,0.3-0.1,0.4c-0.8,1.8-2.6,3-4.6,3c-0.1,0-0.2,0-0.3,0c-0.8,0-1.7-0.1-2.6-0.1c-1.7,0.6-3.4,1.2-5.1,1.8
		c1.9,1.2,3.7,2.4,5.4,3.6c11.4-5.7,23.9-8.5,36.4-10.9c7-1.3,14.1-2.5,21.1-4.3c4.8-1.3,9.5-3.3,14.5-3.9
		c7.3-0.8,13.7,3.7,20.8,4.4c3.4,0.3,6.7-0.1,10-0.7c6.6-1.3,12.6-4.4,18.1-8c5.3-3.3,10.1-7.3,15.3-10.7c-0.4-0.7-1.3-0.9-2.1-1.2
		c-6.1-2.3-12.8-2.4-19.2-3.1c-7.4-0.6-14.9-0.7-22.1,1.2c-6.7,1.7-12.9,5.3-17.9,10c-1.6,1.4-2.5,3.3-4.2,4.6
		c-0.8,0.7-1.9,0.8-2.9,0.9c-5.2,0.6-10.3,1.4-15.5,1.9c-7,0.8-14,1.7-20.8,3.1c-4,0.8-7.8,2.4-12,2.3c6.6-8.6,17.1-13,25.5-19.7
		c5.7-4.4,10.2-10.3,12.3-17.1c1.7-4.7,2-9.8,2.3-14.7c0-1.2-0.3-2.4-1.1-3.3c-6.2,4.3-13.6,6.7-20.3,10.2
		c-6,3.1-11.2,7.7-15.1,13.1c-1.9,2.5-2.9,5.5-3.3,8.6c-0.6,4.9,0.1,9.9-0.9,14.8c-1.3,5.3-5,9.8-9.7,12.6
		C783.7,263.4,783,263.8,782.3,264.2z M147.5,760.4c-0.5-3-1.7-5.9-3.3-8.5c-3.8-6.1-9.2-11.3-15.5-15.1c-5.1-3.1-10.7-5.6-16.4-7.6
		c1.4,6.2,3,12.3,5.3,18.3c2.7,7.2,6.5,14.1,11.7,19.9c3.2,3.5,7,6.7,11.7,8.2c3,0.9,6.4,0.8,9.1,2.5c1.5,0.9,2.4,2.5,2.9,4.1
		c0.9-0.4,1.8-0.7,2.7-1.1c0.3-0.1,0.6-0.2,1-0.3c-1.9-3.3-4.6-6.2-6.4-9.6C148.4,767.9,148.1,764.1,147.5,760.4z M494.2,187.4
		c-6.8-1-13.6-1.6-20.4-2.3c0.1,0.4,0.2,0.9,0.1,1.3c0,1.6-0.8,3-2.1,3.9c11,0.9,21.9,2.7,32.9,4.1
		C500.6,191.8,497,189.4,494.2,187.4z M611.2,120.7c0.2-0.7,0.4-1.4,0.6-2.1c2.2-8,5.1-15.6,8.1-23c-2.1,2.5-4,5.2-5.5,8
		c-2.5,4.4-4.5,8.9-6.4,13.5C609,118.4,610.1,119.6,611.2,120.7z M779.6,281.5c1.1,0.3,2.2,0.6,3.2,0.9c4,1.4,7.1,4.3,10.5,6.8
		c2.7,2.1,5.8,3.6,9.1,4.5c7.7,2.3,15.9,2.5,23.7,1.3c6.4-1.1,12.7-3,18.7-5.4c-5.8-4-11.8-7.7-18.1-10.9
		c-7.6-3.9-15.8-6.8-24.4-7.7c-5.2-0.5-10.7-0.4-15.5,1.6c-2.6,1.2-4.7,3-7.3,3.9c0.6,1,0.9,2.3,0.6,3.6
		C780,280.6,779.9,281,779.6,281.5z M87.5,566.1c2.5,19.4,6.7,38.7,12.7,57.3c-15.2,6.3-20,21.6-13.7,36.3
		c9.8-3.7,17.4-12.5,18.2-23.2c5.8,15.6,12.8,30.7,21,45.3c-14.2,8.7-16.5,25.1-7.2,38.6c9.9-6.1,15.5-17.3,12.9-28.8
		c3.2,5,17.4,29,23.4,32.7c-2.1,15.8,9.2,28.3,24.6,30.3c1.6,1.9,3.3,3.8,5,5.6c0,0,0.1,0,0.1,0c-1.4-4.1-2.5-8.1-3.4-12
		c-0.4-1.4-0.1-2.9,0.8-4.1c-3.1-11.4-11.8-18.8-24.4-21.6c-1.1-4.6-17.6-26.4-21.5-33.6c9.1,8,21.5,7.4,31.6,1.4
		c-8.2-12.8-22.9-17-36.9-11.3c-7.4-14.5-13.8-29.5-19.2-44.9c7.4,8,19.2,8.7,29,4.9c-5.4-14-18.8-20.4-33.2-17.9
		c-5.5-18.4-9.5-37.2-11.9-56.3c7.8,11.1,22.2,14.2,35.1,12.1c-3.2-19.1-18.1-30.8-36.9-32.2c-1.3-21.1-0.5-42.4,2.2-63.4
		c1.7,5.3,5.2,9.4,10,12.1c3.4,1.9,9.5,4.7,13.4,3.8c1.2-14.7-7.2-26-21.3-30c3.4-20.1,8.8-40,15.7-59.2c-0.2,11.4,9,19.6,19.3,22.8
		c5.4-14.3-1.6-27.9-14.8-34.5c5.2-12.9,12.3-25.4,18.5-37.9c14.3-5.1,22.7-16.1,20.8-31.4c4.6-3,21.5-25.1,26.9-30.4
		c-5.3,10.7-0.5,22.2,8.3,29.3c10.4-11,9.6-26.2-0.1-37.2c12.1-11.3,24.9-21.9,38.5-31.5c-5.4,9.2-2.7,20.3,4,28
		c11.9-8.5,14.5-23.3,7.4-35.9c16.5-10.8,33.8-20.2,51.8-28.2c-8.3,10.2-7,24.7-0.9,35.7c11.2-5.3,18.4-14.6,20.8-25.5
		c-0.2-0.3-0.5-0.6-0.7-0.9c-0.8-1.4-0.8-3.1-0.1-4.6c-0.9-0.1-1.8-0.3-2.6-0.6c-1.9-0.5-3.3-2.1-3.6-4c-0.3-1.7,0.4-3.4,1.6-4.5
		c-1.1,0.2-2.2,0.4-3.2,0.6c-0.3,0-0.5,0.1-0.8,0.1c-1.6,0-3.2-0.8-4.1-2.2c-1.1-1.6-1.1-3.7-0.1-5.4c1.4-2.3,3-4.6,4.7-6.8
		c0.7-0.9,1.4-1.8,2.1-2.6c-2.2-2.7-4.7-5-7.5-6.8c-1.4-0.5-2.7-0.9-4.1-1.5c-0.9-0.4-1.7-1-2.2-1.8c-3.3-1.2-6.8-1.9-10.7-2
		c-8.1-0.1-16.4,2.1-23.6,5.8c6.4,11.6,18.9,19.6,32.1,20c-18.4,8.3-36.1,18.1-52.8,29.4c-11.3-12.3-27.5-11.2-40.1-1.3
		c7,8.1,18,12.2,28.4,9.6c-13.5,10-26.3,21.1-38.1,33.1c-13.3-10.7-29.6-7.2-40.4,5.3c9.5,7.5,21.8,8.7,32.5,3
		c-5.2,5.7-24.5,27.2-25.9,32.4c-15.5,3.2-25,16.1-22.2,31.8c-8,11.4-14.3,24.2-19.6,37.1c-16.3-5-30.2,3.9-35.4,19.6
		c11.1,3.3,22.7,0.5,30.4-8.1c-7.8,19.4-13.9,39.6-17.7,60.2c-16.2-0.8-28.1,10.5-29,26.6c10.2,0.8,21.1-3.5,26.7-12.3
		c-3,21.5-4,43.3-2.6,64.9c-10.7,2.1-21,8-25.4,18.4c-3.3,7.7-4,17.2-2.3,25.4C70.5,587.1,83,578.4,87.5,566.1z M793.2,565.3
		c0.9-8.6,2.9-36.1,1.4-40.3c7.1-7.8,9.2-17.6,6.4-26.4c-0.9-0.1-1.7-0.5-2.4-1.1c-2.8-2.4-5.4-5.1-7.6-8.1c-0.3,3.6-1,7-2.3,10.1
		c-0.9,2.2-2,4.1-3.3,5.9c-0.8,1.1-2,1.7-3.3,1.9c0.7,6.2,3.5,12.1,8.6,17.5c-2.1,4.3-2.4,31.9-3.6,39.8
		c-2.3-11.9-13.2-18.5-24.7-19.2c-1.5,15.2,8.6,26.7,22.9,30c-2.9,16-6.8,31.8-11.8,47.3c-1.3-10.8-10.3-17.9-20.4-20.5
		c-4.6,14.2,2.9,27.3,15.9,33.2c-6.8,18-15.1,35.4-24.8,52c0.6-13.2-9.6-24.1-21-29.5c-9.3,16.6-4.1,35.2,10.1,46.9
		c-11.9,17.9-25.5,34.7-40.5,50c3.5-9.8-1.4-20-9-26.4c-10,10.8-10.4,25.1-1.3,36.5c-15.1,14.4-31.6,27.4-48.9,38.9
		c6.9-8.9,4.8-20.9-1.7-29.4c-12.6,8.2-15.9,23.2-9,36.2c-12.1,7.5-24.7,13.2-37.3,19.8c-14.9-4-28.8,1.1-36.6,14.5
		c-0.2,0.6-27.8,7.6-40,9.6c10.4-5.4,13.9-17.4,11-28.4c-14.7,3-23.8,15.3-22.6,30.1c-16.7,2.3-33.5,3.5-50.3,3.6
		c9.8-4.3,14.3-14.3,13.8-24.7c-4.5-1.1-12,2-15.8,4.3c-7.2,4.4-11.1,12.1-12.2,20.3c-19.9-0.6-39.7-2.7-59.2-6.4
		c12.8-3.7,20.7-15.6,22.6-28.4c-19-2.6-35.5,6.1-43.1,23.9c-12.8-3.3-25.5-7.2-37.9-11.7c3.6,3,7.1,6.1,10.5,9.3
		c1,1,1.5,2.3,1.5,3.6c7.8,2.5,15.7,4.8,23.7,6.8c-2.6,21.7,14,36.6,34.7,38.9c1.8-12.7-3.2-26.6-13.7-34.2
		c20,3.7,40.3,5.7,60.6,5.9c1.6,16.2,15.9,25.4,31.6,23.7c-0.7-10.4-7.3-20.1-17.1-23.8c17.1-0.4,34.2-2.1,51.1-5.1
		c4.4,16.6,20.1,22.4,35.9,18.6c-3.1-11.7-12.6-19.4-24.4-20.8c8.1-1.7,36-6.9,40-10.1c14.7,6.2,30.2,0,37.4-14.2
		c13.6-4.8,26.8-12.3,39.3-19.4c10.5,13.6,27.2,13.6,40.5,4.1c-7.1-9.1-18.3-13.2-29.5-10.7c18.1-11.2,35.3-24.1,51-38.7
		c12.9,10.1,29.3,7.1,39.7-5.1c-8-6.6-19.2-9.1-29-5.2c15.6-15.6,29.6-32.6,41.7-51c20.2,8.9,39.5-0.7,49.2-19.7
		c-12.1-5.7-27-5.3-38.3,2c9.9-17.1,18.3-35.1,24.9-53.7c16.3,3.5,29-6.1,33.2-21.7c-10.3-2.5-21.9,0.1-28.8,8.4
		c4.8-15.8,8.5-32,10.6-48.4c16.7,1,28.3-10.7,29.3-27.2l-0.4,0C809,548.8,798.2,554.8,793.2,565.3z M159.4,823.1
		c-1.3-0.6-2.6-1.2-3.9-1.9c-1.6-0.9-3.2-1.9-4.8-3c-0.5-0.3-1-0.7-1.5-1.1c-0.4-0.2-0.8-0.4-1.2-0.6c-0.5-0.3-0.8-0.7-1.2-1.2
		c-0.2-0.2-0.4-0.3-0.5-0.5c-1.2-1.3-1.7-3.1-1.3-4.8c0.4-1.7,1.7-3,3.4-3.5c0.1,0,0.3-0.1,0.6-0.2l0.1,0l0.1,0
		c0.8-0.2,1.6-0.5,2.4-0.7c-1.5-1.1-2.7-2.2-3.7-3.1c-0.5,0.2-0.9,0.4-1.4,0.6c-6.5,3-12.1,7.7-16.3,13.4c-2.9,4-5.2,8.6-5.8,13.5
		c3-0.4,6-1,9-1.4c8.2-1.2,16.6-2.1,24.5-4.9C158.5,823.4,158.9,823.3,159.4,823.1z M300.4,886.9
		C300.4,886.9,300.4,886.9,300.4,886.9c-1.9-1.3-3.7-2.5-5.4-3.8c0.3,2.3,0.6,5.4,0.1,8.6c-0.1,0.7-0.3,1.4-0.5,2.1
		c-0.6,2.1-2.6,3.6-4.8,3.6c0,0-0.1,0-0.1,0c-2.3,0-4.2-1.6-4.7-3.8c-0.2-0.7-0.4-1.4-0.7-2.2c0,0.6,0.1,1.1,0.1,1.7
		c0.1,2-1.1,3.9-2.9,4.7c-0.7,0.3-1.4,0.5-2.1,0.5c-0.7,0-1.4-0.2-2.1-0.5c0,7.1,1.2,14.1,2.3,21c0.5,2.9,0.7,5.8,1.2,8.7
		c4.7-2,8.6-5.4,11.7-9.3c4.4-5.5,7.5-12,8.6-18.9c0.5-3.2,0.6-6.6-0.1-9.8C300.9,888.6,300.7,887.7,300.4,886.9z M395,950.7
		c-2.3-2-4.8-3.9-7.6-5.2c-6-2.6-13.3-2-18.7-6c-3.7-2.8-6.5-6.5-9.7-9.8c-4.7-4.6-9.7-8.8-14.7-13.1c-9.2-7.9-18.3-16.3-24.6-26.7
		c-0.4-0.7-1.1-1.3-1.1-2.2c2.1-0.2,4.3,0,6,1.3c2.5,2,3.3,5.2,5.1,7.7c2.8,3.9,7.2,6.4,11.6,8.4c7.3,3.2,15.2,4.7,23.2,5
		c6.6,0.3,13.1,0.1,19.7-0.4c-3.6-4.7-7.7-9.1-12.3-12.9c-5.6-4.6-12.3-8.2-19.5-9.9c-3.1-0.8-6.3-1-9.5-0.6
		c-3.8,0.5-7.8,1.3-11.6,0.6c-5-0.9-9.6-3.4-14.8-3.5c-2.1-2.7-4.2-5.4-6.2-8.2c-1.4-0.1-2.8-0.2-4.1-0.5c0.8,2.7,1.5,5.1,1.9,6.9
		c0,0.2,0.1,0.3,0.1,0.5c0.8,1.3,1.7,2.6,2.6,3.9c3.9,5.8,9.3,10.6,12.5,16.9c2.4,4.4,3.2,9.7,1.6,14.5c-1.5,4.4-4.5,8.1-6.4,12.3
		c-1.2,2.6-1.8,5.5-1.5,8.4c0.5,6.1,2.4,12.2,5.7,17.4c3.7,5.9,8.4,11.2,11.2,17.5c1.1-0.4,1.9-1.2,2.5-2.2
		c2.2-4.1,4.4-8.3,5.3-12.9c1.6-6.4,0.9-13.2-1.5-19.3c-3.4-9.2-9.7-17.5-10.8-27.5c3.4,1.8,5.7,4.8,8.5,7.3c4.8,4.3,10,8.2,15.1,12
		c3.8,2.8,7.6,5.8,11.4,8.7c0.7,0.6,1.6,1.2,1.9,2.1c0.7,1.8,0.5,3.8,1.1,5.6c1.7,6,4.9,11.7,9.4,16.2c4.8,4.8,10.9,8.2,17,11.1
		c5.5,2.4,10.8,5.4,16.8,6.3c0.8,0.1,1.6,0.3,2.3,0c-2.7-4.5-4.6-9.9-7.2-15C402.9,960,399.6,954.8,395,950.7z M856.9,362
		c-1.5-1.1-3.1-2.1-4.8-3c-1.1,2-2.2,3.8-3.4,5.6c0.3,0,0.7,0,1,0c2.2,0,4.4,0.2,6.3,0.4c2.1,0.2,3.8,1.7,4.3,3.8
		c0.4,1.8-0.2,3.7-1.6,4.9c0.4,0,0.9,0,1.3,0c0.1,0,0.1,0,0.2,0c1.9,0,3.7,1.1,4.5,2.8c0.9,1.8,0.6,3.9-0.7,5.4
		c-1.5,1.8-3.1,3.5-4.7,5.1c1.8,0.4,3.2,1.7,3.8,3.4c0.3,1,0.3,2,0,2.9c0.7,0.3,1.3,0.5,2,0.8c6.1,2.2,12.6,3.6,19,4.4
		c-2.9-6.2-6.2-12.3-10-18.1C869.5,373.4,863.9,366.9,856.9,362z M967,385.1c-4.1-4.9-9.8-8.3-15.1-12c-6.1-4.1-12.6-7.8-19.8-9.7
		c-6.8-1.8-14-1.7-20.7-0.1c-2.1,0.4-3.9,1.6-6.1,1.9c-1.1,0.2-2.1-0.3-3-0.6c-4.8-2-9.7-3.8-14.5-5.8c-6.5-2.6-13-5.3-19.7-7.4
		c-3.9-1.2-8.1-1.7-11.6-3.8c10.2-4.2,21.7-2.9,32.5-4.6c7.3-1,14.3-3.9,19.7-8.7c3.9-3.3,6.9-7.4,9.7-11.6c0.7-1,1-2.2,0.8-3.4
		c-7.7,0.7-15.3-0.8-23-1c-6.9-0.2-13.8,1.2-20,4c-2.9,1.3-5.5,3.3-7.4,5.8c-3.1,3.9-5.1,8.6-8.6,12.3c-3.9,3.9-9.4,4.6-14.9,4.7
		c-4.8,0.2-9-1-13.7-1.8c-0.1,0.7-0.8,3.1-0.9,3.8c0.1,0,0.3-0.1,0.4-0.2c1.5-0.5,3.2-0.8,4.7-0.8c0.1,0,0.3,0,0.4,0
		c1.8,0.1,3.6,0.5,5.1,1.3c1.4,0.8,2.4,2.1,2.6,3.6c1.3-0.2,2.7-0.3,4-0.3c0.1,0,0.2,0,0.2,0c1.7,0,3.3,0.9,4.2,2.4
		c0.1,0.2,0.3,0.5,0.4,0.7c5.7,1.4,11.3,3.2,16.8,5c6.8,2.3,13.6,4.7,20.5,6.5c4.9,1.2,10,1.8,14.7,3.7c6.8,2.8,10,9.8,15.7,13.8
		c2.8,1.9,5.9,3.2,9.1,4.2c6.4,2.1,13.3,2.3,19.9,1.9c6.3-0.3,12.6-1.4,18.9-1.8C968.2,386.4,967.5,385.7,967,385.1z M551.8,114.4
		c2.4,0.7,4.8,1.4,7.1,2.2c5,1.7,9.7,3.7,14.2,5.8c-3.7-7.6-7.5-12.3-10.3-15.1c-1.7-1.7-1.9-4.1-0.3-5.9c0.5-0.6,1.1-1.1,1.9-1.4
		c-3.4-2.7-6.9-5.4-10.5-7.9c-1.7,6.2-2.6,12.4-2.4,18.7C551.5,112,551.6,113.2,551.8,114.4z M592.5,82.6c0.4,4.9-0.7,9.7-1.2,14.5
		c-0.2,2.3-0.3,4.6-0.3,6.9c0.6-1,1.4-1.8,2.6-2.2c0.6-0.2,1.2-0.3,1.8-0.3c0.5,0,1.1,0.1,1.6,0.3c0-0.2,0-0.5-0.1-0.7
		c-0.4-5-0.6-10-1-15c0-1-0.1-2.1,0.4-3c1-1.9,2.8-3.1,3.9-4.9c3.8-5.6,6.2-12.2,6.7-18.9c0.5-7.2-1-14.3-3-21.1
		c-1.9-6-3.3-12.2-6.8-17.5c-0.5-0.7-0.8-1.5-1.7-1.8c-2.5,5.6-5.6,11-8,16.7c-2.6,6-4.6,12.3-4.6,18.8c0,3.2,0.2,6.5,1.2,9.6
		C586.1,70.4,591.9,75.6,592.5,82.6z M542.1,126.6c-0.3-0.7-0.7-1.4-1-2.1c-0.3-0.7-2-4.1-2-4.1c-0.2-0.3-0.3-0.7-0.5-1
		c-0.3-0.5-0.5-1-0.8-1.5c-0.1-0.3-0.2-0.5-0.3-0.8c-0.3,0.2-0.6,0.5-0.9,0.7c-1.7,1.3-3.2,2.8-4.7,4.3
		C534.3,123,537.8,124.5,542.1,126.6z M136.5,783.8c3.9,0.7,7.6,2,11.3,3.4c0.1-1.8,1.3-3.4,2.9-4.2c0.1-0.1,0.3-0.1,0.4-0.2
		c-0.2,0-0.3-0.1-0.5-0.1c-12.1-2.8-23.1-8.7-33.6-14.9c-5.7-3.3-11.4-6.8-17.3-9.8c-4.2-2-8.7-3.5-12.6-6.1
		c-5.6-3.8-7-10.7-11.4-15.5c-2.1-2.2-4.7-4-7.4-5.5c-5.4-3.1-11.6-4.6-17.7-5.5c-5.8-0.9-11.7-1.1-17.6-1.9
		c-0.2,0.8,0.3,1.4,0.6,2.1c2.7,5.2,7.2,9.3,11.2,13.7c4.7,4.9,9.8,9.5,16,12.5c5.8,2.9,12.3,4.2,18.8,4c2,0,3.9-0.8,5.9-0.6
		c1,0,1.8,0.6,2.6,1.1c4,2.7,8,5.3,11.9,8c5.4,3.6,10.7,7.3,16.4,10.4c3.3,1.8,7,3.1,9.8,5.7c-10.2,1.9-20.3-1.5-30.4-1.9
		c-6.8-0.5-13.8,0.9-19.7,4.2c-4.3,2.2-7.8,5.4-11.2,8.7c-0.8,0.8-1.3,1.8-1.4,2.9c7.1,0.8,13.8,3.6,20.7,5.3
		c6.2,1.5,12.8,1.5,19,0.2c2.9-0.6,5.7-2,7.9-3.9c3.6-3,6.4-6.8,10.4-9.5C125.9,783.7,131.4,782.9,136.5,783.8z M436.5,61.4
		c2,2.6,4.1,5.1,6.8,7.1c5.7,4.1,13.5,5,18.3,10.4c3.3,3.7,5.3,8.3,7.9,12.4c3.8,5.9,8.2,11.4,12.4,17c7.8,10.4,15.4,21.2,19.6,33.4
		c0.2,0.9,0.8,1.7,0.7,2.6c-2.2-0.2-4.6-0.9-6-2.7c-2.1-2.7-2.3-6.2-3.5-9.2c-2.1-4.7-6-8.4-10.2-11.4c-6.9-5-14.6-9.3-22.9-11.5
		c-5-1.3-9.9-2.3-15-3c-0.2,1.8-0.9,4.8-1.3,6.8c0,0.2-0.1,0.3-0.1,0.5c1.8-1,3.5-2,5.1-3.1c0.9-0.6,1.8-0.9,2.8-0.9
		c1,0,2,0.3,2.8,0.9c1.7,1.2,2.5,3.3,2,5.3c-0.3,1.4-0.7,2.7-1.2,4.1c0.6-0.1,1.1-0.2,1.7-0.3c0.2,0,0.4,0,0.6,0
		c1.5,0,2.9,0.7,3.8,1.8c1.1,1.3,1.4,3.1,0.9,4.7c-0.8,2.4-1.9,4.8-3.2,7c1.1,0.8,2.2,1.5,3.3,2.2c0.4,0.1,0.8,0.2,1.2,0.4
		c1.4,0.5,2.6,1.3,3.7,2.2c3,1.4,6.2,2.3,9.5,2.6c3.8,0.2,8.1,0.2,12.1,1.7c5,2.1,9.3,5.7,14.7,6.9c4.1,8.4,7.4,17,10.6,25.8
		c3.1,0.1,6.2,0.4,9.2,0.7c0,0,0.1,0,0.1,0c0.1-0.9,0.2-1.8,0.5-2.7c-0.9-1.3-1.8-2.7-2.6-4.1c-0.3,1-0.6,2-1.1,2.9
		c-4.9-7.4-6.5-16.1-9.7-24.1c-2.7-7-7.3-13.2-9.2-20.5c-1.5-5.2-1.1-10.9,1.7-15.7c2.6-4.3,6.7-7.5,9.7-11.5
		c1.9-2.5,3.2-5.4,3.6-8.5c0.9-6.6,0.4-13.3-1.8-19.6c-2.5-7-6.2-13.6-7.7-20.9c-1.2,0.2-2.3,0.8-3.1,1.7c-3.3,3.8-6.6,7.8-8.7,12.4
		c-3.2,6.4-4,13.7-2.9,20.7c1.4,10.4,6.1,20.6,4.8,31.3c-3.1-2.6-4.8-6.3-7.2-9.6c-4-5.6-8.6-10.8-13.1-16
		c-3.4-3.8-6.6-7.8-9.9-11.6c-0.6-0.8-1.4-1.6-1.5-2.6c-0.3-2.1,0.4-4.1,0.2-6.2c-0.4-6.7-2.3-13.4-6.1-19.1
		c-3.9-6.1-9.5-11-15.3-15.4c-5.2-3.8-10.1-8-16.2-10.4c-0.8-0.3-1.6-0.7-2.4-0.5c1.4,6,2.2,12,3.7,18
		C430.3,49.9,432.6,56.1,436.5,61.4z M522.8,140.3c2.1,0.8,4.1,1.7,6.1,2.5c-1.9-4.7-3-8.5-3.6-11.5c-0.8,1.5-1.5,3-2.1,4.6
		c-0.5,1.3-1,2.7-1.3,4.1C522.2,140,522.5,140.1,522.8,140.3z"/>
	<path class="st1" d="M280.5,788.8l-0.5,0l0.2-0.5c0.3-0.8,0.2-1.7-0.3-2.4c-0.5-0.7-1.4-1-2.2-0.9l-0.5,0.1l0.2-0.5
		c0.3-0.8,0.1-1.7-0.5-2.3c-0.6-0.6-1.5-0.9-2.3-0.7l-0.5,0.1l0.1-0.5c0.2-0.8-0.1-1.7-0.8-2.3c-0.6-0.6-1.5-0.7-2.3-0.4l-0.5,0.2
		l0.1-0.5c0.1-0.9-0.3-1.7-1-2.2c-0.7-0.5-1.6-0.6-2.4-0.2l-0.5,0.2l0-0.5c0-0.9-0.5-1.6-1.2-2.1c-0.7-0.4-1.7-0.4-2.4,0.1l-0.5,0.3
		l-0.1-0.5c-0.1-0.9-0.6-1.6-1.4-1.9c-0.8-0.3-1.7-0.2-2.4,0.3l-0.4,0.3l-0.1-0.5c-0.2-0.8-0.8-1.5-1.6-1.8c-0.8-0.2-1.7,0-2.3,0.6
		l-0.4,0.4l-0.2-0.5c-0.3-0.8-1-1.4-1.8-1.6c-0.8-0.2-1.7,0.1-2.3,0.8l-0.3,0.4l-0.2-0.5c-0.3-0.8-1.1-1.3-2-1.4
		c-0.8-0.1-1.7,0.3-2.2,1l-0.3,0.4l-0.3-0.4c-0.4-0.7-1.2-1.2-2.1-1.2c-0.9,0-1.6,0.5-2,1.2l-0.2,0.5l-0.3-0.4
		c-0.5-0.7-1.3-1.1-2.2-1c-0.9,0.1-1.6,0.7-1.9,1.5l-0.2,0.5l-0.4-0.4c-0.6-0.6-1.5-0.9-2.3-0.7c-0.8,0.2-1.5,0.8-1.7,1.6l-0.1,0.5
		l-0.4-0.3c-0.7-0.6-1.6-0.8-2.3-0.5c-0.8,0.3-1.4,1-1.6,1.8l-0.1,0.5l-0.4-0.3c-0.7-0.5-1.6-0.6-2.4-0.2c-0.8,0.4-1.3,1.1-1.4,2
		l0,0.5l-0.5-0.3c-0.7-0.4-1.7-0.4-2.4,0c-0.7,0.4-1.2,1.2-1.1,2.1l0,0.5l-0.5-0.2c-0.8-0.3-1.7-0.2-2.4,0.3c-0.7,0.5-1,1.4-0.9,2.2
		l0.1,0.5l-0.5-0.2c-0.8-0.3-1.7-0.1-2.3,0.5c-0.6,0.6-0.9,1.4-0.7,2.3l0.1,0.5l-0.5-0.1c-0.8-0.2-1.7,0.1-2.3,0.8
		c-0.6,0.6-0.7,1.5-0.4,2.3l0.2,0.5l-0.5-0.1c-0.8-0.1-1.7,0.3-2.2,1c-0.5,0.7-0.6,1.6-0.2,2.4l0.2,0.5l-0.5,0
		c-0.9,0-1.6,0.5-2.1,1.2c-0.4,0.7-0.4,1.7,0.1,2.4l0.3,0.5l-0.5,0.1c-0.9,0.1-1.6,0.6-1.9,1.4c-0.3,0.8-0.2,1.7,0.3,2.4l0.3,0.4
		l-0.5,0.1c-0.8,0.2-1.5,0.8-1.8,1.6c-0.2,0.8,0,1.7,0.6,2.3l0.4,0.4l-0.5,0.2c-0.8,0.3-1.4,1-1.6,1.8c-0.2,0.8,0.2,1.7,0.8,2.3
		l0.4,0.3l-0.5,0.2c-0.8,0.3-1.3,1.1-1.4,2c-0.1,0.9,0.3,1.7,1,2.2l0.4,0.3l-0.4,0.3c-0.7,0.4-1.2,1.2-1.2,2.1c0,0.9,0.5,1.6,1.3,2
		l0.5,0.3l-0.4,0.3c-0.7,0.5-1,1.3-0.9,2.2c0.1,0.9,0.7,1.6,1.5,1.9l0.5,0.2l-0.4,0.4c-0.6,0.6-0.9,1.5-0.7,2.3
		c0.2,0.8,0.8,1.5,1.6,1.8l0.5,0.1l-0.3,0.4c-0.6,0.7-0.7,1.5-0.5,2.3c0.3,0.8,1,1.4,1.8,1.6l0.5,0.1l-0.3,0.4
		c-0.5,0.7-0.6,1.6-0.2,2.4c0.4,0.8,1.1,1.3,2,1.4l0.5,0l-0.3,0.5c-0.4,0.7-0.4,1.7,0,2.4c0.4,0.7,1.2,1.2,2.1,1.1l0.5,0l-0.2,0.5
		c-0.3,0.8-0.2,1.7,0.3,2.4c0.5,0.7,1.4,1,2.2,0.9l0.5-0.1l-0.2,0.5c-0.3,0.8-0.1,1.7,0.5,2.3c0.6,0.6,1.5,0.9,2.3,0.7l0.5-0.1
		l-0.1,0.5c-0.2,0.8,0.1,1.7,0.8,2.3c0.6,0.6,1.5,0.7,2.3,0.4l0.5-0.2L216,849c-0.1,0.9,0.3,1.7,1,2.2c0.7,0.5,1.6,0.6,2.4,0.2
		l0.5-0.2l0,0.5c0,0.9,0.5,1.6,1.2,2.1c0.7,0.4,1.7,0.4,2.4-0.1l0.5-0.3l0.1,0.5c0.1,0.9,0.6,1.6,1.4,1.9c0.8,0.3,1.7,0.2,2.4-0.3
		l0.4-0.3l0.1,0.5c0.2,0.8,0.8,1.5,1.6,1.8c0.8,0.2,1.7,0,2.3-0.6l0.4-0.4l0.2,0.5c0.3,0.8,1,1.4,1.8,1.6c0.8,0.2,1.7-0.1,2.3-0.8
		l0.3-0.4l0.2,0.5c0.3,0.8,1.1,1.3,2,1.4c0.8,0.1,1.7-0.3,2.2-1l0.3-0.4l0.3,0.4c0.4,0.7,1.2,1.2,2.1,1.2c0.9,0,1.6-0.5,2-1.2
		l0.2-0.5l0.3,0.4c0.5,0.7,1.3,1.1,2.2,1c0.9-0.1,1.6-0.7,1.9-1.5l0.2-0.5l0.4,0.4c0.6,0.6,1.5,0.9,2.3,0.7c0.8-0.2,1.5-0.8,1.7-1.6
		l0.1-0.5l0.4,0.3c0.7,0.6,1.6,0.8,2.3,0.5c0.8-0.3,1.4-1,1.6-1.8l0.1-0.5l0.4,0.3c0.7,0.5,1.6,0.6,2.4,0.2c0.8-0.4,1.3-1.1,1.4-2
		l0-0.5l0.5,0.3c0.7,0.4,1.7,0.4,2.4,0c0.7-0.4,1.2-1.2,1.1-2.1l0-0.5l0.5,0.2c0.8,0.3,1.7,0.2,2.4-0.3c0.7-0.5,1-1.4,0.9-2.2
		l-0.1-0.5l0.5,0.2c0.8,0.3,1.7,0.1,2.3-0.5c0.6-0.6,0.9-1.4,0.7-2.3l-0.1-0.5l0.5,0.1c0.8,0.2,1.7-0.1,2.3-0.8
		c0.6-0.6,0.7-1.5,0.4-2.3l-0.2-0.5l0.5,0.1c0.8,0.1,1.7-0.3,2.2-1c0.5-0.7,0.6-1.6,0.2-2.4l-0.2-0.5l0.5,0c0.9,0,1.6-0.5,2.1-1.2
		c0.4-0.7,0.4-1.7-0.1-2.4l-0.3-0.5l0.5-0.1c0.9-0.1,1.6-0.6,1.9-1.4c0.3-0.8,0.2-1.7-0.3-2.4l-0.3-0.4l0.5-0.1
		c0.8-0.2,1.5-0.8,1.8-1.6c0.2-0.8,0-1.7-0.6-2.3l-0.4-0.4l0.5-0.2c0.8-0.3,1.4-1,1.6-1.8c0.2-0.8-0.2-1.7-0.8-2.3l-0.4-0.3l0.5-0.2
		c0.8-0.3,1.3-1.1,1.4-2c0.1-0.9-0.3-1.7-1-2.2l-0.4-0.3l0.4-0.3c0.7-0.4,1.2-1.2,1.2-2.1c0-0.9-0.5-1.6-1.3-2l-0.5-0.3l0.4-0.3
		c0.7-0.5,1-1.3,0.9-2.2c-0.1-0.9-0.7-1.6-1.5-1.9l-0.5-0.2l0.4-0.4c0.6-0.6,0.9-1.5,0.7-2.3c-0.2-0.8-0.8-1.5-1.6-1.8l-0.5-0.1
		l0.3-0.4c0.6-0.7,0.7-1.5,0.5-2.3c-0.3-0.8-1-1.4-1.8-1.6l-0.5-0.1l0.3-0.4c0.5-0.7,0.6-1.6,0.2-2.4c-0.4-0.8-1.1-1.3-2-1.4l-0.5,0
		l0.3-0.5c0.4-0.7,0.4-1.7,0-2.4C282.2,789.2,281.4,788.8,280.5,788.8z"/>
</g>
</svg>
