<?xml version="1.0" encoding="utf-8"?>
<!-- Generator: Adobe Illustrator 23.0.1, SVG Export Plug-In . SVG Version: 6.00 Build 0)  -->
<svg version="1.1" id="Layer_1" xmlns="http://www.w3.org/2000/svg" xmlns:xlink="http://www.w3.org/1999/xlink" x="0px" y="0px"
	 width="1000px" height="1000px" viewBox="0 0 1000 1000" style="enable-background:new 0 0 1000 1000;" xml:space="preserve">
<style type="text/css">
	.st0{fill:#875713;}
	.st1{fill:#FFD902;}
</style>
<g>
	<path class="st0" d="M709.8,510.6c3.9-2.2,6.5-6.3,6.5-11s-2.6-8.9-6.5-11c3.6-2.6,5.8-6.9,5.3-11.6s-3.5-8.5-7.6-10.3
		c3.3-2.9,5-7.5,4-12.1s-4.4-8.1-8.6-9.4c3-3.2,4.2-8,2.7-12.5s-5.2-7.6-9.6-8.5c2.6-3.5,3.3-8.4,1.4-12.7c-1.9-4.3-6-7-10.4-7.4
		c2.3-3.8,2.5-8.7,0.1-12.8c-2.4-4.1-6.7-6.4-11.1-6.3c1.8-4,1.5-8.9-1.2-12.7c-2.8-3.8-7.3-5.6-11.7-5.1c1.4-4.2,0.6-9-2.6-12.5
		c-3.2-3.5-7.9-4.8-12.2-3.9c1-4.3-0.3-9-3.9-12.2c-3.5-3.2-8.3-4-12.5-2.6c0.5-4.4-1.3-8.9-5.1-11.7c-3.8-2.8-8.7-3.1-12.7-1.2
		c0.1-4.4-2.2-8.7-6.3-11.1s-9-2.2-12.8,0.1c-0.4-4.4-3.1-8.5-7.4-10.4c-4.3-1.9-9.2-1.2-12.7,1.4c-0.9-4.3-4-8.1-8.5-9.5
		c-4.5-1.5-9.2-0.3-12.5,2.7c-1.3-4.2-4.8-7.6-9.4-8.6c-4.6-1-9.2,0.7-12.1,4c-1.7-4.1-5.6-7.1-10.3-7.6s-9.1,1.7-11.6,5.3
		c-2.2-3.9-6.3-6.5-11-6.5s-8.9,2.6-11,6.5c-2.6-3.6-6.9-5.8-11.6-5.3s-8.5,3.5-10.3,7.6c-2.9-3.3-7.5-5-12.1-4s-8.1,4.4-9.4,8.6
		c-3.2-3-8-4.2-12.5-2.7s-7.6,5.2-8.5,9.6c-3.5-2.6-8.4-3.3-12.7-1.4c-4.3,1.9-7,6-7.4,10.4c-3.8-2.3-8.7-2.5-12.8-0.1
		c-4.1,2.4-6.4,6.7-6.3,11.1c-4-1.8-8.9-1.5-12.7,1.2c-3.8,2.8-5.6,7.3-5.1,11.7c-4.2-1.4-9-0.6-12.5,2.6s-4.8,7.9-3.9,12.2
		c-4.3-1-9,0.3-12.2,3.9c-3.2,3.5-4,8.3-2.6,12.5c-4.4-0.5-8.9,1.3-11.7,5.1c-2.8,3.8-3.1,8.7-1.2,12.7c-4.4-0.1-8.7,2.2-11.1,6.3
		c-2.4,4.1-2.2,9,0.1,12.8c-4.4,0.4-8.5,3.1-10.4,7.4s-1.2,9.2,1.4,12.7c-4.3,0.9-8.1,4-9.5,8.5c-1.5,4.5-0.3,9.2,2.7,12.5
		c-4.2,1.3-7.6,4.8-8.6,9.4s0.7,9.2,4,12.1c-4.1,1.7-7.1,5.6-7.6,10.3c-0.5,4.7,1.7,9.1,5.3,11.6c-3.9,2.2-6.5,6.3-6.5,11
		s2.6,8.9,6.5,11c-3.6,2.6-5.8,6.9-5.3,11.6c0.5,4.7,3.5,8.5,7.6,10.3c-3.3,2.9-5,7.5-4,12.1s4.4,8.1,8.6,9.4c-3,3.2-4.2,8-2.7,12.5
		s5.2,7.6,9.6,8.5c-2.6,3.5-3.3,8.4-1.4,12.7s6,7,10.4,7.4c-2.3,3.8-2.5,8.7-0.1,12.8s6.7,6.4,11.1,6.3c-1.8,4-1.5,8.9,1.2,12.7
		c2.8,3.8,7.3,5.6,11.7,5.1c-1.4,4.2-0.6,9,2.6,12.5s7.9,4.8,12.2,3.9c-1,4.3,0.3,9,3.9,12.2c3.5,3.2,8.3,4,12.5,2.6
		c-0.5,4.4,1.3,8.9,5.1,11.7c3.8,2.8,8.7,3.1,12.7,1.2c-0.1,4.4,2.2,8.7,6.3,11.1c4.1,2.4,9,2.2,12.8-0.1c0.4,4.4,3.1,8.5,7.4,10.4
		s9.2,1.2,12.7-1.4c0.9,4.3,4,8.1,8.5,9.5c4.5,1.5,9.2,0.3,12.5-2.7c1.3,4.2,4.8,7.6,9.4,8.6s9.2-0.7,12.1-4
		c1.7,4.1,5.6,7.1,10.3,7.6c4.7,0.5,9.1-1.7,11.6-5.3c2.2,3.9,6.3,6.5,11,6.5s8.9-2.6,11-6.5c2.6,3.6,6.9,5.8,11.6,5.3
		c4.7-0.5,8.5-3.5,10.3-7.6c2.9,3.3,7.5,5,12.1,4s8.1-4.4,9.4-8.6c3.2,3,8,4.2,12.5,2.7s7.6-5.2,8.5-9.6c3.5,2.6,8.4,3.3,12.7,1.4
		c4.3-1.9,7-6,7.4-10.4c3.8,2.3,8.7,2.5,12.8,0.1s6.4-6.7,6.3-11.1c4,1.8,8.9,1.5,12.7-1.2c3.8-2.8,5.6-7.3,5.1-11.7
		c4.2,1.4,9,0.6,12.5-2.6c3.5-3.2,4.8-7.9,3.9-12.2c4.3,1,9-0.3,12.2-3.9c3.2-3.5,4-8.3,2.6-12.5c4.4,0.5,8.9-1.3,11.7-5.1
		s3.1-8.7,1.2-12.7c4.4,0.1,8.7-2.2,11.1-6.3c2.4-4.1,2.2-9-0.1-12.8c4.4-0.4,8.5-3.1,10.4-7.4c1.9-4.3,1.2-9.2-1.4-12.7
		c4.3-0.9,8.1-4,9.5-8.5c1.5-4.5,0.3-9.2-2.7-12.5c4.2-1.3,7.6-4.8,8.6-9.4c1-4.6-0.7-9.2-4-12.1c4.1-1.7,7.1-5.6,7.6-10.3
		S713.4,513.2,709.8,510.6z M550.6,690c-1.3-1.2-2.8-2.1-4.4-2.7c1.2-1.3,2-2.8,2.6-4.4c1.3,1.2,2.8,2,4.4,2.5
		C552,686.8,551.2,688.3,550.6,690z M530.5,694.3c-1.1-1.3-2.6-2.4-4.1-3.1c1.3-1.1,2.3-2.5,3-4.1c1.1,1.3,2.5,2.3,4.1,3
		C532.2,691.3,531.2,692.7,530.5,694.3z M510,696.5c-1-1.4-2.3-2.6-3.8-3.5c1.4-1,2.6-2.3,3.4-3.8c1,1.4,2.3,2.6,3.8,3.4
		C512,693.6,510.8,694.9,510,696.5z M489.3,696.5c-0.9-1.5-2-2.8-3.4-3.9c1.5-0.8,2.8-2,3.8-3.4c0.8,1.5,2,2.8,3.4,3.8
		C491.6,693.8,490.3,695,489.3,696.5z M468.8,694.3c-0.7-1.6-1.7-3-3-4.2c1.6-0.7,3-1.7,4.1-3c0.7,1.6,1.7,3,3,4.1
		C471.4,692,470,693,468.8,694.3z M448.5,309.3c1.3,1.2,2.8,2.1,4.4,2.7c-1.2,1.3-2,2.8-2.6,4.4c-1.3-1.2-2.8-2-4.4-2.5
		C447.1,312.5,448,311,448.5,309.3z M468.7,305c1.1,1.3,2.6,2.4,4.1,3.1c-1.3,1.1-2.3,2.5-3,4.1c-1.1-1.3-2.5-2.3-4.1-3
		C467,308.1,468,306.6,468.7,305z M489.2,302.9c1,1.4,2.3,2.6,3.8,3.5c-1.4,1-2.6,2.3-3.4,3.8c-1-1.4-2.3-2.6-3.8-3.4
		C487.2,305.7,488.4,304.4,489.2,302.9z M509.8,302.9c0.9,1.5,2,2.8,3.4,3.9c-1.5,0.8-2.8,2-3.8,3.4c-0.8-1.5-2-2.8-3.4-3.8
		C507.5,305.5,508.8,304.3,509.8,302.9z M530.3,305c0.7,1.6,1.7,3,3,4.2c-1.6,0.7-3,1.7-4.1,3c-0.7-1.6-1.7-3-3-4.1
		C527.8,307.4,529.2,306.3,530.3,305z M692.8,493.1c-1-1.4-2.3-2.6-3.8-3.4c1.4-1,2.6-2.3,3.4-3.8c1.1,1.4,2.4,2.6,3.9,3.4
		C695,490.3,693.8,491.6,692.8,493.1z M691.1,526.3c0.7,1.6,1.8,3,3.1,4.1c-1.6,0.7-3,1.7-4.2,3c-0.7-1.6-1.7-3-3-4.1
		C688.6,528.6,690,527.6,691.1,526.3z M563.3,665.5c-1.5-1.1-3.2-1.8-5.1-2.1c1.2-1.2,2.1-2.6,2.7-4.2c1.5,0.8,3.1,1.2,4.8,1.3
		C564.5,661.9,563.7,663.6,563.3,665.5z M545.6,671.2c-1.4-1.3-3-2.2-4.8-2.7c1.3-1.1,2.4-2.4,3.1-3.9c1.4,0.9,3,1.5,4.6,1.8
		C547.2,667.8,546.2,669.4,545.6,671.2z M527.4,675.1c-1.2-1.4-2.8-2.5-4.5-3.1c1.4-0.9,2.6-2.1,3.5-3.5c1.3,1.1,2.8,1.8,4.4,2.3
		C529.3,671.9,528.2,673.4,527.4,675.1z M508.9,677c-1.1-1.5-2.5-2.8-4.2-3.6c1.5-0.8,2.8-1.8,3.9-3.1c1.2,1.2,2.6,2.1,4.1,2.7
		C511.2,674,509.8,675.4,508.9,677z M490.3,677.1c-0.9-1.6-2.2-3-3.8-4c1.6-0.6,3-1.5,4.2-2.7c1,1.3,2.3,2.4,3.8,3.1
		C492.9,674.3,491.4,675.5,490.3,677.1z M471.9,675.1c-0.7-1.7-1.9-3.2-3.3-4.4c1.6-0.4,3.1-1.2,4.4-2.3c0.9,1.4,2.1,2.6,3.5,3.5
		C474.7,672.6,473.1,673.7,471.9,675.1z M436,665.5c-0.4-1.8-1.2-3.5-2.4-5c1.7-0.1,3.3-0.5,4.8-1.3c0.6,1.6,1.5,3,2.7,4.2
		C439.2,663.7,437.5,664.4,436,665.5z M308.1,526.4c1.1,1.3,2.5,2.3,4.1,3c-1.3,1.1-2.3,2.5-3,4.1c-1.2-1.3-2.6-2.3-4.2-3
		C306.3,529.4,307.3,528,308.1,526.4z M308,473c-0.7-1.6-1.8-3-3.1-4.1c1.6-0.7,3-1.7,4.2-3c0.7,1.6,1.7,3,3,4.1
		C310.6,470.7,309.2,471.8,308,473z M435.9,333.9c1.5,1.1,3.2,1.8,5.1,2.1c-1.2,1.2-2.1,2.6-2.7,4.2c-1.5-0.8-3.1-1.2-4.8-1.3
		C434.7,337.4,435.5,335.7,435.9,333.9z M453.6,328.1c1.4,1.3,3,2.2,4.8,2.7c-1.3,1.1-2.4,2.4-3.1,3.9c-1.4-0.9-3-1.5-4.6-1.8
		C452,331.5,453,329.9,453.6,328.1z M471.7,324.2c1.2,1.4,2.8,2.5,4.5,3.1c-1.4,0.9-2.6,2.1-3.5,3.5c-1.3-1.1-2.8-1.8-4.4-2.3
		C469.8,327.5,471,326,471.7,324.2z M490.2,322.3c1.1,1.5,2.5,2.8,4.2,3.6c-1.5,0.8-2.8,1.8-3.9,3.1c-1.2-1.2-2.6-2.1-4.1-2.7
		C488,325.3,489.3,323.9,490.2,322.3z M508.8,322.3c0.9,1.6,2.2,3,3.8,4c-1.6,0.6-3,1.5-4.2,2.7c-1-1.3-2.3-2.4-3.8-3.1
		C506.3,325.1,507.7,323.8,508.8,322.3z M527.3,324.2c0.7,1.7,1.9,3.2,3.3,4.4c-1.6,0.4-3.1,1.2-4.4,2.3c-0.9-1.4-2.1-2.6-3.5-3.5
		C524.5,326.7,526.1,325.6,527.3,324.2z M563.2,333.8c0.4,1.8,1.2,3.5,2.4,5c-1.7,0.1-3.3,0.5-4.8,1.3c-0.6-1.6-1.5-3-2.7-4.2
		C559.9,335.7,561.7,334.9,563.2,333.8z M691.1,472.9c-1.1-1.3-2.5-2.3-4.1-3c1.3-1.1,2.3-2.5,3-4.1c1.2,1.3,2.6,2.3,4.2,3
		C692.9,469.9,691.8,471.3,691.1,472.9z M570.4,638.5c-1.9-0.8-4-1-6.1-0.6c1.6-1.4,2.7-3.2,3.2-5.1c1.9,0.8,4,0.9,6,0.4
		C572,634.7,570.9,636.5,570.4,638.5z M555.5,645.2c-1.8-1-3.9-1.4-6-1.3c1.7-1.2,3-2.9,3.7-4.8c1.8,0.9,3.9,1.3,6,1.1
		C557.5,641.5,556.2,643.2,555.5,645.2z M507.8,655.3c-1.4-1.5-3.3-2.6-5.4-3.1c2-0.6,3.7-1.8,5-3.4c1.4,1.5,3.3,2.5,5.3,2.9
		C510.8,652.4,509.1,653.7,507.8,655.3z M491.5,655.3c-1.3-1.6-3-2.9-5-3.6c2.1-0.4,3.9-1.4,5.3-2.9c1.3,1.6,3,2.8,5,3.4
		C494.8,652.8,492.9,653.9,491.5,655.3z M366.1,573.6c-1.5-1.5-3.3-2.6-5.4-3.1c0.8-1.9,1-4,0.6-6.1c1.4,1.6,3.2,2.7,5.1,3.2
		C365.8,569.4,365.6,571.6,366.1,573.6z M428.8,360.8c1.9,0.8,4,1,6.1,0.6c-1.6,1.4-2.7,3.2-3.2,5.1c-1.9-0.8-4-0.9-6-0.4
		C427.2,364.7,428.2,362.8,428.8,360.8z M443.7,354.2c1.8,1,3.9,1.4,6,1.3c-1.7,1.2-3,2.9-3.7,4.8c-1.8-0.9-3.9-1.3-6-1.1
		C441.7,357.9,442.9,356.1,443.7,354.2z M491.3,344c1.4,1.5,3.3,2.6,5.4,3.1c-2,0.6-3.7,1.8-5,3.4c-1.4-1.5-3.3-2.5-5.3-2.9
		C488.4,346.9,490.1,345.6,491.3,344z M507.7,344c1.3,1.6,3,2.9,5,3.6c-2.1,0.4-3.9,1.4-5.3,2.9c-1.3-1.6-3-2.8-5-3.4
		C504.4,346.6,506.2,345.5,507.7,344z M633.1,425.8c1.5,1.5,3.3,2.6,5.4,3.1c-0.8,1.9-1,4-0.6,6.1c-1.4-1.6-3.2-2.7-5.1-3.2
		C633.4,429.9,633.6,427.8,633.1,425.8z M673.4,494.5c-0.8-1.5-1.8-2.8-3.1-3.9c1.2-1.2,2.1-2.6,2.7-4.1c1,1.6,2.4,2.9,4,3.8
		C675.4,491.4,674.2,492.8,673.4,494.5z M671.9,522.8c0.7,1.8,1.8,3.3,3.2,4.6c-1.7,0.7-3.2,1.9-4.4,3.3c-0.4-1.6-1.2-3.1-2.3-4.4
		C669.8,525.4,671,524.2,671.9,522.8z M359.1,559.2c-1.3-1.7-3.1-2.9-5-3.6c1-1.8,1.4-3.9,1.3-6c1.2,1.7,2.9,3,4.8,3.7
		C359.2,555.1,358.8,557.2,359.1,559.2z M328.6,530.9c-1.2-1.5-2.7-2.6-4.4-3.4c1.4-1.2,2.5-2.8,3.1-4.5c0.9,1.4,2.1,2.6,3.5,3.5
		C329.8,527.8,329,529.3,328.6,530.9z M327.3,476.5c-0.7-1.8-1.8-3.3-3.2-4.6c1.7-0.7,3.2-1.9,4.4-3.3c0.4,1.6,1.2,3.1,2.3,4.4
		C329.4,473.9,328.2,475.1,327.3,476.5z M640.1,440.1c1.3,1.7,3.1,2.9,5,3.6c-1,1.8-1.4,3.9-1.3,6c-1.2-1.7-2.9-3-4.8-3.7
		C640,444.3,640.4,442.2,640.1,440.1z M670.6,468.5c1.2,1.5,2.7,2.6,4.4,3.4c-1.4,1.2-2.5,2.8-3.1,4.5c-0.9-1.4-2.1-2.6-3.5-3.5
		C669.4,471.6,670.2,470.1,670.6,468.5z M649.4,528.6c-0.2-2.1-1-4-2.3-5.6c1.7-1.1,3.1-2.7,3.9-4.6c0.3,2.1,1.2,4.1,2.5,5.6
		C651.8,525.1,650.4,526.7,649.4,528.6z M649.4,470.6c0.9,1.9,2.4,3.5,4.1,4.6c-1.3,1.6-2.2,3.5-2.5,5.6c-0.8-1.9-2.2-3.5-3.9-4.6
		C648.4,474.7,649.2,472.7,649.4,470.6z M652.2,496.8c-0.6-2-1.8-3.7-3.4-5c1.5-1.4,2.5-3.3,2.9-5.3c0.7,2,2,3.7,3.6,5
		C653.8,492.9,652.7,494.7,652.2,496.8z M651.6,512.8c-0.4-2.1-1.4-3.9-2.9-5.3c1.6-1.3,2.8-3,3.4-5c0.5,2.1,1.6,3.9,3.1,5.3
		C653.6,509,652.4,510.8,651.6,512.8z M648.2,465.1c-1-1.8-2.5-3.3-4.4-4.2c1.1-1.7,1.7-3.7,1.7-5.8c1.1,1.8,2.7,3.2,4.6,4.1
		C649,461,648.3,463,648.2,465.1z M349.8,528.7c-0.9-1.9-2.4-3.5-4.1-4.6c1.3-1.6,2.2-3.5,2.5-5.6c0.8,1.9,2.2,3.5,3.9,4.6
		C350.7,524.7,349.9,526.6,349.8,528.7z M349.7,470.8c0.2,2.1,1,4,2.3,5.6c-1.7,1.1-3.1,2.7-3.9,4.6c-0.3-2.1-1.2-4.1-2.5-5.6
		C347.4,474.3,348.8,472.7,349.7,470.8z M347.5,486.6c0.4,2.1,1.4,3.9,2.9,5.3c-1.6,1.3-2.8,3-3.4,5c-0.5-2.1-1.6-3.9-3.1-5.3
		C345.5,490.3,346.8,488.6,347.5,486.6z M347,502.6c0.6,2,1.8,3.7,3.4,5c-1.5,1.4-2.5,3.3-2.9,5.3c-0.7-2-2-3.7-3.6-5
		C345.4,506.5,346.5,504.6,347,502.6z M360.1,446.2c-1.9,0.7-3.6,2-4.8,3.7c0.1-2.1-0.3-4.2-1.3-6c1.9-0.7,3.7-2,5-3.6
		C358.8,442.3,359.1,444.4,360.1,446.2z M353.6,455.3c-0.1,2.1,0.6,4.1,1.7,5.8c-1.8,0.9-3.4,2.4-4.4,4.2c-0.1-2.1-0.8-4.2-1.9-5.9
		C350.9,458.5,352.5,457.1,353.6,455.3z M350.9,534.2c1,1.8,2.5,3.3,4.4,4.2c-1.1,1.7-1.7,3.7-1.7,5.8c-1.1-1.8-2.7-3.2-4.6-4.1
		C350.2,538.4,350.9,536.3,350.9,534.2z M639.1,553.1c1.9-0.7,3.6-2,4.8-3.7c-0.1,2.1,0.3,4.2,1.3,6c-1.9,0.7-3.7,2-5,3.6
		C640.4,557,640,554.9,639.1,553.1z M645.6,544.1c0.1-2.1-0.6-4.1-1.7-5.8c1.8-0.9,3.4-2.4,4.4-4.2c0.1,2.1,0.8,4.2,1.9,5.9
		C648.3,540.9,646.7,542.3,645.6,544.1z M666.4,450.8c1.3,1.3,3,2.3,4.7,2.9c-1.3,1.4-2.2,3-2.7,4.8c-1.1-1.3-2.4-2.4-3.9-3.1
		C665.5,454,666.1,452.4,666.4,450.8z M570.3,360.8c0.5,2,1.6,3.9,3.1,5.3c-2-0.5-4.1-0.3-6,0.4c-0.5-2-1.6-3.8-3.2-5.1
		C566.2,361.8,568.4,361.5,570.3,360.8z M555.4,354.1c0.7,1.9,2,3.7,3.6,5c-2.1-0.3-4.2,0.1-6,1.1c-0.7-1.9-2-3.6-3.7-4.8
		C551.5,355.5,553.5,355.1,555.4,354.1z M538.2,355.4c-0.9-1.8-2.4-3.4-4.2-4.4c2.1-0.1,4.2-0.8,5.9-1.9c0.9,1.9,2.3,3.5,4.1,4.6
		C541.9,353.6,539.9,354.2,538.2,355.4z M522.9,352.1c-1.1-1.7-2.7-3.1-4.6-3.9c2.1-0.3,4.1-1.2,5.6-2.5c1.1,1.7,2.7,3.2,4.6,4.1
		C526.4,350,524.4,350.8,522.9,352.1z M475.1,345.7c1.6,1.3,3.5,2.2,5.6,2.5c-1.9,0.8-3.5,2.2-4.6,3.9c-1.6-1.3-3.5-2.1-5.6-2.3
		C472.4,348.9,474,347.5,475.1,345.7z M459.2,349.1c1.7,1.1,3.7,1.8,5.9,1.9c-1.8,1-3.3,2.5-4.2,4.4c-1.7-1.1-3.7-1.7-5.8-1.7
		C456.8,352.6,458.3,351,459.2,349.1z M366,425.9c-0.5,2-0.3,4.1,0.4,6c-2,0.5-3.8,1.6-5.1,3.2c0.4-2.1,0.1-4.2-0.6-6.1
		C362.7,428.5,364.5,427.4,366,425.9z M330.7,458.6c-0.5-1.8-1.4-3.5-2.7-4.9c1.8-0.6,3.4-1.5,4.7-2.9c0.3,1.7,0.9,3.3,1.8,4.6
		C333,456.3,331.7,457.3,330.7,458.6z M326.2,486.6c0.6,1.6,1.5,3,2.7,4.2c-1.3,1-2.4,2.3-3.1,3.8c-0.8-1.7-2.1-3.1-3.6-4.2
		C323.8,489.5,325.2,488.2,326.2,486.6z M325.8,504.8c0.8,1.5,1.8,2.8,3.1,3.9c-1.2,1.2-2.1,2.6-2.7,4.1c-1-1.6-2.4-2.9-4-3.8
		C323.7,507.9,325,506.5,325.8,504.8z M332.8,548.6c-1.3-1.3-3-2.3-4.7-2.9c1.3-1.4,2.2-3,2.7-4.8c1.1,1.3,2.4,2.4,3.9,3.1
		C333.6,545.4,333,546.9,332.8,548.6z M428.9,638.6c-0.5-2-1.6-3.9-3.1-5.3c2,0.5,4.1,0.3,6-0.4c0.5,2,1.6,3.8,3.2,5.1
		C432.9,637.6,430.8,637.8,428.9,638.6z M443.8,645.2c-0.7-1.9-2-3.7-3.6-5c2.1,0.3,4.2-0.1,6-1.1c0.7,1.9,2,3.6,3.7,4.8
		C447.7,643.8,445.6,644.3,443.8,645.2z M461,644c0.9,1.8,2.4,3.4,4.2,4.4c-2.1,0.1-4.2,0.8-5.9,1.9c-0.9-1.9-2.3-3.5-4.1-4.6
		C457.3,645.7,459.3,645.1,461,644z M476.3,647.2c1.1,1.7,2.7,3.1,4.6,3.9c-2.1,0.3-4.1,1.2-5.6,2.5c-1.1-1.7-2.7-3.2-4.6-4.1
		C472.8,649.3,474.7,648.5,476.3,647.2z M524,653.6c-1.6-1.3-3.5-2.2-5.6-2.5c1.9-0.8,3.5-2.2,4.6-3.9c1.6,1.3,3.5,2.1,5.6,2.3
		C526.7,650.4,525.1,651.9,524,653.6z M540,650.2c-1.7-1.1-3.7-1.8-5.9-1.9c1.8-1,3.3-2.5,4.2-4.4c1.7,1.1,3.7,1.7,5.8,1.7
		C542.3,646.8,540.9,648.4,540,650.2z M633.2,573.5c0.5-2,0.3-4.1-0.4-6c2-0.5,3.8-1.6,5.1-3.2c-0.4,2.1-0.1,4.2,0.6,6.1
		C636.5,570.9,634.6,571.9,633.2,573.5z M668.5,540.7c0.5,1.8,1.4,3.5,2.7,4.9c-1.8,0.6-3.4,1.5-4.7,2.9c-0.3-1.7-0.9-3.3-1.8-4.6
		C666.1,543.1,667.5,542,668.5,540.7z M672.9,512.7c-0.6-1.6-1.5-3-2.7-4.2c1.3-1,2.4-2.3,3.1-3.8c0.8,1.7,2.1,3.1,3.6,4.2
		C675.3,509.8,674,511.1,672.9,512.7z M687.3,453.1c-1.3-1.2-2.8-2-4.4-2.6c1.2-1.3,2-2.8,2.5-4.4c1.3,1.1,2.9,2,4.5,2.5
		C688.7,449.9,687.8,451.4,687.3,453.1z M681.4,433.7c-1.4-1-3-1.7-4.6-2.1c1-1.4,1.7-3,2.1-4.6c1.4,1,3.1,1.7,4.8,2
		C682.5,430.4,681.8,432,681.4,433.7z M660.4,433.6c1.5,1.2,3.2,2,5,2.4c-1.1,1.5-1.8,3.2-2.1,5.1c-1.2-1.2-2.6-2.1-4.2-2.7
		C659.8,436.9,660.3,435.3,660.4,433.6z M630.3,420.9c-1.5-1.4-3.4-2.3-5.4-2.6c0.6-2,0.5-4.1-0.2-6.1c1.6,1.4,3.6,2.2,5.6,2.5
		C629.7,416.7,629.7,418.8,630.3,420.9z M621.3,407.7c-1.7-1.3-3.7-2-5.7-2.1c0.3-2,0.1-4.1-0.8-6c1.8,1.2,3.8,1.8,5.9,1.9
		C620.3,403.6,620.5,405.7,621.3,407.7z M611,395.4c-1.8-1.1-3.8-1.6-5.9-1.4c0.1-2-0.4-4.1-1.5-5.9c1.9,1,4,1.4,6,1.3
		C609.6,391.5,610,393.6,611,395.4z M597.6,378.5c0.1,2.1,0.7,4.1,1.9,5.9c-1.9-0.9-4-1.2-6-0.8c-0.1-2-0.8-4-2.1-5.7
		C593.5,378.6,595.6,378.8,597.6,378.5z M584.4,368.9c0.3,2,1.2,4,2.5,5.6c-2-0.7-4.1-0.7-6.1-0.2c-0.3-2-1.2-3.9-2.6-5.4
		C580.3,369.5,582.4,369.5,584.4,368.9z M545.5,328.1c0.6,1.8,1.5,3.4,2.9,4.7c-1.7,0.3-3.3,0.9-4.6,1.8c-0.7-1.5-1.8-2.8-3.1-3.9
		C542.5,330.3,544.1,329.4,545.5,328.1z M418.2,374.4c-2-0.6-4.1-0.5-6.1,0.2c1.4-1.6,2.2-3.6,2.5-5.6c2,0.6,4.1,0.6,6.2,0
		C419.4,370.5,418.5,372.4,418.2,374.4z M407.6,377.9c-1.3,1.7-2,3.7-2.1,5.7c-2-0.3-4.1-0.1-6,0.8c1.2-1.8,1.8-3.8,1.9-5.9
		C403.5,378.9,405.6,378.7,407.6,377.9z M395.4,388.2c-1.1,1.8-1.6,3.8-1.4,5.9c-2-0.1-4.1,0.4-5.9,1.5c1-1.9,1.4-4,1.3-6
		C391.4,389.6,393.5,389.2,395.4,388.2z M384.3,399.7c-0.9,1.9-1.2,4-0.8,6c-2,0.1-4,0.8-5.7,2.1c0.8-2,1-4.1,0.6-6.1
		C380.5,401.6,382.5,400.9,384.3,399.7z M374.5,412.3c-0.7,2-0.7,4.1-0.2,6.1c-2,0.3-3.9,1.2-5.4,2.6c0.6-2.1,0.6-4.2,0-6.2
		C370.9,414.5,372.8,413.7,374.5,412.3z M335.9,441.2c-0.3-1.9-1-3.6-2.1-5.1c1.8-0.4,3.5-1.2,5-2.4c0.1,1.7,0.5,3.3,1.3,4.8
		C338.5,439.1,337.1,440,335.9,441.2z M320.3,427.1c0.3,1.7,1,3.3,2.1,4.6c-1.7,0.3-3.3,1.1-4.6,2.1c-0.4-1.7-1.1-3.3-2.2-4.7
		C317.3,428.8,318.9,428.1,320.3,427.1z M313.7,446.2c0.5,1.6,1.4,3.1,2.5,4.4c-1.6,0.5-3.1,1.4-4.4,2.6c-0.6-1.6-1.5-3.2-2.7-4.4
		C310.9,448.2,312.4,447.4,313.7,446.2z M311.9,546.3c1.3,1.2,2.8,2,4.4,2.6c-1.2,1.3-2,2.8-2.5,4.4c-1.3-1.1-2.9-2-4.5-2.5
		C310.4,549.5,311.3,547.9,311.9,546.3z M317.8,565.7c1.4,1,3,1.7,4.6,2.1c-1,1.4-1.7,3-2.1,4.6c-1.4-1-3.1-1.7-4.8-2
		C316.7,569,317.4,567.4,317.8,565.7z M338.8,565.8c-1.5-1.2-3.2-2-5-2.4c1.1-1.5,1.8-3.2,2.1-5.1c1.2,1.2,2.6,2.1,4.2,2.7
		C339.3,562.5,338.9,564.1,338.8,565.8z M368.9,578.5c1.5,1.4,3.4,2.3,5.4,2.6c-0.6,2-0.5,4.1,0.2,6.1c-1.6-1.4-3.6-2.2-5.6-2.5
		C369.5,582.6,369.5,580.5,368.9,578.5z M377.8,591.7c1.7,1.3,3.7,2,5.7,2.1c-0.3,2-0.1,4.1,0.8,6c-1.8-1.2-3.8-1.8-5.9-1.9
		C378.8,595.8,378.6,593.7,377.8,591.7z M388.1,603.9c1.8,1.1,3.8,1.6,5.9,1.4c-0.1,2,0.4,4.1,1.5,5.9c-1.9-1-4-1.4-6-1.3
		C389.6,607.9,389.1,605.8,388.1,603.9z M401.5,620.9c-0.1-2.1-0.7-4.1-1.9-5.9c1.9,0.9,4,1.2,6,0.8c0.1,2,0.8,4,2.1,5.7
		C405.7,620.7,403.6,620.5,401.5,620.9z M414.8,630.4c-0.3-2-1.2-4-2.5-5.6c2,0.7,4.1,0.7,6.1,0.2c0.3,2,1.2,3.9,2.6,5.4
		C418.9,629.9,416.7,629.9,414.8,630.4z M453.7,671.3c-0.6-1.8-1.5-3.4-2.9-4.7c1.7-0.3,3.3-0.9,4.6-1.8c0.7,1.5,1.8,2.8,3.1,3.9
		C456.7,669.1,455,670,453.7,671.3z M581,624.9c2,0.6,4.1,0.5,6.1-0.2c-1.4,1.6-2.2,3.6-2.5,5.6c-2-0.6-4.1-0.6-6.2,0
		C579.8,628.8,580.7,626.9,581,624.9z M591.6,621.4c1.3-1.7,2-3.7,2.1-5.7c2,0.3,4.1,0.1,6-0.8c-1.2,1.8-1.8,3.8-1.9,5.9
		C595.7,620.4,593.6,620.6,591.6,621.4z M603.8,611.1c1.1-1.8,1.6-3.8,1.4-5.9c2,0.1,4.1-0.4,5.9-1.5c-1,1.9-1.4,4-1.3,6
		C607.8,609.7,605.7,610.1,603.8,611.1z M614.9,599.6c0.9-1.9,1.2-4,0.8-6c2-0.1,4-0.8,5.7-2.1c-0.8,2-1,4.1-0.6,6.1
		C618.7,597.8,616.7,598.4,614.9,599.6z M624.7,587c0.7-2,0.7-4.1,0.2-6.1c2-0.3,3.9-1.2,5.4-2.6c-0.6,2.1-0.6,4.2,0,6.2
		C628.3,584.8,626.3,585.7,624.7,587z M663.3,558.1c0.3,1.9,1,3.6,2.1,5.1c-1.8,0.4-3.5,1.2-5,2.4c-0.1-1.7-0.5-3.3-1.3-4.8
		C660.7,560.3,662.1,559.3,663.3,558.1z M678.8,572.3c-0.3-1.7-1-3.3-2.1-4.6c1.7-0.3,3.3-1.1,4.6-2.1c0.4,1.7,1.1,3.3,2.2,4.7
		C681.9,570.6,680.2,571.3,678.8,572.3z M685.4,553.1c-0.5-1.6-1.4-3.1-2.5-4.4c1.6-0.5,3.1-1.4,4.4-2.6c0.6,1.6,1.5,3.2,2.7,4.4
		C688.3,551.1,686.7,552,685.4,553.1z M673.5,415.1c-1.5-0.9-3.1-1.4-4.8-1.6c0.9-1.5,1.4-3.1,1.6-4.8c1.5,0.8,3.2,1.4,5,1.5
		C674.2,411.6,673.7,413.3,673.5,415.1z M656.2,424.3c-1.3-1.1-2.8-1.8-4.4-2.2c0.6-1.5,0.9-3.2,0.8-4.9c1.6,1,3.4,1.7,5.2,1.8
		C656.9,420.6,656.3,422.4,656.2,424.3z M647.5,408.3c-1.4-0.9-3-1.5-4.7-1.8c0.5-1.6,0.5-3.3,0.3-4.9c1.7,0.9,3.5,1.3,5.4,1.3
		C647.7,404.6,647.4,406.4,647.5,408.3z M637.1,393.4c-1.5-0.8-3.1-1.2-4.8-1.3c0.3-1.6,0.2-3.3-0.2-4.9c1.8,0.7,3.6,0.9,5.5,0.7
		C637,389.6,636.8,391.5,637.1,393.4z M625.3,379.6c-1.6-0.6-3.3-0.9-4.9-0.8c0.1-1.7-0.1-3.3-0.8-4.9c1.8,0.5,3.7,0.5,5.6,0.1
		C624.7,375.9,624.8,377.7,625.3,379.6z M611.3,361.6c-0.2,1.8,0,3.7,0.7,5.5c-1.6-0.4-3.3-0.5-5-0.2c-0.1-1.7-0.5-3.3-1.3-4.8
		C607.6,362.4,609.5,362.2,611.3,361.6z M596.3,350.7c0,1.9,0.4,3.7,1.3,5.4c-1.7-0.3-3.4-0.2-5,0.3c-0.2-1.6-0.8-3.2-1.8-4.6
		C592.7,351.8,594.6,351.5,596.3,350.7z M577.1,347.4c-0.4-1.6-1.2-3.1-2.2-4.4c1.9-0.1,3.7-0.6,5.3-1.6c0.2,1.9,0.8,3.6,1.8,5.2
		C580.3,346.5,578.6,346.8,577.1,347.4z M553,313.8c-1.6,0.5-3.1,1.4-4.4,2.5c-0.5-1.6-1.4-3.1-2.6-4.4c1.6-0.6,3.2-1.5,4.4-2.7
		C551,311,551.9,312.5,553,313.8z M418.9,341.4c1.6,1,3.4,1.5,5.3,1.6c-1.1,1.3-1.8,2.8-2.2,4.4c-1.5-0.6-3.2-0.9-4.9-0.8
		C418.1,345.1,418.7,343.3,418.9,341.4z M406.5,356.4c-1.6-0.5-3.3-0.5-4.9-0.3c0.9-1.7,1.3-3.5,1.3-5.4c1.7,0.8,3.6,1.1,5.4,1
		C407.3,353.2,406.7,354.8,406.5,356.4z M392,366.9c-1.6-0.3-3.3-0.2-4.9,0.2c0.7-1.8,0.9-3.6,0.7-5.5c1.8,0.6,3.7,0.8,5.5,0.5
		C392.5,363.6,392.1,365.3,392,366.9z M378.7,378.9c-1.7-0.1-3.3,0.1-4.9,0.8c0.5-1.8,0.5-3.7,0.1-5.6c1.8,0.4,3.7,0.4,5.5-0.1
		C378.9,375.6,378.6,377.2,378.7,378.9z M366.7,392.2c-1.7,0.1-3.3,0.5-4.8,1.3c0.3-1.9,0.2-3.8-0.5-5.5c1.8,0.2,3.7,0,5.5-0.7
		C366.5,388.9,366.5,390.6,366.7,392.2z M356,401.7c-0.3,1.7-0.2,3.4,0.3,5c-1.6,0.2-3.2,0.8-4.6,1.8c0.1-1.9-0.2-3.8-1-5.5
		C352.4,403,354.3,402.6,356,401.7z M346.5,417.3c-0.1,1.7,0.2,3.4,0.8,4.9c-1.6,0.4-3.1,1.2-4.4,2.2c-0.1-1.9-0.6-3.7-1.6-5.3
		C343.1,418.9,344.9,418.3,346.5,417.3z M328.9,408.7c0.1,1.7,0.7,3.4,1.6,4.8c-1.7,0.2-3.4,0.7-4.8,1.6c-0.2-1.7-0.8-3.4-1.7-4.9
		C325.7,410.1,327.4,409.6,328.9,408.7z M306.7,486c0.8,1.5,2,2.8,3.4,3.8c-1.5,0.8-2.8,2-3.8,3.4c-0.9-1.5-2.1-2.8-3.5-3.8
		C304.3,488.6,305.6,487.4,306.7,486z M306.3,506.3c1,1.4,2.3,2.6,3.8,3.4c-1.4,1-2.6,2.3-3.4,3.8c-1.1-1.4-2.4-2.6-3.9-3.4
		C304.2,509,305.4,507.7,306.3,506.3z M325.7,584.3c1.5,0.9,3.1,1.4,4.8,1.6c-0.9,1.5-1.4,3.1-1.6,4.8c-1.5-0.8-3.2-1.4-5-1.5
		C324.9,587.7,325.5,586,325.7,584.3z M342.9,575.1c1.3,1.1,2.8,1.8,4.4,2.2c-0.6,1.5-0.9,3.2-0.8,4.9c-1.6-1-3.4-1.7-5.2-1.8
		C342.3,578.8,342.8,576.9,342.9,575.1z M351.7,591c1.4,0.9,3,1.5,4.7,1.8c-0.5,1.6-0.5,3.3-0.3,4.9c-1.7-0.9-3.5-1.3-5.4-1.3
		C351.4,594.8,351.8,592.9,351.7,591z M362,606c1.5,0.8,3.1,1.2,4.8,1.3c-0.3,1.6-0.2,3.3,0.2,4.9c-1.8-0.7-3.6-0.9-5.5-0.7
		C362.2,609.7,362.3,607.8,362,606z M373.9,619.8c1.6,0.6,3.3,0.9,4.9,0.8c-0.1,1.7,0.1,3.3,0.8,4.9c-1.8-0.5-3.7-0.5-5.6-0.1
		C374.4,623.5,374.4,621.6,373.9,619.8z M387.8,637.7c0.2-1.8,0-3.7-0.7-5.5c1.6,0.4,3.3,0.5,5,0.2c0.1,1.7,0.5,3.3,1.3,4.8
		C391.5,637,389.6,637.1,387.8,637.7z M402.9,648.7c0-1.9-0.4-3.7-1.3-5.4c1.7,0.3,3.4,0.2,5-0.3c0.2,1.6,0.8,3.2,1.8,4.6
		C406.5,647.5,404.6,647.9,402.9,648.7z M422.1,651.9c0.4,1.6,1.2,3.1,2.2,4.4c-1.9,0.1-3.7,0.6-5.3,1.6c-0.2-1.9-0.8-3.6-1.8-5.2
		C418.9,652.8,420.5,652.6,422.1,651.9z M446.1,685.5c1.6-0.5,3.1-1.4,4.4-2.5c0.5,1.6,1.4,3.1,2.6,4.4c-1.7,0.6-3.2,1.5-4.4,2.7
		C448.1,688.4,447.3,686.8,446.1,685.5z M580.3,657.9c-1.6-1-3.4-1.5-5.3-1.6c1.1-1.3,1.8-2.8,2.2-4.4c1.5,0.6,3.2,0.9,4.9,0.8
		C581.1,654.2,580.4,656,580.3,657.9z M592.7,642.9c1.6,0.5,3.3,0.5,4.9,0.3c-0.9,1.7-1.3,3.5-1.3,5.4c-1.7-0.8-3.6-1.1-5.4-1
		C591.9,646.2,592.5,644.6,592.7,642.9z M607.2,632.4c1.6,0.3,3.3,0.2,4.9-0.2c-0.7,1.8-0.9,3.6-0.7,5.5c-1.8-0.6-3.7-0.8-5.5-0.5
		C606.7,635.7,607.1,634.1,607.2,632.4z M620.5,620.4c1.7,0.1,3.3-0.1,4.9-0.8c-0.5,1.8-0.5,3.7-0.1,5.6c-1.8-0.4-3.7-0.4-5.5,0.1
		C620.3,623.8,620.6,622.1,620.5,620.4z M632.4,607.1c1.7-0.1,3.3-0.5,4.8-1.3c-0.3,1.9-0.2,3.8,0.5,5.5c-1.8-0.2-3.7,0-5.5,0.7
		C632.6,610.5,632.7,608.8,632.4,607.1z M643.2,597.6c0.3-1.7,0.2-3.4-0.3-5c1.6-0.2,3.2-0.8,4.6-1.8c-0.1,1.9,0.2,3.8,1,5.5
		C646.7,596.3,644.9,596.8,643.2,597.6z M652.7,582.1c0.1-1.7-0.2-3.4-0.8-4.9c1.6-0.4,3.1-1.2,4.4-2.2c0.1,1.9,0.6,3.7,1.6,5.3
		C656,580.4,654.2,581.1,652.7,582.1z M670.2,590.6c-0.1-1.7-0.7-3.4-1.6-4.8c1.7-0.2,3.4-0.7,4.8-1.6c0.2,1.7,0.8,3.4,1.7,4.9
		C673.5,589.2,671.8,589.8,670.2,590.6z M692.5,513.3c-0.8-1.5-2-2.8-3.4-3.8c1.5-0.8,2.8-2,3.8-3.4c0.9,1.5,2.1,2.8,3.5,3.8
		C694.9,510.8,693.5,511.9,692.5,513.3z M664.8,392.3c-0.7,1.6-1.1,3.3-1.2,5c-1.6-0.7-3.2-1.1-5-1.1c0.7-1.6,1.1-3.3,1-5
		C661.3,392,663.1,392.3,664.8,392.3z M652.7,375.6c-0.6,1.6-0.8,3.4-0.6,5.1c-1.6-0.6-3.3-0.7-5.1-0.5c0.6-1.6,0.7-3.4,0.5-5.1
		C649.2,375.7,651,375.8,652.7,375.6z M638.9,360.3c-0.4,1.7-0.4,3.5-0.1,5.2c-1.7-0.4-3.4-0.4-5.1,0c0.4-1.7,0.4-3.4,0-5.1
		C635.4,360.7,637.2,360.7,638.9,360.3z M623.6,346.5c-0.2,1.7,0,3.5,0.5,5.2c-1.7-0.2-3.4,0-5.1,0.5c0.2-1.7,0-3.4-0.5-5.1
		C620.2,347.3,621.9,347,623.6,346.5z M606.9,334.4c0,1.7,0.3,3.5,1,5.1c-1.7,0-3.4,0.3-5,1c0-1.7-0.3-3.4-1.1-5
		C603.6,335.5,605.3,335.1,606.9,334.4z M589,324.1c0.2,1.7,0.7,3.4,1.5,4.9c-1.7,0.1-3.4,0.7-4.8,1.6c-0.2-1.7-0.7-3.4-1.6-4.8
		C585.8,325.5,587.5,324.9,589,324.1z M570.1,315.7c0.3,1.7,1,3.3,2,4.8c-1.7,0.3-3.3,1-4.6,2.1c-0.3-1.7-1.1-3.3-2.1-4.6
		C567.2,317.5,568.8,316.7,570.1,315.7z M433.6,317.9c-1,1.4-1.7,3-2.1,4.6c-1.4-1-3-1.7-4.6-2.1c1-1.4,1.7-3.1,2-4.8
		C430.3,316.8,431.9,317.5,433.6,317.9z M415,325.8c-0.9,1.5-1.4,3.1-1.6,4.8c-1.5-0.9-3.1-1.4-4.8-1.6c0.8-1.5,1.4-3.2,1.5-5
		C411.6,325,413.2,325.6,415,325.8z M397.3,335.6c-0.7,1.6-1.1,3.2-1.1,5c-1.6-0.7-3.3-1.1-5-1c0.7-1.6,1-3.3,1-5.1
		C393.8,335.2,395.5,335.6,397.3,335.6z M380.7,347.2c-0.6,1.6-0.7,3.3-0.5,5.1c-1.6-0.6-3.4-0.7-5.1-0.5c0.5-1.7,0.7-3.4,0.5-5.2
		C377.2,347.1,378.9,347.3,380.7,347.2z M365.4,360.5c-0.4,1.7-0.4,3.4,0,5.1c-1.7-0.4-3.4-0.4-5.1,0c0.3-1.7,0.3-3.5-0.1-5.2
		C361.9,360.8,363.7,360.8,365.4,360.5z M351.6,375.2c-0.2,1.7,0,3.4,0.5,5.1c-1.7-0.2-3.4,0-5.1,0.5c0.1-1.7-0.1-3.5-0.6-5.1
		C348.1,375.9,349.9,375.7,351.6,375.2z M339.4,391.4c0,1.7,0.3,3.4,1,5c-1.7,0-3.4,0.3-5,1.1c0-1.7-0.4-3.5-1.2-5
		C336,392.4,337.7,392.1,339.4,391.4z M334.3,607.1c0.7-1.6,1.1-3.3,1.2-5c1.6,0.7,3.2,1.1,5,1.1c-0.7,1.6-1.1,3.3-1,5
		C337.8,607.4,336.1,607,334.3,607.1z M346.5,623.7c0.6-1.6,0.8-3.4,0.6-5.1c1.6,0.6,3.3,0.7,5.1,0.5c-0.6,1.6-0.7,3.4-0.5,5.1
		C350,623.7,348.2,623.5,346.5,623.7z M360.3,639.1c0.4-1.7,0.4-3.5,0.1-5.2c1.7,0.4,3.4,0.4,5.1,0c-0.4,1.7-0.4,3.4,0,5.1
		C363.7,638.6,362,638.7,360.3,639.1z M375.6,652.9c0.2-1.7,0-3.5-0.5-5.2c1.7,0.2,3.4,0,5.1-0.5c-0.2,1.7,0,3.4,0.5,5.1
		C379,652.1,377.3,652.3,375.6,652.9z M392.3,665c0-1.7-0.3-3.5-1-5.1c1.7,0,3.4-0.3,5-1c0,1.7,0.3,3.4,1.1,5
		C395.6,663.9,393.9,664.2,392.3,665z M410.2,675.3c-0.2-1.7-0.7-3.4-1.5-4.9c1.7-0.1,3.4-0.7,4.8-1.6c0.2,1.7,0.7,3.4,1.6,4.8
		C413.3,673.8,411.7,674.4,410.2,675.3z M429,683.7c-0.3-1.7-1-3.3-2-4.8c1.7-0.3,3.3-1,4.6-2.1c0.3,1.7,1.1,3.3,2.1,4.6
		C432,681.9,430.4,682.6,429,683.7z M565.6,681.4c1-1.4,1.7-3,2.1-4.6c1.4,1,3,1.7,4.6,2.1c-1,1.4-1.7,3.1-2,4.8
		C568.9,682.6,567.3,681.8,565.6,681.4z M584.2,673.6c0.9-1.5,1.4-3.1,1.6-4.8c1.5,0.9,3.1,1.4,4.8,1.6c-0.8,1.5-1.4,3.2-1.5,5
		C587.6,674.3,585.9,673.8,584.2,673.6z M601.9,663.8c0.7-1.6,1.1-3.2,1.1-5c1.6,0.7,3.3,1.1,5,1c-0.7,1.6-1,3.3-1,5.1
		C605.4,664.2,603.7,663.8,601.9,663.8z M618.5,652.2c0.6-1.6,0.7-3.3,0.5-5.1c1.6,0.6,3.4,0.7,5.1,0.5c-0.5,1.7-0.7,3.4-0.5,5.2
		C622,652.2,620.2,652,618.5,652.2z M633.8,638.9c0.4-1.7,0.4-3.4,0-5.1c1.7,0.4,3.4,0.4,5.1,0c-0.3,1.7-0.3,3.5,0.1,5.2
		C637.3,638.6,635.5,638.6,633.8,638.9z M647.6,624.1c0.2-1.7,0-3.4-0.5-5.1c1.7,0.2,3.4,0,5.1-0.5c-0.1,1.7,0.1,3.5,0.6,5.1
		C651,623.4,649.3,623.6,647.6,624.1z M659.8,607.9c0-1.7-0.3-3.4-1-5c1.7,0,3.4-0.3,5-1.1c0,1.7,0.4,3.5,1.2,5
		C663.1,606.9,661.4,607.3,659.8,607.9z"/>
	<path class="st0" d="M909,518.5c6.5-2.5,13-5.2,19.4-7.9c4.2-1.8,15.5-4.4,15.3-10.3c-0.4-0.5-1.2-1.8-2.4-2.9
		c-1.9-1.9-4.9-3.3-6.7-4.5c-4.2-2.8-8.5-5.5-12.9-8c-8.9-5.1-18.1-9.7-27.6-13.7c7.7-0.5,14.5-2.6,20.2-6.1c2-1.2,2.9-3.7,2.1-5.9
		c-2.4-6.6-6.9-12.7-13-17.6c-4.9-3.9-10.9-7.1-17.2-9.1c-10.6-3.4-21.4-3.8-29.7-3.8c-2.6,0-5.3,0-8.9,0.2
		c-4.1,0.1-8.2,0.3-12.3,0.5c27.8-10.7,52.6-29.2,70.6-53c1.8-2.4,4.5-5.2,5.5-8.1c1-2.8-0.4-5.8-3.3-6.6
		c-5.5-1.5-11.5-2.3-17.6-2.3c-11.2,0-23.2,2.5-35.7,7.4c2.3-1.2,4.8-4.6,6.6-6.3c2.4-2.3,4.7-4.7,7-7.1c4.7-5,9.1-10.2,13.3-15.5
		c4.1-5.3,7.9-10.7,11.5-16.4c2.4-3.8,9.7-12.1,5.3-16.4c-3.4-3.5-10.3,0.5-14.1,1.6c-5.8,1.7-11.7,3.2-17.6,4.5
		c-12,2.7-24.1,4.7-36.2,6.7c-6.1,1-12.3,2-18.4,3.2c10.5-7.7,19.9-18.8,28.1-33.4c4.8-8.6,8.9-17.6,12.9-26.3
		c2.3-5.1,4.6-10.2,7.1-15.3c1.7-3.5,5.7-8.2,2.3-11.9c-3.8-4.1-11.4,1.1-15.5,2.4c-6.8,2.2-13.6,4-20.5,5.7
		c-4.5,1.2-9.2,2.4-13.8,3.7c-9.7,2.8-21.2,6.6-31.8,13.2c7.5-12.1,13.9-25.2,16.3-39.7c0.8-4.9,1.4-14-4.1-19.9
		c-1-1.1-2.2-2.1-3.5-2.8c-2.3-1.3-4.9-1.9-7.7-1.9c-3.7,0-7.2,1-10.5,2.1c-23.7,8-44.1,17-61.9,27.5c5.8-8.3,9.6-17.6,13.3-26.6
		c4.9-11.9,9.9-23.8,13.1-36.3c1.7-6.6,3-13.3,3.5-20.2c0.3-3.4,0.3-6.8,0.2-10.2c-0.1-2.8,0.4-6.3-1.4-8.7c-1.6-2.1-4.4-3-6.7-1.6
		c-2.7,1.6-5.1,3.5-7.4,5.5c-1,0.8-1.9,1.6-2.9,2.3c-4.2,3.2-8.7,6.8-13.2,10.7c-6.5,5.6-12.9,11.5-19.1,17.6
		c3.4-12,2.3-24,0.4-32.7c-2.8-12.7-8.2-24.8-13.8-36.5c-1.9-3.9-7.3-7-9.9-1.8c-10.6,21-21.8,42.1-33.4,62.7
		c-4.1,7.2-8.2,14.5-12.4,21.6c-1.4,2.4-2.9,4.9-4.3,7.3c-0.3-11.2-1.2-23-2.5-35.8c-1.1-10.5-2.5-21.6-7-31.7
		c-4.1-9.2-11.2-18.6-20.9-22.2c-3.9-1.5-7.3-2.2-10.1,1.1c-3,3.6-5.3,8-7.7,12c-0.5,0.8-0.8,1.3-0.9,1.5
		c-6.6,10.4-14.3,23-21.2,36.6c1.5-12.7,1.3-25.5,0.3-38.2c-0.5-6.6-1.3-13.2-2.1-19.8c-0.5-4.1,0.1-13.6-4.5-15.6
		c-2.5-1-5.5,0.2-6.6,2.6l-28.5,67.8c-0.1,0.2-0.2,0.5-0.3,0.7c-3.3-9.3-7.3-18.3-12-27c-4.3-7.9-9.1-17.4-15.3-24
		c-0.9-1-2.2-1.8-3.5-1.9c-2.1-0.2-4,1.2-5.2,2.9c-1.3,2-1.8,4.6-2.8,6.8c-1.3,2.8-2.3,5.6-3.5,8.4c-2.4,5.9-4.8,11.8-7.1,17.7
		c-4.7,12-9,24.2-12.6,36.5c-2.1,7.1-3.7,13.7-5,20c-1.7-4-4.1-7.7-6.5-11.4c-5.8-8.7-12-17.3-18.4-25.7c-3.2-4.2-6.5-8.3-9.8-12.4
		c-0.8-0.9-1.6-2-2.4-3.2c-2.6-3.5-7.3-11.6-12.6-10c-7.5,2.2-3,18.5-2.3,23.8c0.4,2.7,0.8,5.3,1,7.8c0.4,4.1,1.2,11.6,1.2,11.6
		s-6.5-6.4-8-7.8c-2.8-2.6-5.7-5.1-8.7-7.5c-5.8-4.7-12-9-18.4-12.9c-12.7-7.6-26.4-13.5-40.7-17.4c-3-0.8-7.1-2.6-10.2-1.7
		c-3.6,1-4.7,5.6-2.1,8.2c8.2,8.2,23.6,28,36.6,70.4c-14.6-10.6-30.3-19.6-47.1-26.9c-16-7-32.8-12.5-50-16c-2.2-0.5-3.8-0.7-6,0.1
		c-2.4,0.9-3.6,3.5-3,5.9c0.8,3.3,2.5,6.4,3.9,9.2c0.6,1.1,1.1,2.1,1.6,3.1c1.8,3.9,3.7,7.7,5.6,11.6c3.9,7.9,7.9,15.8,12,23.6
		c-13.2-7-26.7-13.4-40.6-19.1c-1.7-0.7-3.4-1.4-5.1-2.1c-2.3-0.9-4.6-2.2-7-2.5c-3.1-0.4-6,1.6-6,4.9c-0.1,8,1.7,29.3,18.8,64.2
		c-3.7-1.8-7.5-3.6-11.2-5.3c-6.3-2.9-12.8-5.6-19.3-8.1c-6-2.3-12.1-5.1-18.3-6.6c-2.3-0.6-5-0.9-6.9,0.5c-1.5,1-2.3,2.9-2.5,4.7
		c-0.2,1.8,0.1,3.6,0.5,5.4c3.1,14.8,8.1,29.5,14.2,43.3c6.6,14.9,14.8,29.1,24.4,42.2c1.1,1.4,2.1,2.9,3.2,4.3
		c3.1,4.1,6.6,8.2,10.6,11.8c-8.5-1.7-17.1-3-25.8-4.1c-13.5-1.6-27.4-2.4-41.4-2.4c-24.2,0-42.7,2.3-51.7,3.8
		c-1.6,0.3-3.1,1.2-3.9,2.7c-1.1,2.2-0.4,4.8,1.5,6.2c13.5,10,49.5,35.8,92.5,59.8c3.5,2,7.1,3.9,10.6,5.8
		c-6.8-0.2-13.7-0.4-20.5-0.4c-23.2,0-46.7,1.4-69.8,4.1c-13.2,1.5-24.1,3.1-34.2,5c-1.5,0.3-2.8,1.1-3.6,2.4
		c-1.3,2.2-0.8,4.8,1,6.3c23.3,20.1,49.4,36.7,77.5,49.3c8,3.6,16.5,7,25.7,8.1c-22.1,7.3-45.7,19.6-71.8,37.4
		c-12.4,8.4-24.3,17.8-35.4,27.7c-1.2,1.1-1.9,2.6-1.8,4.2c0.2,2.4,2,4.3,4.3,4.6c20.9,3,44.7,6.4,68.2,6.4c13.6,0,26-1.2,37.6-3.5
		c-24.2,11.7-44.1,19.9-63.6,26.1c-6.7,2.1-13.6,4.2-20.4,6c-1.4,0.4-2.7,1.3-3.3,2.6c-1.1,2.2-0.5,4.8,1.4,6.2
		c14.4,11.3,30.9,16.7,45.9,19.1c-14.5,8.3-25.3,15.2-30.9,18.9c-1.4,0.9-2.3,2.4-2.4,4c-0.1,2.5,1.6,4.6,3.8,5.1
		c12.4,2.9,45.8,9.8,86.8,9.8c2.2,0,4.5,0,6.8-0.1c0.6,0,1.2,0,1.8,0h1.9c1.7,0,3.4,0,5.2-0.2c-11.8,11.6-22.8,24-32.7,37.2
		c-3.9,5.1-7.6,10.4-11.2,15.7c-1.8,2.7-3.5,5.4-5.2,8.1c-1.6,2.5-2.9,5.2-4.6,7.6c-1.2,1.7-2.4,3.3-3,5.2c-0.6,1.9-0.6,4.2,0.6,5.8
		c2.1,2.8,6.3,1.2,9.1,0.6c3.8-0.8,7.6-1.6,11.4-2.4c7.9-1.7,15.7-3.6,23.5-5.6c16.4-4.2,32.6-9.1,48.5-15.1
		c7.6-2.9,15.1-6,22.5-9.3c-4.8,6.7-7.5,14.4-10.2,22c-1.6,4.6-3.2,9-5.1,13.1c-4.2,8.7-10.2,16.2-16.7,24.1c-2.5,3-5,6.2-7.4,9.4
		c-11.5,15.1-16.7,28.8-16.1,41.6c0.3,5.2,7.8,6.9,9.7,1.7c6.4-17.3,20.7-32.6,42.6-45.5c10.5-6.2,21.9-11.4,33-16.4
		c-4,5.2-7,11-9.8,16.3c-16.8,31.8-35.8,67.8-41.2,106.4c-0.2,1.1,0,2.3,0.6,3.3c0.9,1.7,2.6,2.6,4.4,2.6c0.4,0,0.7,0,1.1-0.1
		c10.5-2.4,20.8-6.6,30.8-12.6c14.1-8.5,27.3-20.3,39.2-35c13-16.1,23.2-34.2,32.8-52.3c-0.6,2.2-1.3,4.4-1.8,6.7
		c-10.2,39.6-10.1,81.4,0.5,120.9c0.6,2.1,2.5,3.6,4.7,3.6c0.1,0,0.1,0,0.2,0c2.1,0,4.1-1.4,4.7-3.4c4.4-13.2,13.4-24.1,23-35.7
		c8.1-9.8,16.4-19.8,21.7-31.5c0.5,19.1,2.9,38.7,7.2,58.2c0.4,1.6,1.4,3.1,3,3.7c0.6,0.3,1.3,0.4,2,0.4c1.6,0,3.1-0.8,4.1-2.1
		c20.2-28,37.4-58.1,51.5-89.6c-0.9,16.9-3.1,34.9-6.6,52.6c-2.6,13.6-6,27.1-10.1,40.3c-1.3,4.1-2.6,8.2-4.1,12.2
		c-0.7,1.8-1.4,3.5-2.1,5.3c-0.7,1.7-2,3.4-2.5,5.1c-0.2,0.7-0.1,1.5,0.4,2s1.3,0.5,2,0.5c8.3-0.4,15.3-6.3,21.1-11.7
		c9.6-8.9,16.2-19.9,20.9-28.4c6.8-12.5,12.3-25.6,16.6-39.6c5,24.9,12.4,51,21.9,77.9c1.3,3.7,5.8,4.2,8.4,1.5
		c2.9-3,4.4-8.8,6.1-12.7c2-4.7,4-9.5,5.8-14.2c2.2-5.7,4.4-11.5,6.4-17.4c1.2-3.3,2.3-6.7,3.3-10c0.5-1.5,3.9-9,3.1-10.2
		c9.7,15.8,21.8,29.1,35.8,39.2c0.9,0.6,1.9,0.9,2.9,0.9c0.8,0,1.6-0.2,2.3-0.6c1.5-0.8,2.5-2.4,2.7-4.2c1.2-11.7,2.3-23.5,3.3-35.3
		c6,19.6,18.5,36.5,29.7,51.6c0.9,1.3,2.4,2,4,2c0.1,0,0.2,0,0.3,0c1.7-0.1,3.2-1,4-2.5c12.7-21.8,14.8-47.7,16.6-70.6
		c0.6-7.8,1.3-16.4-0.1-25c1.9,2.5,3.8,5.1,5.7,7.6c9.2,12.4,18.8,25.2,27.5,38.1c1.4,2.1,4.1,3,6.4,1.9c3.8-1.8,2.7-5.9,2.2-9.2
		c-0.7-4.4-1.4-8.8-2.1-13.2c-1.5-8.8-3.1-17.6-4.9-26.3c-3.5-17.5-7.6-34.9-12.1-52.2c-3.4-12.9-7.1-25.8-11.1-38.6
		c0.7,2.2,5.7,5.3,7.4,6.8c2.7,2.3,5.4,4.5,8.2,6.7c5.8,4.4,11.8,8.4,18.1,12c13.3,7.7,27.6,13.9,42.3,18.3c3.8,1.2,8,3.6,11.8,1.9
		c0.7-0.3,1.3-0.8,1.8-1.4c2.9-3.5-0.9-6.9-3.1-9.4c-2.8-3.2-5.7-6.4-8.4-9.6c-7.1-8.4-14-17-20.4-25.9c9.7,6.3,20,11.8,30.7,16.4
		c5.3,2.3,10.8,4.4,16.3,6.2c5.1,1.7,10.7,4,16,4.7c1.5,0.2,3,0,4.2-0.7c4.5-2.5,1.8-7.5,0.7-10.9c-1.5-4.8-3.2-9.6-5-14.3
		c5.7,4.8,12.8,8.6,21.1,11.4c5.7,1.9,11.5,3.2,17.4,4.2c3.9,0.7,12.1,3.6,15.6,1c4.8-3.6-0.1-11.7-1.7-15.9
		c-2.4-6.4-5-12.6-7.7-18.8c-5.6-12.5-12-24.7-19.1-36.4c8.9,1.4,17.9,2.1,26.7,2.1c7.3,0,14.7-0.5,21.9-1.5
		c4.2-0.6,17-2.4,10.8-9.5c-4.7-5.4-14.3-15.8-28-27.8c23.2-1,47.6-4.4,72.5-10.3c1.6-0.4,3-1.4,3.6-2.9c1-2.2,0.2-4.8-1.7-6.1
		c-22.4-15.7-45.6-32-71.6-42.8c27.7,3.3,54.1,4.9,76.1,6c0.1,0,0.2,0,0.2,0c2.4,0,4.5-1.7,4.9-4.2c0.3-1.7-0.4-3.4-1.6-4.6
		c-10.2-9.8-20.8-20-32.9-28.2c-11.2-7.7-22.5-12.7-33.6-15.1c3.1-0.7,6.3-1.5,9.5-2.4C885.3,527,897.3,523,909,518.5z M871.6,672.9
		c-19.5,3.6-39.5,3.5-59.3-0.2c-8.2-12.9-17.3-24.5-26.9-34.8c11.3,1.9,23.2,3.1,35.1,3.6c6.3,0.3,12.8,0.4,19.3,0.3
		C855.7,655.4,866.9,667.6,871.6,672.9z M826,534.9c-39.1,3.7-79.9-2.5-113.7-22.5c-0.4-0.3-0.8-0.5-1.2-0.7c2.3,2.2,3.8,5.1,4,8.4
		c7,1.7,13.4,5.2,20,8.1c26.8,12,57.1,14.2,86.3,11.2c11.2-1.1,22.4-3,33.6-2c1.1,0.1,2.2,0.2,3.3,0.4c12.8,2,25.1,7.8,35.9,15.1
		c11.8,8,22.1,17.9,32.4,27.8c-40.6-2-81.1-5.3-121-12.8c-32.2-6.2-64-15.1-94-28.1c0.3,1.6,0.3,3.2-0.1,4.8
		c-0.1,0.3-0.2,0.6-0.2,0.8c20.7,8.7,42.1,15.5,63.9,20.5c20.8,4.7,42.2,7.6,62.4,14.5c2.6,0.9,5.2,1.9,7.8,2.9
		c26.5,10.4,50.2,26.9,73.5,43.3c-40,9.4-81.5,13.4-122.2,8.3c-20.3-2.6-40.4-7.4-59.6-14.8c-9.8-3.8-19.4-8.2-28.6-13.4
		c-4.6-2.6-9.1-5.3-13.5-8.2c-1.8-1.2-3.9-2.5-5.9-3.8c-0.7,0.2-1.3,0.3-2,0.4c1,1.7,1.7,3.7,1.8,5.7c24.6,12.9,55.2,27.4,69.3,31
		c7.1,1.8,14.6,3.3,20.7,7.3c5.1,3.3,9,8.1,12.7,12.9c21.7,28.1,38.7,59.8,50.1,93.5c-9.6-1.4-19.3-2.8-28.6-5.9
		c-9.2-3.1-18.1-8-24.4-15.4c-5.4-6.3-8.8-14-12.5-21.4c-2.3-4.5-4.7-8.9-7.3-13.2c-16.1-27-39.2-51.2-66.3-67.3
		c-6-3.6-11.9-7.5-17.6-11.6c-1.4,1.3-3,2.3-4.8,2.9c23.7,11.2,44.9,27.6,62.2,47.3c23.3,26.7,39.7,59.1,49.8,93
		c-30.4-7.3-59-21.8-82.8-42.1c0,0,0.1,0.1,0.2,0.1c-0.3-0.2-0.6-0.5-0.9-0.8c-21.1-17.8-38.7-39.6-51.8-63.8
		c-1.5,0.8-3.2,1.2-4.8,1.3c16.1,29.8,37.5,54.7,63.7,74.3c12.2,19.8,30.8,40.9,39.5,50.5c-35.3-9.8-63.9-25.9-85.1-48.1
		c-9.1-25.2-19.6-45.9-31.3-61.9c-2.1,0.5-4.3,0.4-6.4-0.2c4.1,5.3,7.8,10.7,11.1,16.5c8.1,14.3,13.6,29.9,18.7,45.5
		c14.9,46.2,26.1,93.6,33.3,141.6c0-0.1-0.1-0.1-0.1-0.2c-23.6-34.8-51.3-66.8-72.1-103.3c-8.2-14.4-15.2-29.5-20.3-45.3
		c-3.2-9.9-5.6-20.1-7.1-30.5c-0.3-0.2-0.6-0.3-0.9-0.5c-0.2,2.2-1,4.4-2.3,6.2c4.3,34.6,20.1,67.2,40.9,95.4
		c7.3,10,15.5,19.9,18.6,31.9c2.4,8.9,1.6,18.4,0.9,27.7c-1.9,23.6-4.1,48-15.9,68.5c-12.9-17.5-26.2-35.6-30.7-56.9
		c-0.4-2.1-0.8-4.1-1.1-6.2c-2.3-17.5,0.5-35.4,0-53.1c-1.1-36.4-16.2-70.7-30.5-104.4c-0.4,1.8-1.1,3.4-2.2,4.9
		c10.9,25.7,19.9,52.1,24.2,79.7c6.4,40.4,2.4,81.7-1.7,122.4c-35-25.1-53.8-68.1-59.1-110.9c-1.5-12.3-2-24.8-1.9-37.2
		c0.2-14.7,1.4-29.5,3.1-44.1c-1.8-0.7-3.4-1.8-4.7-3.2c-2,15.6-3.3,33.9-3.1,53.2c0.4,31.4,5.2,59.1,14.2,82.3
		c2.6,6.8,5.7,13.3,9.1,19.4c-8.9,31.6-19.9,56.3-24.8,66.6c-10.8-30.3-18.8-59.8-23.7-87.4c10.5-42.6,8.9-93.5,5.2-130.5
		c-1,1.4-2.4,2.5-3.9,3.3c0.2,2.2,0.4,4.4,0.5,6.7c0.1,2.2,0.2,4.3,0.2,6.5c0,15.6,1.6,31.3,1.3,47c-0.2,10.4-0.8,20.9-1.9,31.3
		c-3.2,29.7-10.9,57.8-25.3,84c-5.4,9.8-11.6,19.5-19.9,27.2c-2.6,2.4-5.3,4.5-8.1,6.5c-2,1.4-6.1,2.4-7.3,4.5
		c7.9-12.7,15-39,19.1-60.1c4.3-22.4,6.8-45,7.1-65.5c13.3-31.3,21.7-60.3,25.1-86.9c-1.8-0.5-3.5-1.3-4.9-2.5
		c-2.7,26.3-9.7,52.2-20.7,76.3c-15.4,39.6-35.8,77.3-60.6,111.7c-9.4-42.9-10.3-88.1,0.8-130.6c4.5-17.4,11.1-34.3,19.7-50.1
		c2.7-5,5.7-10,8.8-14.8c-1.7,0.4-3.4,0.5-5.2,0.2c-20,29.3-31.1,64.4-34,99.8c-0.7,8.8-0.9,17.7-3.2,26.2
		c-8,29.6-38.8,48.4-48.5,77.5c-10.3-38.5-10.5-79.7-0.5-118.3c9.8-37.9,29.4-73.3,56.3-101.8c-0.2-0.8-0.4-1.6-0.5-2.4
		c-1.5,0.9-3.1,1.5-4.8,1.7c-1.1,1.1-2.2,2.3-3.2,3.4C377,712.5,363.7,737,351,761.6c-12.8,24.5-25.1,49.5-42.4,71
		c-10.6,13.2-23.4,25.2-37.8,33.9c-9.1,5.5-18.9,9.6-29.3,12c5.2-37.4,23.1-71.6,40.7-104.9c4-7.5,8-15.1,14.2-20.9
		c7.4-7,17.2-10.7,26.3-15.3c26.4-13.4,48.5-35.1,62.3-61.2c-1.7,0.8-3.6,1.2-5.4,1.2c-15.4,26.2-40.4,46.1-67.5,60.3
		c-19.7,10.4-40.9,18.1-60.1,29.4c-19.3,11.3-37,27.1-44.8,48.1c-0.8-14.1,6.6-27.3,15.1-38.6s18.5-21.6,24.6-34.3
		c6.1-12.8,8.3-27.9,18-38.2c5.9-6.3,14-9.9,21.6-13.9c3.7-2.4,7.9-4.2,11.7-6.5c13.7-8.1,26.6-17.5,38.5-28
		c2.7-2.4,5.3-4.9,7.9-7.4c-1.7-0.5-3.3-1.3-4.7-2.4c-19.4,18.8-42,34.3-66.5,45.7c-39.3,21.3-83.1,32.9-127,41.9
		c1.7-3.1,3.5-6.2,5.4-9.2c15.4-25.4,34.4-48.6,56.1-68.9c10.9-10.1,22.4-19.5,34.5-28.1c11.3-8,23.6-17,36.8-21.2
		c7.8-2.5,15.1-6,23-8.1c3.1-0.8,6.3-1.5,9.4-2.2c0.1-0.2,0.2-0.4,0.4-0.6c-2.6-0.2-5-1.3-7-2.9c-8.1,1.9-16.2,4.5-24.3,7.7
		c-0.1,0.1-0.3,0.1-0.4,0.2c-14.6,5.9-28.3,13.8-41.2,22.8c-7,4.9-13.7,10.2-20.2,15.7c-4.2,3.6-7.6,8.2-12.4,11.1
		c-0.8,0.5-1.6,0.9-2.4,1.2c-4.5,1.7-9.5,1.3-14.3,1.4c-43.8,0.8-80.3-6.7-92.3-9.6c6.7-4.4,19.5-12.6,36.7-22.2
		c2.1,0.3,3.9,0.4,5.7,0.6c4.7,0.4,11.3,0,19.5-1.1c33.8-4.4,92-20.7,141.2-35.6c-0.3-2-0.1-4,0.5-5.9
		c-24.4,7.3-48.9,14.6-73.3,21.8c-24.1,7.2-48.5,14.4-73.7,15.7c-25.2,1.3-51.5-4-71.3-19.5c7-1.9,13.9-3.9,20.8-6.1
		c25.5-8.1,49.2-18.8,73.1-30.7c15.2-7.6,30.8-14.3,47.2-18.8c12.7-3.5,25.7-5.6,38.8-6.7c9.1-0.8,18.4-1,27.7-0.7
		c0.3-0.3,0.6-0.7,1-1c-1.7-0.8-3.2-1.9-4.5-3.2c-22.8,0.3-45.6,0.6-67.1,6.9c-14.1,4.1-27.4,10.7-41.4,15.1
		c-37.9,11.5-78.6,5.9-117.8,0.3c11.1-9.9,22.8-19,35-27.4c26-17.7,55.4-34.3,86.3-41.2c10.1-3.6,20.5-6.4,31-8.3
		c23.1-4.2,48.1-5,71.6-0.8c0.6-1.7,1.6-3.2,2.8-4.4c-27.6-4.9-56.1-4.2-83.4,2.3c-12.3,2.9-24.6,7-37.2,5.9c-9-0.7-17.5-4-25.7-7.7
		c-27.6-12.4-53.4-28.8-76.3-48.6c11.3-2.1,22.7-3.6,34.1-5c35.7-4.2,71.7-5.1,107.5-2.8c22.3,1.4,44.6,4.2,66,10.6
		c7.2,2.2,14.3,4.8,21.2,7.9c0.6-1.6,1.4-2.9,2.5-4.1c-8.3-3.7-17.5-6.9-27.4-9.6c-19.8-5.4-42.9-8.8-68.7-10.2
		c-6.5-3.3-13.1-6.9-19.7-10.5c-43.4-24.2-80.1-50.6-91.9-59.4c12-1.9,48.2-6.5,91.9-1.4c28.5,3.3,57,10.5,83.4,21.8
		c14.2,6.1,27.8,13.3,40.7,21.8c3.5,2.3,7,4.7,10.4,7.3c1.4-1.2,3.1-2,4.9-2.4c-24.7-18.6-52.9-32.8-82.6-41.2
		c-7.7-2.2-15.7-4.1-22.4-8.4c-5.8-3.7-10.4-9.1-14.6-14.6c-1.1-1.4-2.1-2.8-3.2-4.2c-9.4-12.8-17.4-26.7-23.8-41.3
		c-3.2-7.3-6-14.7-8.4-22.3c-1.2-3.8-2.3-7.6-3.3-11.5c-0.9-3.6-2.6-7.9-2.7-11.6c-0.1-4.1,5-1,7.5-0.2c3.7,1.3,7.3,2.6,11,4
		c7.3,2.8,14.5,5.8,21.5,9c14.2,6.4,28,13.6,41.3,21.7c26.5,16,51.2,35.1,73.2,56.8c9.9,9.7,19.3,20.1,26.9,31.6
		c1.2-0.9,2.6-1.7,4-2.1c-23.9-37.2-62.2-66.2-94.3-85.7c-9.3-5.7-19.2-11.2-29.4-16.5c-20.5-38.8-22.2-62-22.1-69.3
		c7.7,2.8,31.1,11.9,58.7,27.2c6.7,12.3,13.5,24.2,20.2,35.5c19.1,31.8,45.4,71.2,74.3,100.5c0.6-1.4,1.6-2.7,2.7-3.8
		c-1.9-1.9-3.8-3.8-5.7-5.8c-11.2-12-21.2-25.1-30.8-38.4c-12.8-17.8-24.9-36.1-36.3-54.8c-8.8-14.5-17.2-29.3-25.2-44.3
		c-4.1-7.7-8-15.3-11.7-22.9c-1.9-3.8-3.7-7.6-5.5-11.5c-1.7-3.6-4.2-7.6-5.2-11.4c3-1.2,10.2,1.8,13.4,2.6
		c4.4,1.1,8.8,2.3,13.2,3.7c8.7,2.7,17.3,5.9,25.6,9.5c27.7,12.1,53.2,29.3,74.7,50.7c24,23.9,42.8,52.9,55.2,84.4
		c1.8-0.1,3.7,0.3,5.3,1c-8.9-23.8-20.9-45.5-35.6-64.6c-12.5-16.3-27.2-31-43.7-43.7c-13.6-47.5-30.4-69.8-40-79.4
		c33,7.3,61.8,24.5,85.8,51.1c1.9,13.9,4.1,27.4,6.6,40.1c7.8,39.7,18.1,71.3,30.7,94.6c0.9-1.8,2.3-3.3,3.9-4.5
		c-11.1-20.2-19.2-42.2-24.9-64.6c-0.6-2.4-1.2-4.8-1.8-7.2c-4.1-17.3-6.9-34.8-9.2-52.5c-1.1-8.8-2.1-17.7-3-26.5
		c-0.7-8.5-2.9-18-2.3-26.4c3.8,2.7,6.9,7.9,9.9,11.6c3.3,4,6.5,8.1,9.7,12.3c6.3,8.3,12.4,16.8,18.2,25.4c3,4.5,6,9.2,7.4,14.4
		c3.7,13.7-3.9,28.3-2.1,42.4c-0.8,23.5,3.7,47.1,13.1,68.7c0.4,0.9,0.7,1.7,1.1,2.6c0.7-1.9,1.9-3.5,3.4-4.9
		c-1.5-4.6-2.9-9.2-4.1-13.8c-2.7-10.3-4.6-20.8-5.9-31.4c-1.1-10.4-1.5-21.1-1.3-31.7c0.3-10.7,1.3-21.3,3-31.8
		c1.4-8.2,3.4-16.4,5.7-24.4c6.5-22.2,15.3-43.6,24.2-64.8c0.2-0.4,1.9-3.9,1.7-4.1c14.1,18.7,24.4,40.1,30.8,62.6
		c3.8,13.6,6.2,27.7,7.1,41.8c2,30.5-2.8,61.2-12.8,90.1c0.8-0.1,1.5-0.2,2.3-0.2c1.1,0,2.1,0.1,3.2,0.4c2.3-6.8,4.3-13.7,5.9-20.7
		c4.9-20.6,7-41.8,6.4-62.9c-0.3-10.6-1.3-21.1-3-31.5c-0.9-5.2-1.9-10.4-3.1-15.5c-0.6-2.6-1.3-5.1-1.9-7.7
		c-0.9-2.8,0.4-4.7,1.5-7.2c7.2-17.1,14.4-34.3,21.6-51.4c2.3-5.4,4.6-10.9,6.9-16.3c3.1,22.6,5.9,45.5,3.3,68.2
		c-3.9,34.2-20,66.3-21.9,100.6c-0.7,13.6,0.8,27.3,1,40.9c0,1.4,0,2.9,0,4.3c0.9-0.1,1.8-0.1,2.7,0c1.1,0.1,2.1,0.4,3,0.7
		c0-0.1,0-0.2,0-0.3c-3.1-23-1.7-46.4,2.1-69.2c1.9-11.5,4.5-22.9,7.4-34.2c1.4-5.4,2.7-10.7,4.7-16c7.7-21.1,19.3-41.2,31.3-60
		c0.8-1.3,8.3-14.1,9.2-13.9c9.9,2.9,17.5,11.3,21.7,20.8c4.2,9.4,5.5,19.9,6.6,30.2c1.4,14.1,2.4,28.4,2.6,42.6
		c0.4,28.6-2.4,57.1-11,84.3c-3.6,11-8.1,21.8-13.8,32c0.6,0.2,1.1,0.4,1.7,0.6c1,0.4,1.9,1,2.7,1.6c4.4-8.7,8.2-17.7,11.4-26.8
		c7.4-20.9,11.8-42.7,13-64.8c0.3-5.5,0.5-11,0.4-16.5c0-2.3-0.7-5.4,0-7.6c0.7-2,2.5-4,3.6-5.8c1.8-3,3.6-6.1,5.4-9.1
		c4.2-7.2,8.4-14.4,12.5-21.7c11.7-20.7,22.8-41.7,33.5-62.9c5.8,12,11.6,24.1,14.4,37.1c2.8,13,2.5,27.2-3.7,38.9
		c-3.9,7.4-9.9,13.5-15.5,19.7c-32.9,36.3-56.9,80.5-69.4,127.8c1.6-0.8,3.4-1.3,5.2-1.3c4.2-16.1,9.7-32,17-46.8
		c9-18.2,19.5-35.7,31.3-52.3c11.4-16,23.9-31,37.5-45.1c7.8-7.9,16.1-15.7,24.6-23.1c4.2-3.6,8.6-7.1,13-10.5
		c3.1-2.4,6.3-5.4,9.7-7.4c0.2,0.6,0.2,1.2,0.3,1.8c0.1,0.6,0.1,1.2,0.2,1.7c1.7,23.5-7.4,45.9-16.3,67.2c-4.1,10-8.4,20.1-15,28.6
		c-8.4,10.7-20,18.2-30.3,27.1c-14.8,12.7-27.1,28.4-35.7,45.9c-4.3,8.5-7.6,17.5-12.2,25.8c0.6,0.3,1.2,0.7,1.7,1.1
		c0.9,0.7,1.7,1.5,2.4,2.3c2-7,4.8-13.8,8.5-20.1c2.4-4.1,4-8.5,6.4-12.6c2.5-4.4,5.3-8.6,8.3-12.7c11.9-16.3,26.7-30.4,43.2-42
		c23.5-16.6,50.1-28.5,77.5-37.6c4.6-1.6,10-3,14.2-0.6c0.9,0.5,1.6,1.1,2.3,1.8c3.5,3.8,3.7,10.3,2.8,15.7
		c-3.1,18.5-13.1,35-23.9,50.4c-13.9,19.8-29.5,38.7-48.2,54.1c-17.8,14.6-38.7,25.8-61.2,30.4c0.5,0.4,0.9,0.8,1.4,1.3
		c0.9,0.9,1.5,2,2,3c1.4-0.4,2.9-0.7,4.3-1.1c34.4-10.3,65.3-31.8,86.9-60.5c1.1-1.4,2.1-2.9,3.2-4.3c5-7,9.9-14.2,16.2-20.1
		c11.1-10.8,26.1-16.8,41.2-21.1c15-4.3,30.5-7.3,44.9-13.3c-8.3,15.6-14.5,32.3-23.1,47.7c-8.7,15.4-20.3,29.8-36.3,37.5
		c-8.7,4.2-18.2,6.2-27.5,8.6c-34.3,8.8-67.1,23.1-96.9,42.2c0.9,1.6,1.4,3.2,1.6,5c0.4-0.2,0.8-0.5,1.2-0.7
		c18.2-11.5,37.4-21.4,57.4-29.6c19.8-8.1,40.4-14.5,61.3-19c32.7-7,66.5-9.7,98.2-20.5c-20.8,38-54.2,69-93.7,87
		c-32.2,14.7-68.3,20.6-103.5,17.3c0.5,1.4,0.7,2.9,0.6,4.3c9.9-0.8,19.9,1,29.8,1.5c29.2,1.3,57.5-9.9,83.2-23.8
		c11.5-6.2,22.7-13.1,34.4-18.7c3.6-1.7,7.2-3.3,11-4.8c15.9-6.2,33.6-9.4,50.1-5c-22.9,34.4-60.3,58.9-101.1,66
		c-23.4,4.1-47.4,2.7-70.9,6.1c-10.7,1.6-21.2,4.1-31.7,6.5c-0.1,0.1-0.2,0.3-0.4,0.4c1.9,0.6,3.6,1.7,5.1,3.1
		c7.6-2.5,15.5-3.5,23.3-4.4c38.8-4.5,77.6-9,116.6-10.2c12.4-0.4,25-0.3,36.9,3.4c5.6,1.8,11,4.6,15.6,8.3
		c5.1,4.1,9.2,9.2,11.4,15.4c-8.7,5.3-19.5,6.3-29.6,5c-10.1-1.2-19.9-4.4-29.8-7c-46.4-11.8-96.7-8-140.7,10.8c1,1,1.8,2.2,2.4,3.5
		c2-0.8,4-1.5,6-2.2c10.5-3.7,21.2-6.7,32.1-8.9c21.6-4.4,43.9-5.9,65.9-4.2c43,3.3,85.1,18.6,120.3,43.7
		c-21.6,10-43.9,18.8-66.9,25C856.6,530.5,841.4,533.5,826,534.9z"/>
	<path class="st1" d="M390.5,144.3c-0.9-8.4-3-17.9-2.4-26.3c3.8,2.7,6.9,7.9,9.9,11.6c3.3,4,6.5,8.1,9.7,12.3
		c6.3,8.3,12.4,16.8,18.2,25.4c3,4.5,6,9.2,7.4,14.4c3.7,13.7-3.9,28.3-2.1,42.4c-0.8,23.5,3.7,47.1,13.1,68.7
		c0.4,0.9,0.8,1.8,1.1,2.6c-0.1,0.3-0.2,0.6-0.3,0.9c-3.2-3-8-4.2-12.5-2.7c-1.2,0.4-2.3,1-3.3,1.7c-11.1-20.2-19.2-42.3-24.9-64.7
		c-0.6-2.4-1.2-4.8-1.8-7.2c-4.1-17.3-6.9-34.8-9.2-52.5C392.4,162,391.4,153.2,390.5,144.3z M385.8,237
		c14.7,19.2,26.7,40.8,35.6,64.7c1,0.4,1.9,0.9,2.7,1.5c0.2-1.2,0.7-2.3,1.2-3.4c-12.6-23.3-22.9-55-30.8-94.7
		c-2.5-12.7-4.7-26.2-6.6-40.1c-24-26.6-52.8-43.8-85.8-51.1c9.7,9.6,26.4,31.9,39.9,79.3C358.6,206,373.3,220.7,385.8,237z
		 M444.8,277c1.2,4.6,2.5,9.1,4,13.6c1.6-1.4,3.5-2.4,5.7-2.9c4.6-1,9.2,0.7,12.1,4c1.8-4.1,5.6-7.1,10.3-7.6s9,1.7,11.6,5.3
		c1.8-3.3,5-5.7,8.8-6.3c10-28.8,14.7-59.5,12.8-89.9c-0.9-14.1-3.3-28.2-7.1-41.8c-6.3-22.6-16.6-44-30.8-62.6
		c0.2,0.2-1.5,3.7-1.7,4.1c-8.9,21.2-17.6,42.6-24.2,64.8c-2.4,8-4.4,16.1-5.7,24.4c-1.8,10.5-2.8,21.2-3,31.8
		c-0.3,10.7,0.2,21.3,1.4,31.9C440.1,256.1,442.1,266.6,444.8,277z M508.8,152.6c1.2,5.1,2.2,10.3,3.1,15.5c1.7,10.4,2.7,21,3,31.5
		c0.6,21.1-1.5,42.3-6.4,62.9c-1.7,7-3.7,13.9-6,20.8c3.4,0.8,6.3,3.1,8,6.1c2-2.9,5.2-4.8,8.8-5.3c0-1.5,0-3,0-4.4
		c-0.2-13.7-1.8-27.3-1-40.9c1.8-34.3,17.9-66.5,21.9-100.6c2.6-22.7-0.2-45.6-3.3-68.2c-2.3,5.4-4.6,10.9-6.9,16.3
		c-7.2,17.1-14.4,34.3-21.6,51.4c-1.1,2.5-2.3,4.4-1.6,7.1S508.2,150,508.8,152.6z M164.8,253.4c2.4,7.6,5.2,15,8.4,22.3
		c6.4,14.6,14.4,28.4,23.8,41.3c1,1.4,2.1,2.8,3.2,4.2c4.2,5.5,8.8,10.9,14.6,14.6c6.7,4.3,14.7,6.2,22.4,8.4
		c29.8,8.6,57.9,22.6,82.6,41.2c1-0.3,2.1-0.4,3.2-0.3c-1.9-4-1.6-8.9,1.2-12.7c2.8-3.8,7.3-5.6,11.7-5.1c-1.4-4.2-0.6-9,2.6-12.5
		c0.5-0.6,1.1-1.1,1.7-1.6c-7.7-11.5-17-21.9-26.9-31.6c-22-21.8-46.7-40.8-73.2-56.8c-13.3-8-27.1-15.3-41.3-21.7
		c-7.1-3.2-14.3-6.2-21.5-9c-3.6-1.4-7.3-2.7-11-4c-2.6-0.9-7.6-4-7.5,0.2c0.1,3.7,1.7,8,2.7,11.6
		C162.5,245.8,163.6,249.6,164.8,253.4z M200.2,408.3c25.8,1.4,48.9,4.8,68.7,10.2c9.9,2.7,19,5.9,27.4,9.6c1.8-1.9,4.2-3.2,6.7-3.8
		c-2.6-3.5-3.3-8.4-1.4-12.7c1.9-4.3,6-7,10.4-7.4c-2.3-3.8-2.5-8.7-0.1-12.8c0.8-1.4,1.9-2.6,3.1-3.5c-3.4-2.5-6.8-4.9-10.4-7.3
		c-12.9-8.5-26.5-15.8-40.7-21.8c-26.4-11.3-54.9-18.5-83.4-21.8c-43.7-5.1-79.9-0.5-91.9,1.4c11.9,8.8,48.5,35.2,91.9,59.4
		C187.1,401.4,193.7,405,200.2,408.3z M166.8,477.9c12.6,1.1,24.9-3,37.2-5.9c27.3-6.5,55.9-7.2,83.4-2.3c1.2-1.2,2.6-2.2,4.2-2.9
		c-3.3-2.9-5-7.5-4-12.1c1-4.6,4.4-8.1,8.6-9.4c-3-3.3-4.2-8-2.7-12.5c0.1-0.2,0.1-0.3,0.2-0.5c-6.9-3.1-14-5.7-21.3-7.9
		c-21.4-6.4-43.7-9.1-66-10.6c-35.8-2.3-71.9-1.4-107.5,2.8c-11.4,1.3-22.8,2.9-34.1,5c22.9,19.8,48.7,36.2,76.3,48.6
		C149.4,473.7,157.9,477.1,166.8,477.9z M249.8,265.4c32.1,19.6,70.5,48.6,94.3,85.8c2.1-0.7,4.4-0.8,6.6-0.3
		c-0.6-2.7-0.3-5.5,0.9-8.1c-28.9-29.3-55.3-68.7-74.4-100.5c-6.7-11.3-13.5-23.2-20.2-35.5c-27.6-15.3-51-24.4-58.7-27.2
		c-0.1,7.3,1.5,30.4,21.9,69.3C230.6,254.2,240.5,259.8,249.8,265.4z M244.6,172.7c3.7,7.6,7.6,15.2,11.6,22.7
		c7.9,15,16.3,29.8,25.2,44.3c11.4,18.7,23.5,37,36.3,54.8c9.6,13.3,19.6,26.4,30.8,38.4c1.9,2.1,3.9,4,5.9,6
		c0.1-0.1,0.1-0.1,0.2-0.2c3.5-3.2,8.3-4,12.5-2.6c-0.5-4.4,1.3-8.9,5.1-11.7c3.8-2.7,8.7-3,12.7-1.2c-0.1-4.4,2.2-8.7,6.3-11.1
		c4.1-2.4,9-2.2,12.8,0.1c0,0,0,0,0,0c0.4-4.4,3.1-8.5,7.4-10.4c1.5-0.7,3.1-1,4.6-1.1c-12.4-31.6-31.3-60.7-55.3-84.6
		c-21.4-21.3-46.9-38.5-74.7-50.7c-8.4-3.7-16.9-6.8-25.6-9.5c-4.4-1.4-8.7-2.6-13.2-3.7c-3.2-0.8-10.5-3.8-13.4-2.6
		c0.9,3.9,3.5,7.8,5.2,11.4C240.9,165,242.8,168.9,244.6,172.7z M735.6,347.9c-19.9,8.2-39.2,18.1-57.4,29.6
		c-0.4,0.2-0.8,0.5-1.2,0.7c0.3,2.3-0.1,4.7-1,6.8c4.4-0.1,8.7,2.2,11.1,6.3s2.2,9-0.1,12.8c4.4,0.4,8.5,3.1,10.4,7.4
		c0.2,0.4,0.3,0.8,0.5,1.2c35.2,3.3,71.4-2.6,103.5-17.3c39.4-18,72.8-49,93.7-87c-31.7,10.9-65.5,13.5-98.2,20.6
		C776,333.4,755.4,339.8,735.6,347.9z M178.5,551.2c14.1-4.3,27.3-10.9,41.4-15.1c21.6-6.3,44.4-6.6,67.1-6.9
		c-1.6-1.9-2.7-4.2-3-6.9c-0.5-4.7,1.7-9,5.3-11.6c-3.9-2.1-6.5-6.3-6.5-11s2.6-8.8,6.5-11c-3.6-2.5-5.8-6.9-5.3-11.6
		c0.1-1.2,0.4-2.3,0.8-3.3c-23.7-4.2-48.8-3.4-71.8,0.8c-10.5,1.9-20.9,4.7-31,8.3c-30.8,6.9-60.3,23.5-86.3,41.2
		c-12.3,8.4-24,17.5-35,27.4C100,557.3,140.7,562.9,178.5,551.2z M900.4,445.4c-4.6-3.7-10-6.5-15.6-8.3
		c-11.8-3.8-24.5-3.8-36.9-3.4c-39,1.1-77.8,5.6-116.6,10.1c-7.9,0.9-15.8,1.9-23.4,4.4c1.8,1.7,3.1,3.9,3.6,6.4
		c1,4.6-0.7,9.2-4,12.1c1.5,0.7,2.9,1.6,4.1,2.8c44.1-18.7,94.3-22.7,140.8-10.8c9.9,2.5,19.7,5.7,29.8,7c10.1,1.2,20.9,0.3,29.6-5
		C909.6,454.6,905.5,449.5,900.4,445.4z M856.9,371.2c-3.7,1.5-7.4,3.1-11,4.8c-11.8,5.7-23,12.5-34.4,18.7
		c-25.7,13.9-54,25-83.2,23.8c-9.9-0.5-19.9-2.3-29.8-1.5c-0.1,2.6-0.9,5.1-2.5,7.2c4.4,0.9,8.1,4,9.6,8.5c1.4,4.3,0.4,8.9-2.3,12.1
		c10.5-2.4,21.1-4.9,31.7-6.5c23.5-3.4,47.5-2,70.9-6.1c40.7-7.1,78.2-31.6,101.1-66C890.5,361.8,872.7,365,856.9,371.2z M826,534.9
		c15.4-1.5,30.6-4.4,45.5-8.4c22.9-6.2,45.3-15,66.9-25c-35.1-25.1-77.2-40.4-120.3-43.7c-22-1.7-44.3-0.2-65.9,4.2
		c-10.9,2.2-21.6,5.2-32.1,8.9c-2,0.7-4,1.5-6,2.3c0.5,1.2,0.9,2.5,1,3.8c0.5,4.7-1.7,9-5.3,11.6c3.9,2.1,6.5,6.3,6.5,11
		s-2.6,8.8-6.5,11c0.5,0.3,0.9,0.7,1.3,1.1c0.4,0.2,0.8,0.5,1.2,0.7C746.1,532.4,786.9,538.6,826,534.9z M756.7,291.7
		c-1,1.4-2.1,2.9-3.2,4.3c-21.5,28.7-52.5,50.3-86.9,60.5c-1.4,0.4-2.7,0.8-4.1,1.1c1.5,3,1.6,6.4,0.6,9.6c4.4-0.5,8.9,1.3,11.7,5.1
		c0.2,0.3,0.3,0.6,0.5,0.8c29.7-19.1,62.5-33.5,96.8-42.1c9.3-2.4,18.8-4.4,27.5-8.6c15.9-7.7,27.6-22.1,36.3-37.5
		c8.7-15.4,14.9-32.1,23.1-47.7c-14.4,6.1-29.9,9-44.9,13.3s-30.1,10.2-41.4,21C766.6,277.5,761.7,284.7,756.7,291.7z M601.7,276.4
		c-3.3,9.2-7.1,18.2-11.5,26.9c2.8,2.2,4.5,5.4,4.8,8.8c0.3-0.2,0.5-0.3,0.8-0.5c12.6-47.4,36.6-91.7,69.5-127.9
		c5.6-6.2,11.6-12.3,15.5-19.7c6.2-11.8,6.6-25.9,3.7-38.9c-2.8-13-8.7-25.1-14.4-37.1c-10.7,21.2-21.9,42.2-33.5,62.9
		c-4.1,7.3-8.2,14.5-12.5,21.7c-1.8,3.1-3.6,6.1-5.4,9.1c-1.1,1.8-2.9,3.8-3.6,5.8c-0.8,2.1,0,5.3,0,7.6c0.1,5.5-0.1,11-0.4,16.5
		C613.5,233.7,609,255.6,601.7,276.4z M534.5,181c-2.9,11.3-5.5,22.7-7.4,34.2c-3.8,22.8-5.2,46.2-2.1,69.2c0,0.1,0,0.3,0.1,0.4
		c3.3,1.2,6,3.7,7.3,6.9c2.9-3.3,7.5-5,12.1-4c4.6,1,8.1,4.4,9.4,8.6c3.3-3,8-4.2,12.5-2.7c4.5,1.4,7.6,5.2,8.5,9.5
		c3-2.2,7.1-3.1,10.9-2c5.7-10.2,10.3-21,13.8-32.1c8.7-27.2,11.4-55.7,11-84.3c-0.2-14.2-1.2-28.5-2.6-42.6
		c-1-10.3-2.4-20.7-6.6-30.2c-4.2-9.4-11.8-17.9-21.7-20.8c-0.9-0.3-8.4,12.5-9.2,13.9c-12,18.9-23.6,38.9-31.4,59.9
		C537.2,170.2,535.9,175.6,534.5,181z M618,263.7c-7.2,14.6-12.7,30.5-16.9,46.6c2.3-0.1,4.6,0.5,6.7,1.7c4.1,2.4,6.4,6.7,6.3,11.1
		c3.4-1.6,7.5-1.6,11,0.2c4.5-8.4,7.9-17.2,12.2-25.7c8.7-17.5,20.9-33.2,35.7-45.9c10.3-8.8,22-16.4,30.3-27.1
		c6.7-8.5,10.9-18.6,15-28.6c8.8-21.3,17.9-43.7,16.3-67.2c0-0.6-0.1-1.2-0.2-1.7c-0.1-0.6-0.1-1.2-0.3-1.8c-3.4,2-6.5,5-9.7,7.4
		c-4.4,3.4-8.8,6.8-13,10.5c-8.6,7.4-16.8,15.1-24.6,23.3c-13.6,14.1-26.2,29.1-37.5,45.1C637.5,227.9,627,245.4,618,263.7z
		 M652.4,281.2c-3,4.1-5.7,8.3-8.3,12.7c-2.4,4.1-4.1,8.6-6.4,12.6c-3.6,6.3-6.5,13.1-8.5,20.1c2.1,2.7,3,6,2.7,9.4
		c4.2-1.4,9-0.6,12.5,2.6c3.6,3.2,4.9,7.9,3.9,12.2c3.7-0.8,7.7,0.1,10.8,2.6c22.5-4.6,43.3-15.9,61.2-30.4
		c18.8-15.3,34.3-34.2,48.2-54.1c10.8-15.4,20.8-31.9,23.9-50.4c0.9-5.4,0.7-11.9-2.8-15.7c-0.6-0.7-1.4-1.3-2.3-1.8
		c-4.3-2.4-9.6-1-14.2,0.6c-27.3,9.2-54,21-77.5,37.7C679.1,250.8,664.2,264.9,652.4,281.2z M572.8,701c-1.5,2.1-3.7,3.8-6.3,4.7
		c-4.5,1.5-9.3,0.3-12.5-2.7c-1.3,4.2-4.8,7.6-9.4,8.6c-2.4,0.5-4.9,0.3-7.1-0.5c-1.7,14.6-3,29.3-3.1,44
		c-0.2,12.4,0.4,24.9,1.9,37.2c5.3,42.8,24,85.7,59.1,110.9c4.1-40.7,8.1-82,1.8-122.4C592.7,753.2,583.7,726.8,572.8,701z
		 M633.7,788.6c-20.7-28.2-36.5-60.7-40.9-95.3c-1.3,1.8-3,3.3-5.1,4.2c-4.3,1.9-9.2,1.2-12.7-1.4c0,0,0,0.1,0,0.1
		c14.4,33.6,29.4,67.9,30.5,104.3c0.5,17.7-2.3,35.7,0,53.1c0.3,2.1,0.6,4.2,1.1,6.2c4.5,21.2,17.7,39.4,30.7,56.9
		c11.9-20.4,14.1-44.9,15.9-68.5c0.7-9.3,1.5-18.8-0.9-27.9C649.2,808.4,641.1,798.5,633.7,788.6z M707.9,710.6
		c0.4,0.3,0.8,0.7,1.2,1c0.1,0,0.1,0.1,0.1,0.1c-0.3-0.3-0.6-0.5-0.9-0.8C708.2,710.8,708,710.7,707.9,710.6z M680.2,613.6
		c-1.3,0.4-2.7,0.7-4.1,0.6c1.9,4,1.6,8.9-1.2,12.7s-7.3,5.6-11.7,5.1c1.4,4.2,0.6,9-2.6,12.5c-1.1,1.3-2.4,2.2-3.8,2.9
		c0.4,0.7,0.7,1.2,0.8,1.4c1.3,2.3,2.6,4.5,3.9,6.8c2.7,4.5,5.5,8.9,8.5,13.1c6,8.6,12.5,16.7,19.6,24.3
		c5.9,6.3,12.1,12.3,18.7,17.9c0.4,0.3,0.7,0.5,1,0.9c0,0-0.1,0-0.1-0.1c9.8,8.2,20.3,15.7,31.4,21.9c16.1,9.1,33.5,16,51.5,20.3
		c-10.1-34-26.5-66.4-49.9-93C725,641.1,703.9,624.7,680.2,613.6z M643.7,679.7c-3.3-5.7-6.9-11.2-10.9-16.3
		c-0.3-0.1-0.5-0.1-0.8-0.2c0.5,4.4-1.3,8.9-5.1,11.7c-3.8,2.7-8.7,3-12.7,1.2c0.1,4.4-2.2,8.7-6.3,11.1c-3.7,2.2-8.1,2.2-11.7,0.5
		c1.4,10.3,3.9,20.5,7,30.3c5.1,15.8,12.1,30.9,20.3,45.3c20.8,36.5,48.5,68.6,72.1,103.3c0,0.1,0.1,0.1,0.1,0.2
		c-7.2-48-18.4-95.4-33.3-141.7C657.3,709.6,651.8,694,643.7,679.7z M652.1,648.7c-1.2,0.1-2.5,0-3.7-0.3c0.9,4.3-0.4,9-3.9,12.2
		c-1.6,1.5-3.6,2.5-5.6,2.9c11.7,16,22.2,36.7,31.3,61.9c21.2,22.2,49.9,38.3,85.1,48.1c-8.7-9.6-27.3-30.7-39.6-50.5
		C689.6,703.4,668.2,678.4,652.1,648.7z M837.7,580.3c-20.2-6.9-41.5-9.8-62.4-14.5c-21.9-4.9-43.3-11.8-64-20.5
		c-1.2,4.2-4.4,7.5-8.4,8.7c3,3.3,4.2,8,2.7,12.5c-1.4,4.5-5.2,7.6-9.5,8.5c2.6,3.5,3.3,8.4,1.4,12.7c-1.6,3.6-4.7,6-8.2,7
		c2,1.3,3.9,2.5,5.8,3.7c4.4,2.9,8.9,5.6,13.5,8.2c9.2,5.1,18.8,9.6,28.6,13.4c19.1,7.4,39.2,12.3,59.6,14.8
		c40.7,5.1,82.2,1.1,122.2-8.3c-23.3-16.4-47.1-33-73.5-43.4C842.9,582.1,840.3,581.2,837.7,580.3z M858.2,537.8
		c-1.1-0.2-2.2-0.3-3.3-0.4c-11.2-1.1-22.4,0.8-33.6,2c-29.2,3-59.5,0.7-86.3-11.2c-6.5-2.9-12.9-6.5-19.9-8.1c0,0.7,0,1.4,0,2.1
		c-0.5,4.7-3.5,8.6-7.6,10.3c2.1,1.9,3.6,4.5,4.1,7.3c30,13,61.7,22,93.9,28.1c39.9,7.6,80.5,10.8,121,12.8
		c-10.3-9.9-20.6-19.8-32.4-27.8C883.4,545.5,871.1,539.8,858.2,537.8z M778.9,639c-6.2-4-13.6-5.5-20.7-7.3
		c-14-3.5-44.8-18.1-69.3-31c0.2,2.4-0.4,4.9-1.7,7.2c-0.6,1-1.3,1.9-2.1,2.7c5.7,4.1,11.5,8,17.5,11.6
		c27.1,16.1,50.2,40.3,66.3,67.3c2.6,4.3,5,8.7,7.3,13.2c3.7,7.4,7.1,15.1,12.5,21.4c6.4,7.4,15.2,12.3,24.4,15.4
		c9.2,3.1,18.9,4.5,28.6,5.9c-11.3-33.7-28.3-65.4-50-93.5C787.9,647.1,784,642.3,778.9,639z M839.7,641.7c-6.5,0.1-13,0-19.3-0.3
		c-12-0.5-23.8-1.7-35.1-3.6c9.6,10.2,18.7,21.9,26.9,34.8c19.9,3.7,39.8,3.8,59.3,0.2C866.9,667.5,855.7,655.3,839.7,641.7z
		 M529.7,761c-0.3-19.2,1.2-37.4,3.1-53.1c-0.1-0.1-0.2-0.2-0.3-0.3c-1.8,4.1-5.6,7.1-10.3,7.6c-4.7,0.5-9-1.7-11.6-5.3
		c-0.3,0.5-0.6,1-0.9,1.5c3.6,37,5.4,88-5.2,130.5c4.9,27.7,12.8,57.1,23.7,87.4c4.9-10.3,15.8-35,24.8-66.6
		c-3.4-6.1-6.5-12.7-9.1-19.4C534.9,820,530.1,792.3,529.7,761z M340,645.9c-0.5-0.4-0.9-0.8-1.4-1.3c-3.2-3.5-4-8.3-2.6-12.5
		c-4.4,0.5-8.9-1.3-11.7-5.1c-2.7-3.8-3-8.7-1.2-12.7c-4.4,0.1-8.7-2.2-11.1-6.3c-2.3-3.9-2.2-8.5-0.2-12.3
		c-3.2,0.6-6.2,1.3-9.4,2.2c-8,2.1-15.3,5.6-23,8.1c-13.2,4.2-25.5,13.2-36.8,21.2c-12.1,8.6-23.7,18-34.5,28.1
		c-21.7,20.3-40.7,43.5-56.1,68.9c-1.9,3-3.7,6.1-5.4,9.2c43.9-8.9,87.7-20.5,127.1-41.9C298,680.2,320.5,664.7,340,645.9z
		 M312.2,737.7c27.1-14.2,52-34.1,67.5-60.3c-2.6,0-5.1-0.8-7.4-2.4c-3.8-2.8-5.6-7.3-5.1-11.7c-4.2,1.4-9,0.6-12.5-2.6
		c-3.6-3.2-4.9-7.9-3.9-12.2c-2,0.4-4.1,0.3-6.1-0.2c-2.6,2.5-5.2,5-7.9,7.4c-11.9,10.5-24.8,19.9-38.5,28c-3.8,2.2-8,4-11.7,6.5
		c-7.7,4-15.7,7.6-21.6,13.9c-9.7,10.3-11.9,25.4-18,38.2c-6.1,12.7-16.1,23.1-24.6,34.3c-8.5,11.3-15.9,24.5-15.1,38.6
		c7.7-21,25.5-36.8,44.8-48.1C271.2,755.7,292.4,748.1,312.2,737.7z M189.9,652.4c4.8-0.1,9.8,0.3,14.3-1.4c0.8-0.3,1.6-0.7,2.4-1.2
		c4.8-2.9,8.2-7.6,12.4-11.1c6.5-5.5,13.2-10.8,20.2-15.7c12.9-9,26.6-16.8,41.2-22.8c0.1-0.1,0.3-0.1,0.4-0.2
		c8.1-3.3,16.1-5.8,24.3-7.7c-1.4-1.2-2.6-2.7-3.4-4.5c-0.5-1.1-0.8-2.2-1-3.3c-49.3,14.9-107.5,31.1-141.2,35.6
		c-8.2,1.1-14.8,1.4-19.5,1.1c-1.7-0.1-3.6-0.3-5.7-0.6c-17.1,9.6-30,17.8-36.7,22.2C109.6,645.6,146,653.2,189.9,652.4z
		 M154.3,616.1c25.1-1.3,49.5-8.5,73.7-15.7c24.4-7.3,48.9-14.6,73.3-21.8c0.4-1.3,1-2.4,1.8-3.5c-4.4-0.9-8.1-4-9.6-8.5
		s-0.3-9.3,2.7-12.5c-4.2-1.3-7.6-4.8-8.6-9.4c-0.9-4.1,0.4-8.2,3-11.1c-9.3-0.2-18.5,0.1-27.7,0.7c-13.1,1-26.1,3.2-38.8,6.7
		c-16.4,4.5-32,11.2-47.2,18.8c-23.9,11.9-47.6,22.6-73.1,30.7c-6.9,2.2-13.8,4.2-20.8,6.1C102.8,612.1,129.2,617.4,154.3,616.1z
		 M395.9,692.2c1-1.1,2.1-2.2,3.1-3.3c-2.6,0.3-5.3-0.2-7.7-1.6c-4.1-2.4-6.4-6.7-6.3-11.1c-0.1,0.1-0.2,0.1-0.3,0.2
		c-13.8,26-35.8,47.7-62.2,60.9c-9.1,4.6-18.8,8.3-26.3,15.3C290,758.4,286,766,282,773.5c-17.6,33.3-35.5,67.6-40.7,104.9
		c10.4-2.4,20.2-6.6,29.3-12c14.5-8.7,27.2-20.6,37.8-33.9c17.3-21.5,29.7-46.5,42.4-71C363.7,737,377,712.4,395.9,692.2z
		 M507.5,775c0.3-15.7-1.3-31.3-1.3-47c0-2.2-0.1-4.3-0.2-6.5c-0.1-2.2-0.3-4.4-0.5-6.6c-1.8,0.9-3.8,1.5-5.9,1.5
		c-1.1,0-2.3-0.2-3.3-0.4c-3.4,26.6-11.8,55.6-25.1,86.9c-0.3,20.5-2.7,43.1-7.1,65.5c-4.1,21.1-11.1,47.4-19.1,60.1
		c1.3-2.1,5.3-3.1,7.3-4.5c2.9-2,5.6-4.2,8.1-6.5c8.3-7.7,14.5-17.3,19.9-27.2c14.4-26.2,22-54.4,25.2-84
		C506.8,795.9,507.3,785.5,507.5,775z M432.7,705.7c-4.5-1.4-7.6-5.2-8.5-9.5c-3.5,2.6-8.4,3.3-12.7,1.4c-3.5-1.5-5.9-4.6-6.9-8
		c-27,28.4-46.6,63.8-56.3,101.8c-10,38.6-9.8,79.8,0.5,118.3c9.8-29.1,40.5-47.9,48.5-77.5c2.3-8.5,2.5-17.4,3.2-26.1
		c2.9-35.4,14-70.5,34.1-99.9C433.9,706.1,433.3,705.9,432.7,705.7z M491.6,713.5c-1.2-1-2.2-2.2-3-3.6c-2.5,3.6-6.9,5.8-11.6,5.3
		s-8.6-3.5-10.3-7.6c-2.9,3.3-7.5,5-12.1,4c-4.6-1-8.1-4.4-9.4-8.6c-1.6,1.4-3.5,2.4-5.5,3c-3.1,4.8-6.1,9.7-8.9,14.8
		c-8.6,15.8-15.2,32.7-19.7,50.1c-11.1,42.5-10.2,87.7-0.8,130.6c24.8-34.5,45.2-72.1,60.5-111.7
		C481.9,765.7,488.8,739.8,491.6,713.5z"/>
</g>
</svg>
